{"glyphs":{"0":{"ha":833,"x_min":74,"x_max":785,"o":"m 408 -11 q 159 100 244 -11 q 74 424 74 211 q 118 735 74 606 q 247 932 163 864 q 449 1000 331 1000 q 699 889 613 1000 q 785 565 785 778 q 686 140 785 292 q 408 -11 588 -11 m 413 106 q 583 228 525 106 q 642 586 642 350 q 594 811 642 739 q 447 883 546 883 q 276 760 335 883 q 217 403 217 638 q 265 178 217 250 q 413 106 313 106 z "},"1":{"ha":833,"x_min":142,"x_max":728,"o":"m 728 118 l 718 0 l 142 0 l 151 118 l 367 118 l 422 817 l 210 693 l 221 825 l 497 989 l 581 989 l 510 118 l 728 118 z "},"2":{"ha":833,"x_min":81,"x_max":750,"o":"m 276 118 l 739 118 l 729 0 l 81 0 l 89 107 l 461 479 q 573 617 539 556 q 607 740 607 678 q 565 845 607 807 q 447 883 522 883 q 306 857 375 883 q 164 775 236 831 l 122 881 q 275 969 188 938 q 460 1000 363 1000 q 672 931 593 1000 q 750 742 750 861 q 707 578 750 656 q 560 397 664 500 l 276 118 z "},"3":{"ha":833,"x_min":47,"x_max":750,"o":"m 569 506 q 692 426 649 482 q 736 288 736 371 q 694 133 736 200 q 572 28 651 65 q 386 -10 493 -10 q 199 22 286 -10 q 47 110 113 53 l 107 215 q 389 107 240 107 q 542 154 488 107 q 597 286 597 201 q 396 443 597 443 l 275 443 l 285 560 l 392 560 q 551 608 493 560 q 608 742 608 656 q 565 845 608 807 q 444 883 521 883 q 164 775 301 883 l 122 881 q 273 968 183 936 q 460 1000 363 1000 q 670 933 590 1000 q 750 757 750 867 q 702 603 750 669 q 569 506 654 536 z "},"4":{"ha":833,"x_min":50,"x_max":792,"o":"m 783 206 l 638 206 l 621 0 l 479 0 l 496 206 l 50 206 l 58 313 l 581 989 l 699 989 l 646 321 l 792 321 l 783 206 m 504 321 l 539 754 l 206 321 l 504 321 z "},"5":{"ha":833,"x_min":79,"x_max":783,"o":"m 311 874 l 286 567 q 476 626 367 626 q 631 590 564 626 q 735 488 699 554 q 772 338 772 422 q 728 155 772 233 q 602 33 683 76 q 415 -10 521 -10 q 231 21 318 -10 q 79 110 144 51 l 139 215 q 415 107 269 107 q 574 166 515 107 q 633 325 633 225 q 581 460 633 410 q 442 510 529 510 q 319 484 375 510 q 225 408 264 458 l 132 408 l 178 989 l 783 989 l 774 874 l 311 874 z "},"6":{"ha":833,"x_min":75,"x_max":815,"o":"m 471 626 q 626 588 558 626 q 732 482 694 550 q 769 325 769 414 q 727 152 769 229 q 610 32 685 75 q 440 -11 535 -11 q 170 101 265 -11 q 75 418 75 213 q 126 726 75 594 q 273 928 178 857 q 494 1000 368 1000 q 667 969 583 1000 q 815 881 750 939 l 756 775 q 628 856 694 828 q 500 883 563 883 q 308 785 379 883 q 222 497 236 686 l 221 481 q 323 588 257 549 q 471 626 389 626 m 436 106 q 576 165 522 106 q 631 319 631 224 q 578 458 631 406 q 440 510 526 510 q 294 451 351 510 q 238 299 238 392 q 292 159 238 213 q 436 106 347 106 z "},"7":{"ha":833,"x_min":124,"x_max":803,"o":"m 803 989 l 794 882 l 276 0 l 124 0 l 636 871 l 125 871 l 133 989 l 803 989 z "},"8":{"ha":833,"x_min":47,"x_max":786,"o":"m 586 508 q 724 419 674 482 q 774 271 774 357 q 726 121 774 185 q 594 24 679 57 q 397 -10 508 -10 q 141 60 235 -10 q 47 251 47 131 q 107 415 47 347 q 272 508 167 483 q 152 594 196 535 q 108 733 108 654 q 205 929 108 858 q 464 1000 301 1000 q 633 970 560 1000 q 746 885 706 940 q 786 756 786 829 q 733 601 786 667 q 586 508 679 536 m 457 885 q 302 843 357 885 q 246 722 247 801 q 295 604 246 649 q 432 549 344 560 q 590 610 533 561 q 646 738 646 660 q 596 847 646 808 q 457 885 546 885 m 404 106 q 573 151 511 106 q 635 279 635 197 q 581 398 635 353 q 425 453 528 443 q 245 392 304 439 q 186 268 186 346 q 244 147 186 189 q 404 106 301 106 z "},"9":{"ha":833,"x_min":43,"x_max":783,"o":"m 418 1000 q 688 888 593 1000 q 783 571 783 776 q 732 263 783 394 q 586 60 681 132 q 365 -11 492 -11 q 193 19 276 -11 q 43 108 110 50 l 103 214 q 230 133 164 161 q 360 106 296 106 q 551 205 479 106 q 636 492 622 304 l 638 508 q 535 402 601 442 q 389 363 469 363 q 232 401 300 363 q 126 507 164 439 q 89 664 89 575 q 131 836 89 760 q 249 956 174 913 q 418 1000 324 1000 m 418 479 q 564 538 507 479 q 621 690 621 597 q 567 830 621 776 q 426 883 513 883 q 283 824 338 883 q 228 669 228 765 q 280 531 228 583 q 418 479 332 479 z "},"\u0000":{"ha":0,"x_min":0,"x_max":0,"o":""},"\r":{"ha":371,"x_min":0,"x_max":0,"o":""}," ":{"ha":371,"x_min":0,"x_max":0,"o":""},"A":{"ha":1029,"x_min":-12,"x_max":989,"o":"m 761 244 l 261 244 l 138 0 l -12 0 l 506 989 l 625 989 l 989 0 l 847 0 l 761 244 m 721 358 l 556 829 l 318 358 l 721 358 z "},"Á":{"ha":1029,"x_min":-12,"x_max":989,"o":"m 761 244 l 261 244 l 138 0 l -12 0 l 506 989 l 625 989 l 989 0 l 847 0 l 761 244 m 721 358 l 556 829 l 318 358 l 721 358 m 525 1074 l 681 1288 l 833 1288 l 618 1074 l 525 1074 z "},"Ă":{"ha":1029,"x_min":-12,"x_max":989,"o":"m 761 244 l 261 244 l 138 0 l -12 0 l 506 989 l 625 989 l 989 0 l 847 0 l 761 244 m 721 358 l 556 829 l 318 358 l 721 358 m 578 1089 q 435 1128 497 1089 q 350 1239 374 1167 l 432 1272 q 494 1203 457 1224 q 582 1182 531 1182 q 671 1202 632 1182 q 743 1272 710 1222 l 819 1239 q 722 1126 785 1164 q 578 1089 658 1089 z "},"Ắ":{"ha":1029,"x_min":-12,"x_max":989,"o":"m 761 244 l 261 244 l 138 0 l -12 0 l 506 989 l 625 989 l 989 0 l 847 0 l 761 244 m 721 358 l 556 829 l 318 358 l 721 358 m 690 1417 l 836 1417 l 626 1219 l 540 1219 l 690 1417 m 576 1067 q 434 1104 494 1067 q 349 1217 374 1142 l 419 1246 q 487 1174 446 1196 q 582 1151 528 1151 q 750 1246 690 1151 l 818 1217 q 717 1103 781 1140 q 576 1067 654 1067 z "},"Ặ":{"ha":1029,"x_min":-12,"x_max":989,"o":"m 761 244 l 261 244 l 138 0 l -12 0 l 506 989 l 625 989 l 989 0 l 847 0 l 761 244 m 721 358 l 556 829 l 318 358 l 721 358 m 554 -121 l 543 -262 l 394 -262 l 407 -121 l 554 -121 m 578 1089 q 435 1128 497 1089 q 350 1239 374 1167 l 432 1272 q 494 1203 457 1224 q 582 1182 531 1182 q 671 1202 632 1182 q 743 1272 710 1222 l 819 1239 q 722 1126 785 1164 q 578 1089 658 1089 z "},"Ằ":{"ha":1029,"x_min":-12,"x_max":989,"o":"m 761 244 l 261 244 l 138 0 l -12 0 l 506 989 l 625 989 l 989 0 l 847 0 l 761 244 m 721 358 l 556 829 l 318 358 l 721 358 m 369 1417 l 499 1417 l 626 1219 l 540 1219 l 369 1417 m 576 1067 q 434 1104 494 1067 q 349 1217 374 1142 l 419 1246 q 487 1174 446 1196 q 582 1151 528 1151 q 750 1246 690 1151 l 818 1217 q 717 1103 781 1140 q 576 1067 654 1067 z "},"Ẳ":{"ha":1029,"x_min":-12,"x_max":989,"o":"m 761 244 l 261 244 l 138 0 l -12 0 l 506 989 l 625 989 l 989 0 l 847 0 l 761 244 m 721 358 l 556 829 l 318 358 l 721 358 m 544 1244 q 563 1283 546 1269 q 610 1308 581 1297 q 637 1322 629 1317 q 644 1335 644 1326 q 600 1354 644 1354 q 506 1339 558 1354 l 489 1403 q 611 1425 547 1425 q 710 1403 674 1425 q 746 1346 746 1381 q 728 1301 746 1317 q 676 1272 710 1286 q 640 1254 653 1263 q 626 1232 628 1246 l 625 1219 l 543 1219 l 544 1244 m 576 1067 q 434 1104 494 1067 q 349 1217 374 1142 l 419 1246 q 487 1174 446 1196 q 582 1151 528 1151 q 750 1246 690 1151 l 818 1217 q 717 1103 781 1140 q 576 1067 654 1067 z "},"Ẵ":{"ha":1029,"x_min":-12,"x_max":989,"o":"m 761 244 l 261 244 l 138 0 l -12 0 l 506 989 l 625 989 l 989 0 l 847 0 l 761 244 m 721 358 l 556 829 l 318 358 l 721 358 m 690 1278 q 640 1286 663 1278 q 576 1314 617 1294 q 530 1335 549 1328 q 493 1343 511 1343 q 448 1327 465 1343 q 428 1282 431 1311 l 357 1282 q 400 1388 360 1350 q 499 1426 440 1426 q 553 1417 528 1426 q 613 1390 579 1408 q 660 1369 643 1376 q 696 1363 678 1363 q 741 1378 724 1363 q 760 1422 758 1393 l 831 1422 q 788 1317 829 1356 q 690 1278 747 1278 m 576 1067 q 434 1104 494 1067 q 349 1217 374 1142 l 419 1246 q 487 1174 446 1196 q 582 1151 528 1151 q 750 1246 690 1151 l 818 1217 q 717 1103 781 1140 q 576 1067 654 1067 z "},"Â":{"ha":1029,"x_min":-12,"x_max":989,"o":"m 761 244 l 261 244 l 138 0 l -12 0 l 506 989 l 625 989 l 989 0 l 847 0 l 761 244 m 721 358 l 556 829 l 318 358 l 721 358 m 356 1074 l 546 1288 l 632 1288 l 789 1074 l 671 1074 l 588 1211 l 475 1074 l 356 1074 z "},"Ấ":{"ha":1029,"x_min":-12,"x_max":989,"o":"m 761 244 l 261 244 l 138 0 l -12 0 l 506 989 l 625 989 l 989 0 l 847 0 l 761 244 m 721 358 l 556 829 l 318 358 l 721 358 m 838 1417 l 981 1417 l 785 1219 l 706 1219 l 838 1417 m 544 1276 l 632 1276 l 789 1074 l 674 1074 l 586 1201 l 474 1074 l 356 1074 l 544 1276 z "},"Ậ":{"ha":1029,"x_min":-12,"x_max":989,"o":"m 761 244 l 261 244 l 138 0 l -12 0 l 506 989 l 625 989 l 989 0 l 847 0 l 761 244 m 721 358 l 556 829 l 318 358 l 721 358 m 554 -121 l 543 -262 l 394 -262 l 407 -121 l 554 -121 m 356 1074 l 546 1288 l 632 1288 l 789 1074 l 671 1074 l 588 1211 l 475 1074 l 356 1074 z "},"Ầ":{"ha":1029,"x_min":-12,"x_max":989,"o":"m 761 244 l 261 244 l 138 0 l -12 0 l 506 989 l 625 989 l 989 0 l 847 0 l 761 244 m 721 358 l 556 829 l 318 358 l 721 358 m 624 1417 l 750 1417 l 844 1219 l 765 1219 l 624 1417 m 544 1276 l 632 1276 l 789 1074 l 674 1074 l 586 1201 l 474 1074 l 356 1074 l 544 1276 z "},"Ẩ":{"ha":1029,"x_min":-12,"x_max":989,"o":"m 761 244 l 261 244 l 138 0 l -12 0 l 506 989 l 625 989 l 989 0 l 847 0 l 761 244 m 721 358 l 556 829 l 318 358 l 721 358 m 707 1244 q 726 1283 708 1269 q 774 1308 744 1297 q 788 1315 778 1310 q 803 1324 799 1319 q 808 1335 808 1329 q 763 1354 808 1354 q 668 1339 721 1354 l 653 1403 q 774 1425 708 1425 q 872 1403 836 1425 q 908 1346 908 1381 q 890 1301 908 1317 q 839 1272 872 1286 q 803 1254 815 1263 q 789 1232 790 1246 l 788 1219 l 704 1219 l 707 1244 m 544 1276 l 632 1276 l 789 1074 l 674 1074 l 586 1201 l 474 1074 l 356 1074 l 544 1276 z "},"Ẫ":{"ha":1029,"x_min":-12,"x_max":989,"o":"m 761 244 l 261 244 l 138 0 l -12 0 l 506 989 l 625 989 l 989 0 l 847 0 l 761 244 m 721 358 l 556 829 l 318 358 l 721 358 m 358 1297 q 402 1399 361 1361 q 500 1438 443 1438 q 551 1431 528 1438 q 615 1407 575 1424 q 697 1382 665 1382 q 742 1397 725 1382 q 761 1439 760 1413 l 832 1439 q 790 1337 831 1375 q 692 1299 749 1299 q 636 1307 663 1299 q 576 1331 610 1315 q 534 1348 556 1340 q 494 1356 513 1356 q 449 1340 467 1356 q 429 1297 431 1324 l 358 1297 m 544 1276 l 632 1276 l 789 1074 l 674 1074 l 586 1201 l 474 1074 l 356 1074 l 544 1276 z "},"Ȁ":{"ha":1029,"x_min":-12,"x_max":989,"o":"m 761 244 l 261 244 l 138 0 l -12 0 l 506 989 l 625 989 l 989 0 l 847 0 l 761 244 m 721 358 l 556 829 l 318 358 l 721 358 m 329 1288 l 436 1288 l 522 1074 l 449 1074 l 329 1288 m 503 1288 l 611 1288 l 696 1074 l 622 1074 l 503 1288 z "},"Ä":{"ha":1029,"x_min":-12,"x_max":989,"o":"m 761 244 l 261 244 l 138 0 l -12 0 l 506 989 l 625 989 l 989 0 l 847 0 l 761 244 m 721 358 l 556 829 l 318 358 l 721 358 m 535 1250 l 524 1113 l 379 1113 l 390 1250 l 535 1250 m 783 1250 l 772 1113 l 628 1113 l 638 1250 l 783 1250 z "},"Ạ":{"ha":1029,"x_min":-12,"x_max":989,"o":"m 761 244 l 261 244 l 138 0 l -12 0 l 506 989 l 625 989 l 989 0 l 847 0 l 761 244 m 721 358 l 556 829 l 318 358 l 721 358 m 554 -121 l 543 -262 l 394 -262 l 407 -121 l 554 -121 z "},"À":{"ha":1029,"x_min":-12,"x_max":989,"o":"m 761 244 l 261 244 l 138 0 l -12 0 l 506 989 l 625 989 l 989 0 l 847 0 l 761 244 m 721 358 l 556 829 l 318 358 l 721 358 m 354 1288 l 489 1288 l 618 1074 l 525 1074 l 354 1288 z "},"Ả":{"ha":1029,"x_min":-12,"x_max":989,"o":"m 761 244 l 261 244 l 138 0 l -12 0 l 506 989 l 625 989 l 989 0 l 847 0 l 761 244 m 721 358 l 556 829 l 318 358 l 721 358 m 614 1074 l 532 1074 l 533 1100 q 550 1137 535 1124 q 594 1165 565 1150 q 624 1182 614 1174 q 633 1200 633 1190 q 621 1216 633 1210 q 585 1222 608 1222 q 497 1206 543 1222 l 479 1271 q 599 1293 538 1293 q 699 1270 663 1293 q 735 1211 735 1247 q 716 1164 735 1181 q 664 1132 697 1147 q 627 1111 638 1119 q 615 1089 617 1103 l 614 1074 z "},"Ȃ":{"ha":1029,"x_min":-12,"x_max":989,"o":"m 761 244 l 261 244 l 138 0 l -12 0 l 506 989 l 625 989 l 989 0 l 847 0 l 761 244 m 721 358 l 556 829 l 318 358 l 721 358 m 583 1274 q 726 1235 664 1274 q 811 1124 788 1196 l 729 1090 q 667 1160 704 1139 q 579 1181 629 1181 q 490 1160 529 1181 q 418 1090 451 1139 l 342 1124 q 440 1235 376 1197 q 583 1274 503 1274 z "},"Ā":{"ha":1029,"x_min":-12,"x_max":989,"o":"m 761 244 l 261 244 l 138 0 l -12 0 l 506 989 l 625 989 l 989 0 l 847 0 l 761 244 m 721 358 l 556 829 l 318 358 l 721 358 m 372 1231 l 797 1231 l 790 1132 l 364 1132 l 372 1231 z "},"Ą":{"ha":1029,"x_min":-12,"x_max":1006,"o":"m 1006 -242 q 883 -272 949 -272 q 765 -233 810 -272 q 721 -129 721 -193 q 750 -31 721 -74 q 835 35 779 11 l 761 244 l 261 244 l 138 0 l -12 0 l 506 989 l 625 989 l 989 0 l 950 0 q 858 -32 890 0 q 825 -108 825 -64 q 847 -167 825 -146 q 906 -187 868 -187 q 989 -165 944 -187 l 1006 -242 m 721 358 l 556 829 l 318 358 l 721 358 z "},"Å":{"ha":1029,"x_min":-12,"x_max":989,"o":"m 761 244 l 261 244 l 138 0 l -12 0 l 493 967 q 444 1017 463 985 q 426 1086 426 1049 q 469 1188 426 1146 q 572 1229 511 1229 q 674 1188 632 1229 q 717 1086 717 1146 q 694 1010 717 1044 q 636 958 672 975 l 989 0 l 847 0 l 761 244 m 572 1154 q 524 1135 543 1154 q 506 1086 506 1115 q 524 1037 506 1057 q 572 1017 543 1017 q 619 1037 600 1017 q 638 1086 638 1057 q 619 1134 638 1114 q 572 1154 600 1154 m 721 358 l 556 829 l 318 358 l 721 358 z "},"Ǻ":{"ha":1029,"x_min":-12,"x_max":989,"o":"m 761 244 l 261 244 l 138 0 l -12 0 l 493 967 q 444 1017 463 985 q 426 1086 426 1049 q 469 1188 426 1146 q 572 1229 511 1229 q 651 1207 614 1229 l 765 1321 l 919 1321 l 701 1151 q 717 1086 717 1121 q 694 1010 717 1044 q 636 958 672 975 l 989 0 l 847 0 l 761 244 m 572 1154 q 524 1135 543 1154 q 506 1086 506 1115 q 524 1037 506 1057 q 572 1017 543 1017 q 619 1037 600 1017 q 638 1086 638 1057 q 619 1134 638 1114 q 572 1154 600 1154 m 721 358 l 556 829 l 318 358 l 721 358 z "},"Ã":{"ha":1029,"x_min":-12,"x_max":989,"o":"m 761 244 l 261 244 l 138 0 l -12 0 l 506 989 l 625 989 l 989 0 l 847 0 l 761 244 m 721 358 l 556 829 l 318 358 l 721 358 m 343 1097 q 388 1227 347 1185 q 489 1269 428 1269 q 540 1258 517 1269 q 600 1225 564 1247 q 623 1212 606 1222 q 654 1197 640 1201 q 679 1192 668 1192 q 727 1211 708 1192 q 747 1265 746 1231 l 819 1265 q 774 1136 814 1179 q 672 1093 733 1093 q 621 1104 644 1093 q 561 1138 597 1115 q 515 1163 531 1156 q 483 1171 500 1171 q 435 1151 454 1171 q 414 1097 417 1132 l 343 1097 z "},"Æ":{"ha":1394,"x_min":-42,"x_max":1381,"o":"m 872 872 l 874 561 l 1319 561 l 1308 444 l 875 444 l 876 117 l 1313 117 l 1303 0 l 743 0 l 743 244 l 283 244 l 119 0 l -42 0 l 643 989 l 1381 989 l 1372 872 l 872 872 m 742 872 l 704 872 l 360 358 l 743 358 l 742 872 z "},"Ǽ":{"ha":1394,"x_min":-42,"x_max":1381,"o":"m 872 872 l 874 561 l 1319 561 l 1308 444 l 875 444 l 876 117 l 1313 117 l 1303 0 l 743 0 l 743 244 l 283 244 l 119 0 l -42 0 l 643 989 l 1381 989 l 1372 872 l 872 872 m 742 872 l 704 872 l 360 358 l 743 358 l 742 872 m 767 1074 l 922 1288 l 1075 1288 l 860 1074 l 767 1074 z "},"B":{"ha":953,"x_min":90,"x_max":888,"o":"m 708 506 q 832 426 789 483 q 875 285 875 368 q 783 75 875 150 q 529 0 690 0 l 90 0 l 167 989 l 567 989 q 806 924 724 989 q 888 744 888 860 q 843 597 888 658 q 708 506 799 536 m 301 874 l 276 560 l 533 560 q 692 602 638 560 q 746 729 746 644 q 550 874 746 874 l 301 874 m 521 115 q 683 157 629 115 q 736 286 736 199 q 538 444 736 444 l 267 444 l 240 115 l 521 115 z "},"C":{"ha":950,"x_min":93,"x_max":929,"o":"m 528 -11 q 298 45 396 -11 q 147 207 200 101 q 93 456 93 313 q 153 744 93 621 q 322 933 213 867 q 581 1000 432 1000 q 776 969 688 1000 q 929 878 865 939 l 868 772 q 736 855 803 829 q 583 881 669 881 q 331 767 421 881 q 240 454 240 654 q 319 198 240 288 q 542 108 397 108 q 825 217 689 108 l 868 111 q 719 20 807 51 q 528 -11 631 -11 z "},"Ć":{"ha":950,"x_min":93,"x_max":929,"o":"m 528 -11 q 298 45 396 -11 q 147 207 200 101 q 93 456 93 313 q 153 744 93 621 q 322 933 213 867 q 581 1000 432 1000 q 776 969 688 1000 q 929 878 865 939 l 868 772 q 736 855 803 829 q 583 881 669 881 q 331 767 421 881 q 240 454 240 654 q 319 198 240 288 q 542 108 397 108 q 825 217 689 108 l 868 111 q 719 20 807 51 q 528 -11 631 -11 m 554 1074 l 710 1288 l 863 1288 l 647 1074 l 554 1074 z "},"Č":{"ha":950,"x_min":93,"x_max":929,"o":"m 528 -11 q 298 45 396 -11 q 147 207 200 101 q 93 456 93 313 q 153 744 93 621 q 322 933 213 867 q 581 1000 432 1000 q 776 969 688 1000 q 929 878 865 939 l 868 772 q 736 855 803 829 q 583 881 669 881 q 331 767 421 881 q 240 454 240 654 q 319 198 240 288 q 542 108 397 108 q 825 217 689 108 l 868 111 q 719 20 807 51 q 528 -11 631 -11 m 835 1288 l 644 1074 l 557 1074 l 401 1288 l 519 1288 l 610 1150 l 715 1288 l 835 1288 z "},"Ç":{"ha":950,"x_min":93,"x_max":929,"o":"m 583 881 q 331 767 421 881 q 240 454 240 654 q 319 198 240 288 q 542 108 397 108 q 825 217 689 108 l 868 111 q 728 23 810 54 q 549 -11 646 -8 l 539 -58 q 561 -57 546 -57 q 639 -82 610 -57 q 668 -151 668 -107 q 623 -239 668 -206 q 497 -272 578 -272 q 429 -265 465 -272 q 367 -246 393 -258 l 389 -179 q 497 -199 447 -199 q 551 -187 532 -199 q 571 -154 571 -176 q 525 -119 571 -119 q 467 -131 500 -119 l 442 -107 l 461 -7 q 192 136 290 14 q 93 456 93 258 q 153 744 93 621 q 322 933 213 867 q 581 1000 432 1000 q 776 969 688 1000 q 929 878 865 939 l 868 772 q 736 855 803 829 q 583 881 669 881 z "},"Ḉ":{"ha":950,"x_min":93,"x_max":929,"o":"m 647 1074 l 554 1074 l 710 1288 l 863 1288 l 647 1074 m 583 881 q 331 767 421 881 q 240 454 240 654 q 319 198 240 288 q 542 108 397 108 q 825 217 689 108 l 868 111 q 728 23 810 54 q 549 -11 646 -8 l 539 -58 q 561 -57 546 -57 q 639 -82 610 -57 q 668 -151 668 -107 q 623 -239 668 -206 q 497 -272 578 -272 q 429 -265 465 -272 q 367 -246 393 -258 l 389 -179 q 497 -199 447 -199 q 551 -187 532 -199 q 571 -154 571 -176 q 525 -119 571 -119 q 467 -131 500 -119 l 442 -107 l 461 -7 q 192 136 290 14 q 93 456 93 258 q 153 744 93 621 q 322 933 213 867 q 581 1000 432 1000 q 776 969 688 1000 q 929 878 865 939 l 868 772 q 736 855 803 829 q 583 881 669 881 z "},"Ĉ":{"ha":950,"x_min":93,"x_max":929,"o":"m 528 -11 q 298 45 396 -11 q 147 207 200 101 q 93 456 93 313 q 153 744 93 621 q 322 933 213 867 q 581 1000 432 1000 q 776 969 688 1000 q 929 878 865 939 l 868 772 q 736 855 803 829 q 583 881 669 881 q 331 767 421 881 q 240 454 240 654 q 319 198 240 288 q 542 108 397 108 q 825 217 689 108 l 868 111 q 719 20 807 51 q 528 -11 631 -11 m 385 1074 l 575 1288 l 661 1288 l 818 1074 l 700 1074 l 617 1211 l 504 1074 l 385 1074 z "},"Ċ":{"ha":950,"x_min":93,"x_max":929,"o":"m 528 -11 q 298 45 396 -11 q 147 207 200 101 q 93 456 93 313 q 153 744 93 621 q 322 933 213 867 q 581 1000 432 1000 q 776 969 688 1000 q 929 878 865 939 l 868 772 q 736 855 803 829 q 583 881 669 881 q 331 767 421 881 q 240 454 240 654 q 319 198 240 288 q 542 108 397 108 q 825 217 689 108 l 868 111 q 719 20 807 51 q 528 -11 631 -11 m 697 1256 l 686 1107 l 524 1107 l 535 1256 l 697 1256 z "},"D":{"ha":1047,"x_min":90,"x_max":978,"o":"m 167 989 l 508 989 q 855 869 732 989 q 978 533 978 749 q 843 140 978 281 q 463 0 708 0 l 90 0 l 167 989 m 453 119 q 737 225 642 119 q 832 535 832 331 q 747 785 832 700 q 494 869 663 869 l 303 869 l 243 119 l 453 119 z "},"Ǆ":{"ha":1861,"x_min":90,"x_max":1847,"o":"m 167 989 l 508 989 q 855 869 732 989 q 978 533 978 749 q 843 140 978 281 q 463 0 708 0 l 90 0 l 167 989 m 453 119 q 737 225 642 119 q 832 535 832 331 q 747 785 832 700 q 494 869 663 869 l 303 869 l 243 119 l 453 119 m 1839 885 l 1243 118 l 1793 118 l 1785 0 l 1064 0 l 1072 106 l 1668 871 l 1133 871 l 1143 989 l 1847 989 l 1839 885 m 1735 1288 l 1544 1074 l 1457 1074 l 1301 1288 l 1419 1288 l 1510 1150 l 1615 1288 l 1735 1288 z "},"Ð":{"ha":1071,"x_min":21,"x_max":1003,"o":"m 533 989 q 879 869 756 989 q 1003 533 1003 749 q 942 247 1003 367 q 766 63 882 126 q 488 0 650 0 l 114 0 l 149 444 l 21 444 l 31 557 l 157 557 l 190 989 l 533 989 m 478 119 q 761 225 667 119 q 856 535 856 331 q 771 785 856 700 q 519 869 686 869 l 326 869 l 301 557 l 569 557 l 560 444 l 293 444 l 267 119 l 478 119 z "},"Ď":{"ha":1047,"x_min":90,"x_max":978,"o":"m 167 989 l 508 989 q 855 869 732 989 q 978 533 978 749 q 843 140 978 281 q 463 0 708 0 l 90 0 l 167 989 m 453 119 q 737 225 642 119 q 832 535 832 331 q 747 785 832 700 q 494 869 663 869 l 303 869 l 243 119 l 453 119 m 814 1288 l 624 1074 l 536 1074 l 381 1288 l 499 1288 l 589 1150 l 694 1288 l 814 1288 z "},"Đ":{"ha":1071,"x_min":21,"x_max":1003,"o":"m 533 989 q 879 869 756 989 q 1003 533 1003 749 q 942 247 1003 367 q 766 63 882 126 q 488 0 650 0 l 114 0 l 149 444 l 21 444 l 31 557 l 157 557 l 190 989 l 533 989 m 478 119 q 761 225 667 119 q 856 535 856 331 q 771 785 856 700 q 519 869 686 869 l 326 869 l 301 557 l 569 557 l 560 444 l 293 444 l 267 119 l 478 119 z "},"Ḍ":{"ha":1047,"x_min":90,"x_max":978,"o":"m 167 989 l 508 989 q 855 869 732 989 q 978 533 978 749 q 843 140 978 281 q 463 0 708 0 l 90 0 l 167 989 m 453 119 q 737 225 642 119 q 832 535 832 331 q 747 785 832 700 q 494 869 663 869 l 303 869 l 243 119 l 453 119 m 563 -121 l 551 -262 l 403 -262 l 415 -121 l 563 -121 z "},"Ḏ":{"ha":1047,"x_min":90,"x_max":978,"o":"m 167 989 l 508 989 q 855 869 732 989 q 978 533 978 749 q 843 140 978 281 q 463 0 708 0 l 90 0 l 167 989 m 453 119 q 737 225 642 119 q 832 535 832 331 q 747 785 832 700 q 494 869 663 869 l 303 869 l 243 119 l 453 119 m 274 -144 l 699 -144 l 692 -239 l 267 -239 l 274 -144 z "},"ǅ":{"ha":1772,"x_min":90,"x_max":1728,"o":"m 167 989 l 508 989 q 855 869 732 989 q 978 533 978 749 q 843 140 978 281 q 463 0 708 0 l 90 0 l 167 989 m 453 119 q 737 225 642 119 q 832 535 832 331 q 747 785 832 700 q 494 869 663 869 l 303 869 l 243 119 l 453 119 m 1719 603 l 1269 107 l 1696 107 l 1688 0 l 1089 0 l 1096 97 l 1546 592 l 1147 592 l 1156 700 l 1728 700 l 1719 603 m 1690 1075 l 1497 790 l 1406 790 l 1258 1075 l 1376 1075 l 1458 883 l 1567 1075 l 1690 1075 z "},"E":{"ha":822,"x_min":90,"x_max":810,"o":"m 300 872 l 275 561 l 747 561 l 738 444 l 267 444 l 240 117 l 740 117 l 731 0 l 90 0 l 167 989 l 810 989 l 800 872 l 300 872 z "},"É":{"ha":822,"x_min":90,"x_max":810,"o":"m 300 872 l 275 561 l 747 561 l 738 444 l 267 444 l 240 117 l 740 117 l 731 0 l 90 0 l 167 989 l 810 989 l 800 872 l 300 872 m 468 1074 l 624 1288 l 776 1288 l 561 1074 l 468 1074 z "},"Ĕ":{"ha":822,"x_min":90,"x_max":810,"o":"m 300 872 l 275 561 l 747 561 l 738 444 l 267 444 l 240 117 l 740 117 l 731 0 l 90 0 l 167 989 l 810 989 l 800 872 l 300 872 m 521 1089 q 378 1128 440 1089 q 293 1239 317 1167 l 375 1272 q 437 1203 400 1224 q 525 1182 474 1182 q 614 1202 575 1182 q 686 1272 653 1222 l 763 1239 q 665 1126 728 1164 q 521 1089 601 1089 z "},"Ě":{"ha":822,"x_min":90,"x_max":810,"o":"m 300 872 l 275 561 l 747 561 l 738 444 l 267 444 l 240 117 l 740 117 l 731 0 l 90 0 l 167 989 l 810 989 l 800 872 l 300 872 m 749 1288 l 558 1074 l 471 1074 l 315 1288 l 433 1288 l 524 1150 l 629 1288 l 749 1288 z "},"Ȩ":{"ha":822,"x_min":90,"x_max":810,"o":"m 300 872 l 275 561 l 747 561 l 738 444 l 267 444 l 240 117 l 740 117 l 731 0 l 464 0 l 451 -58 q 474 -57 458 -57 q 551 -82 522 -57 q 581 -151 581 -107 q 535 -239 581 -206 q 410 -272 490 -272 q 342 -265 378 -272 q 279 -246 306 -258 l 301 -179 q 410 -199 360 -199 q 464 -187 444 -199 q 483 -154 483 -176 q 438 -119 483 -119 q 379 -131 413 -119 l 354 -107 l 375 0 l 90 0 l 167 989 l 810 989 l 800 872 l 300 872 z "},"Ḝ":{"ha":822,"x_min":90,"x_max":810,"o":"m 521 1089 q 378 1128 440 1089 q 293 1239 317 1167 l 375 1272 q 437 1203 400 1224 q 525 1182 474 1182 q 614 1202 575 1182 q 686 1272 653 1222 l 763 1239 q 665 1126 728 1164 q 521 1089 601 1089 m 300 872 l 275 561 l 747 561 l 738 444 l 267 444 l 240 117 l 740 117 l 731 0 l 464 0 l 451 -58 q 474 -57 458 -57 q 551 -82 522 -57 q 581 -151 581 -107 q 535 -239 581 -206 q 410 -272 490 -272 q 342 -265 378 -272 q 279 -246 306 -258 l 301 -179 q 410 -199 360 -199 q 464 -187 444 -199 q 483 -154 483 -176 q 438 -119 483 -119 q 379 -131 413 -119 l 354 -107 l 375 0 l 90 0 l 167 989 l 810 989 l 800 872 l 300 872 z "},"Ê":{"ha":822,"x_min":90,"x_max":810,"o":"m 300 872 l 275 561 l 747 561 l 738 444 l 267 444 l 240 117 l 740 117 l 731 0 l 90 0 l 167 989 l 810 989 l 800 872 l 300 872 m 299 1074 l 489 1288 l 575 1288 l 732 1074 l 614 1074 l 531 1211 l 418 1074 l 299 1074 z "},"Ế":{"ha":822,"x_min":90,"x_max":924,"o":"m 300 872 l 275 561 l 747 561 l 738 444 l 267 444 l 240 117 l 740 117 l 731 0 l 90 0 l 167 989 l 810 989 l 800 872 l 300 872 m 781 1417 l 924 1417 l 728 1219 l 649 1219 l 781 1417 m 488 1276 l 575 1276 l 732 1074 l 617 1074 l 529 1201 l 417 1074 l 299 1074 l 488 1276 z "},"Ệ":{"ha":822,"x_min":90,"x_max":810,"o":"m 300 872 l 275 561 l 747 561 l 738 444 l 267 444 l 240 117 l 740 117 l 731 0 l 90 0 l 167 989 l 810 989 l 800 872 l 300 872 m 496 -121 l 485 -262 l 336 -262 l 349 -121 l 496 -121 m 299 1074 l 489 1288 l 575 1288 l 732 1074 l 614 1074 l 531 1211 l 418 1074 l 299 1074 z "},"Ề":{"ha":822,"x_min":90,"x_max":810,"o":"m 300 872 l 275 561 l 747 561 l 738 444 l 267 444 l 240 117 l 740 117 l 731 0 l 90 0 l 167 989 l 810 989 l 800 872 l 300 872 m 567 1417 l 693 1417 l 788 1219 l 708 1219 l 567 1417 m 488 1276 l 575 1276 l 732 1074 l 617 1074 l 529 1201 l 417 1074 l 299 1074 l 488 1276 z "},"Ể":{"ha":822,"x_min":90,"x_max":851,"o":"m 300 872 l 275 561 l 747 561 l 738 444 l 267 444 l 240 117 l 740 117 l 731 0 l 90 0 l 167 989 l 810 989 l 800 872 l 300 872 m 650 1244 q 669 1283 651 1269 q 717 1308 688 1297 q 731 1315 721 1310 q 747 1324 742 1319 q 751 1335 751 1329 q 706 1354 751 1354 q 611 1339 664 1354 l 596 1403 q 717 1425 651 1425 q 815 1403 779 1425 q 851 1346 851 1381 q 833 1301 851 1317 q 782 1272 815 1286 q 746 1254 758 1263 q 732 1232 733 1246 l 731 1219 l 647 1219 l 650 1244 m 488 1276 l 575 1276 l 732 1074 l 617 1074 l 529 1201 l 417 1074 l 299 1074 l 488 1276 z "},"Ễ":{"ha":822,"x_min":90,"x_max":810,"o":"m 300 872 l 275 561 l 747 561 l 738 444 l 267 444 l 240 117 l 740 117 l 731 0 l 90 0 l 167 989 l 810 989 l 800 872 l 300 872 m 301 1297 q 345 1399 304 1361 q 443 1438 386 1438 q 494 1431 471 1438 q 558 1407 518 1424 q 640 1382 608 1382 q 685 1397 668 1382 q 704 1439 703 1413 l 775 1439 q 733 1337 774 1375 q 635 1299 692 1299 q 579 1307 606 1299 q 519 1331 553 1315 q 477 1348 499 1340 q 438 1356 456 1356 q 392 1340 410 1356 q 372 1297 374 1324 l 301 1297 m 488 1276 l 575 1276 l 732 1074 l 617 1074 l 529 1201 l 417 1074 l 299 1074 l 488 1276 z "},"Ȅ":{"ha":822,"x_min":90,"x_max":810,"o":"m 300 872 l 275 561 l 747 561 l 738 444 l 267 444 l 240 117 l 740 117 l 731 0 l 90 0 l 167 989 l 810 989 l 800 872 l 300 872 m 272 1288 l 379 1288 l 465 1074 l 392 1074 l 272 1288 m 446 1288 l 554 1288 l 639 1074 l 565 1074 l 446 1288 z "},"Ë":{"ha":822,"x_min":90,"x_max":810,"o":"m 300 872 l 275 561 l 747 561 l 738 444 l 267 444 l 240 117 l 740 117 l 731 0 l 90 0 l 167 989 l 810 989 l 800 872 l 300 872 m 478 1250 l 467 1113 l 322 1113 l 333 1250 l 478 1250 m 726 1250 l 715 1113 l 571 1113 l 581 1250 l 726 1250 z "},"Ė":{"ha":822,"x_min":90,"x_max":810,"o":"m 300 872 l 275 561 l 747 561 l 738 444 l 267 444 l 240 117 l 740 117 l 731 0 l 90 0 l 167 989 l 810 989 l 800 872 l 300 872 m 611 1256 l 600 1107 l 438 1107 l 449 1256 l 611 1256 z "},"Ẹ":{"ha":822,"x_min":90,"x_max":810,"o":"m 300 872 l 275 561 l 747 561 l 738 444 l 267 444 l 240 117 l 740 117 l 731 0 l 90 0 l 167 989 l 810 989 l 800 872 l 300 872 m 496 -121 l 485 -262 l 336 -262 l 349 -121 l 496 -121 z "},"È":{"ha":822,"x_min":90,"x_max":810,"o":"m 300 872 l 275 561 l 747 561 l 738 444 l 267 444 l 240 117 l 740 117 l 731 0 l 90 0 l 167 989 l 810 989 l 800 872 l 300 872 m 297 1288 l 432 1288 l 561 1074 l 468 1074 l 297 1288 z "},"Ẻ":{"ha":822,"x_min":90,"x_max":810,"o":"m 300 872 l 275 561 l 747 561 l 738 444 l 267 444 l 240 117 l 740 117 l 731 0 l 90 0 l 167 989 l 810 989 l 800 872 l 300 872 m 557 1074 l 475 1074 l 476 1100 q 493 1137 478 1124 q 538 1165 508 1150 q 567 1182 557 1174 q 576 1200 576 1190 q 564 1216 576 1210 q 528 1222 551 1222 q 440 1206 486 1222 l 422 1271 q 542 1293 481 1293 q 642 1270 606 1293 q 678 1211 678 1247 q 659 1164 678 1181 q 607 1132 640 1147 q 570 1111 581 1119 q 558 1089 560 1103 l 557 1074 z "},"Ȇ":{"ha":822,"x_min":90,"x_max":810,"o":"m 300 872 l 275 561 l 747 561 l 738 444 l 267 444 l 240 117 l 740 117 l 731 0 l 90 0 l 167 989 l 810 989 l 800 872 l 300 872 m 526 1274 q 669 1235 607 1274 q 754 1124 731 1196 l 672 1090 q 610 1160 647 1139 q 522 1181 572 1181 q 433 1160 472 1181 q 361 1090 394 1139 l 285 1124 q 383 1235 319 1197 q 526 1274 446 1274 z "},"Ē":{"ha":822,"x_min":90,"x_max":810,"o":"m 300 872 l 275 561 l 747 561 l 738 444 l 267 444 l 240 117 l 740 117 l 731 0 l 90 0 l 167 989 l 810 989 l 800 872 l 300 872 m 315 1231 l 740 1231 l 733 1132 l 307 1132 l 315 1231 z "},"Ḗ":{"ha":822,"x_min":90,"x_max":810,"o":"m 300 872 l 275 561 l 747 561 l 738 444 l 267 444 l 240 117 l 740 117 l 731 0 l 90 0 l 167 989 l 810 989 l 800 872 l 300 872 m 315 1231 l 740 1231 l 733 1132 l 307 1132 l 315 1231 m 486 1299 l 642 1513 l 794 1513 l 579 1299 l 486 1299 z "},"Ḕ":{"ha":822,"x_min":90,"x_max":810,"o":"m 300 872 l 275 561 l 747 561 l 738 444 l 267 444 l 240 117 l 740 117 l 731 0 l 90 0 l 167 989 l 810 989 l 800 872 l 300 872 m 315 1231 l 740 1231 l 733 1132 l 307 1132 l 315 1231 m 315 1513 l 450 1513 l 579 1299 l 486 1299 l 315 1513 z "},"Ę":{"ha":822,"x_min":90,"x_max":808,"o":"m 300 872 l 275 561 l 747 561 l 738 444 l 267 444 l 240 117 l 740 117 l 731 0 l 707 0 q 613 -31 646 0 q 581 -108 581 -61 q 602 -167 581 -147 q 663 -187 624 -187 q 744 -165 700 -187 l 761 -242 q 639 -272 704 -272 q 521 -233 565 -272 q 476 -131 476 -194 q 539 0 476 -50 l 90 0 l 167 989 l 808 989 l 800 872 l 300 872 z "},"Ẽ":{"ha":822,"x_min":90,"x_max":810,"o":"m 300 872 l 275 561 l 747 561 l 738 444 l 267 444 l 240 117 l 740 117 l 731 0 l 90 0 l 167 989 l 810 989 l 800 872 l 300 872 m 286 1097 q 331 1227 290 1185 q 432 1269 371 1269 q 483 1258 460 1269 q 543 1225 507 1247 q 566 1212 549 1222 q 597 1197 583 1201 q 622 1192 611 1192 q 670 1211 651 1192 q 690 1265 689 1231 l 763 1265 q 717 1136 757 1179 q 615 1093 676 1093 q 564 1104 588 1093 q 504 1138 540 1115 q 458 1163 474 1156 q 426 1171 443 1171 q 378 1151 397 1171 q 357 1097 360 1132 l 286 1097 z "},"F":{"ha":789,"x_min":90,"x_max":794,"o":"m 301 871 l 276 561 l 732 561 l 724 443 l 267 443 l 232 0 l 90 0 l 167 989 l 794 989 l 785 871 l 301 871 z "},"G":{"ha":1021,"x_min":93,"x_max":943,"o":"m 571 525 l 932 525 l 896 60 q 738 8 831 28 q 551 -11 644 -11 q 213 110 332 -11 q 93 447 93 232 q 154 740 93 615 q 328 933 215 865 q 594 1000 442 1000 q 943 878 811 1000 l 883 772 q 750 855 815 829 q 603 881 685 881 q 335 767 431 881 q 240 450 240 653 q 322 194 240 283 q 564 104 403 104 q 772 139 668 104 l 793 415 l 561 415 l 571 525 z "},"Ğ":{"ha":1021,"x_min":93,"x_max":943,"o":"m 571 525 l 932 525 l 896 60 q 738 8 831 28 q 551 -11 644 -11 q 213 110 332 -11 q 93 447 93 232 q 154 740 93 615 q 328 933 215 865 q 594 1000 442 1000 q 943 878 811 1000 l 883 772 q 750 855 815 829 q 603 881 685 881 q 335 767 431 881 q 240 450 240 653 q 322 194 240 283 q 564 104 403 104 q 772 139 668 104 l 793 415 l 561 415 l 571 525 m 619 1089 q 477 1128 539 1089 q 392 1239 415 1167 l 474 1272 q 535 1203 499 1224 q 624 1182 572 1182 q 713 1202 674 1182 q 785 1272 751 1222 l 861 1239 q 763 1126 826 1164 q 619 1089 700 1089 z "},"Ǧ":{"ha":1021,"x_min":93,"x_max":943,"o":"m 571 525 l 932 525 l 896 60 q 738 8 831 28 q 551 -11 644 -11 q 213 110 332 -11 q 93 447 93 232 q 154 740 93 615 q 328 933 215 865 q 594 1000 442 1000 q 943 878 811 1000 l 883 772 q 750 855 815 829 q 603 881 685 881 q 335 767 431 881 q 240 450 240 653 q 322 194 240 283 q 564 104 403 104 q 772 139 668 104 l 793 415 l 561 415 l 571 525 m 847 1288 l 657 1074 l 569 1074 l 414 1288 l 532 1288 l 622 1150 l 728 1288 l 847 1288 z "},"Ĝ":{"ha":1021,"x_min":93,"x_max":943,"o":"m 571 525 l 932 525 l 896 60 q 738 8 831 28 q 551 -11 644 -11 q 213 110 332 -11 q 93 447 93 232 q 154 740 93 615 q 328 933 215 865 q 594 1000 442 1000 q 943 878 811 1000 l 883 772 q 750 855 815 829 q 603 881 685 881 q 335 767 431 881 q 240 450 240 653 q 322 194 240 283 q 564 104 403 104 q 772 139 668 104 l 793 415 l 561 415 l 571 525 m 397 1074 l 588 1288 l 674 1288 l 831 1074 l 713 1074 l 629 1211 l 517 1074 l 397 1074 z "},"Ģ":{"ha":1021,"x_min":93,"x_max":943,"o":"m 571 525 l 932 525 l 896 60 q 738 8 831 28 q 551 -11 644 -11 q 213 110 332 -11 q 93 447 93 232 q 154 740 93 615 q 328 933 215 865 q 594 1000 442 1000 q 943 878 811 1000 l 883 772 q 750 855 815 829 q 603 881 685 881 q 335 767 431 881 q 240 450 240 653 q 322 194 240 283 q 564 104 403 104 q 772 139 668 104 l 793 415 l 561 415 l 571 525 m 611 -99 l 606 -182 q 580 -286 600 -242 q 515 -369 560 -331 l 461 -328 q 501 -278 488 -301 q 518 -226 514 -254 l 444 -226 l 454 -99 l 611 -99 z "},"Ġ":{"ha":1021,"x_min":93,"x_max":943,"o":"m 571 525 l 932 525 l 896 60 q 738 8 831 28 q 551 -11 644 -11 q 213 110 332 -11 q 93 447 93 232 q 154 740 93 615 q 328 933 215 865 q 594 1000 442 1000 q 943 878 811 1000 l 883 772 q 750 855 815 829 q 603 881 685 881 q 335 767 431 881 q 240 450 240 653 q 322 194 240 283 q 564 104 403 104 q 772 139 668 104 l 793 415 l 561 415 l 571 525 m 710 1256 l 699 1107 l 536 1107 l 547 1256 l 710 1256 z "},"Ḡ":{"ha":1021,"x_min":93,"x_max":943,"o":"m 571 525 l 932 525 l 896 60 q 738 8 831 28 q 551 -11 644 -11 q 213 110 332 -11 q 93 447 93 232 q 154 740 93 615 q 328 933 215 865 q 594 1000 442 1000 q 943 878 811 1000 l 883 772 q 750 855 815 829 q 603 881 685 881 q 335 767 431 881 q 240 450 240 653 q 322 194 240 283 q 564 104 403 104 q 772 139 668 104 l 793 415 l 561 415 l 571 525 m 414 1231 l 839 1231 l 832 1132 l 406 1132 l 414 1231 z "},"H":{"ha":1069,"x_min":90,"x_max":1004,"o":"m 1004 989 l 926 0 l 785 0 l 819 443 l 267 443 l 232 0 l 90 0 l 167 989 l 310 989 l 276 561 l 829 561 l 863 989 l 1004 989 z "},"Ħ":{"ha":1119,"x_min":43,"x_max":1144,"o":"m 1136 725 l 1021 725 l 963 0 l 821 0 l 856 443 l 303 443 l 268 0 l 126 0 l 183 725 l 43 725 l 51 836 l 192 836 l 204 989 l 346 989 l 333 836 l 886 836 l 899 989 l 1042 989 l 1029 836 l 1144 836 l 1136 725 m 878 725 l 325 725 l 313 561 l 865 561 l 878 725 z "},"Ḫ":{"ha":1069,"x_min":90,"x_max":1004,"o":"m 1004 989 l 926 0 l 785 0 l 819 443 l 267 443 l 232 0 l 90 0 l 167 989 l 310 989 l 276 561 l 829 561 l 863 989 l 1004 989 m 490 -301 q 348 -256 410 -301 q 261 -118 286 -210 l 343 -85 q 497 -206 390 -206 q 588 -178 547 -206 q 663 -85 629 -150 l 740 -118 q 640 -256 707 -211 q 490 -301 572 -301 z "},"Ĥ":{"ha":1069,"x_min":90,"x_max":1004,"o":"m 1004 989 l 926 0 l 785 0 l 819 443 l 267 443 l 232 0 l 90 0 l 167 989 l 310 989 l 276 561 l 829 561 l 863 989 l 1004 989 m 375 1074 l 565 1288 l 651 1288 l 808 1074 l 690 1074 l 607 1211 l 494 1074 l 375 1074 z "},"Ḥ":{"ha":1069,"x_min":90,"x_max":1004,"o":"m 1004 989 l 926 0 l 785 0 l 819 443 l 267 443 l 232 0 l 90 0 l 167 989 l 310 989 l 276 561 l 829 561 l 863 989 l 1004 989 m 575 -121 l 564 -262 l 415 -262 l 428 -121 l 575 -121 z "},"I":{"ha":374,"x_min":90,"x_max":311,"o":"m 167 989 l 311 989 l 233 0 l 90 0 l 167 989 z "},"Í":{"ha":374,"x_min":90,"x_max":507,"o":"m 167 989 l 311 989 l 233 0 l 90 0 l 167 989 m 199 1074 l 354 1288 l 507 1288 l 292 1074 l 199 1074 z "},"Ĭ":{"ha":374,"x_min":24,"x_max":493,"o":"m 167 989 l 311 989 l 233 0 l 90 0 l 167 989 m 251 1089 q 109 1128 171 1089 q 24 1239 47 1167 l 106 1272 q 167 1203 131 1224 q 256 1182 204 1182 q 344 1202 306 1182 q 417 1272 383 1222 l 493 1239 q 395 1126 458 1164 q 251 1089 332 1089 z "},"Î":{"ha":374,"x_min":29,"x_max":463,"o":"m 167 989 l 311 989 l 233 0 l 90 0 l 167 989 m 29 1074 l 219 1288 l 306 1288 l 463 1074 l 344 1074 l 261 1211 l 149 1074 l 29 1074 z "},"Ȉ":{"ha":374,"x_min":3,"x_max":369,"o":"m 167 989 l 311 989 l 233 0 l 90 0 l 167 989 m 3 1288 l 110 1288 l 196 1074 l 122 1074 l 3 1288 m 176 1288 l 285 1288 l 369 1074 l 296 1074 l 176 1288 z "},"Ï":{"ha":374,"x_min":53,"x_max":457,"o":"m 167 989 l 311 989 l 233 0 l 90 0 l 167 989 m 208 1250 l 197 1113 l 53 1113 l 64 1250 l 208 1250 m 457 1250 l 446 1113 l 301 1113 l 311 1250 l 457 1250 z "},"Ḯ":{"ha":374,"x_min":53,"x_max":525,"o":"m 167 989 l 311 989 l 233 0 l 90 0 l 167 989 m 208 1250 l 197 1113 l 53 1113 l 64 1250 l 208 1250 m 457 1250 l 446 1113 l 301 1113 l 311 1250 l 457 1250 m 217 1299 l 372 1513 l 525 1513 l 310 1299 l 217 1299 z "},"İ":{"ha":374,"x_min":90,"x_max":342,"o":"m 167 989 l 311 989 l 233 0 l 90 0 l 167 989 m 342 1256 l 331 1107 l 168 1107 l 179 1256 l 342 1256 z "},"Ị":{"ha":374,"x_min":67,"x_max":311,"o":"m 167 989 l 311 989 l 233 0 l 90 0 l 167 989 m 226 -121 l 215 -262 l 67 -262 l 79 -121 l 226 -121 z "},"Ì":{"ha":374,"x_min":28,"x_max":311,"o":"m 167 989 l 311 989 l 233 0 l 90 0 l 167 989 m 28 1288 l 163 1288 l 292 1074 l 199 1074 l 28 1288 z "},"Ỉ":{"ha":374,"x_min":90,"x_max":408,"o":"m 167 989 l 311 989 l 233 0 l 90 0 l 167 989 m 288 1074 l 206 1074 l 207 1100 q 224 1137 208 1124 q 268 1165 239 1150 q 297 1182 288 1174 q 307 1200 307 1190 q 294 1216 307 1210 q 258 1222 282 1222 q 171 1206 217 1222 l 153 1271 q 272 1293 211 1293 q 372 1270 336 1293 q 408 1211 408 1247 q 390 1164 408 1181 q 338 1132 371 1147 q 301 1111 311 1119 q 289 1089 290 1103 l 288 1074 z "},"Ȋ":{"ha":374,"x_min":15,"x_max":485,"o":"m 167 989 l 311 989 l 233 0 l 90 0 l 167 989 m 257 1274 q 399 1235 338 1274 q 485 1124 461 1196 l 403 1090 q 340 1160 378 1139 q 253 1181 303 1181 q 164 1160 203 1181 q 92 1090 125 1139 l 15 1124 q 113 1235 50 1197 q 257 1274 176 1274 z "},"Ī":{"ha":374,"x_min":38,"x_max":471,"o":"m 167 989 l 311 989 l 233 0 l 90 0 l 167 989 m 46 1231 l 471 1231 l 464 1132 l 38 1132 l 46 1231 z "},"Į":{"ha":374,"x_min":-14,"x_max":310,"o":"m 171 -187 q 253 -165 208 -187 l 271 -242 q 149 -272 213 -272 q 30 -233 74 -272 q -14 -128 -14 -193 q 13 -33 -14 -74 q 92 32 40 8 l 165 989 l 310 989 l 232 0 l 219 0 q 122 -31 154 0 q 89 -107 89 -61 q 110 -167 89 -146 q 171 -187 132 -187 z "},"Ĩ":{"ha":374,"x_min":17,"x_max":493,"o":"m 167 989 l 311 989 l 233 0 l 90 0 l 167 989 m 17 1097 q 61 1227 21 1185 q 163 1269 101 1269 q 214 1258 190 1269 q 274 1225 238 1247 q 297 1212 279 1222 q 328 1197 314 1201 q 353 1192 342 1192 q 401 1211 382 1192 q 421 1265 419 1231 l 493 1265 q 447 1136 488 1179 q 346 1093 407 1093 q 294 1104 318 1093 q 235 1138 271 1115 q 189 1163 204 1156 q 157 1171 174 1171 q 109 1151 128 1171 q 88 1097 90 1132 l 17 1097 z "},"J":{"ha":478,"x_min":-51,"x_max":413,"o":"m -43 -126 q 51 -136 7 -136 q 152 -99 119 -136 q 192 28 185 -62 l 268 989 l 413 989 l 336 26 q 261 -190 325 -121 q 69 -258 197 -258 q -51 -247 8 -258 l -43 -126 z "},"Ĵ":{"ha":478,"x_min":-51,"x_max":563,"o":"m -43 -126 q 51 -136 7 -136 q 152 -99 119 -136 q 192 28 185 -62 l 268 989 l 413 989 l 336 26 q 261 -190 325 -121 q 69 -258 197 -258 q -51 -247 8 -258 l -43 -126 m 129 1074 l 319 1288 l 406 1288 l 563 1074 l 444 1074 l 361 1211 l 249 1074 l 129 1074 z "},"K":{"ha":900,"x_min":90,"x_max":953,"o":"m 417 507 l 901 0 l 728 0 l 269 468 l 233 0 l 90 0 l 167 989 l 311 989 l 276 542 l 769 989 l 953 989 l 417 507 z "},"Ķ":{"ha":900,"x_min":90,"x_max":953,"o":"m 417 507 l 901 0 l 728 0 l 269 468 l 233 0 l 90 0 l 167 989 l 311 989 l 276 542 l 769 989 l 953 989 l 417 507 m 499 -99 l 493 -182 q 467 -286 488 -242 q 403 -369 447 -331 l 349 -328 q 388 -278 375 -301 q 406 -226 401 -254 l 332 -226 l 342 -99 l 499 -99 z "},"L":{"ha":767,"x_min":90,"x_max":724,"o":"m 167 989 l 311 989 l 243 119 l 724 119 l 714 0 l 90 0 l 167 989 z "},"Ǉ":{"ha":1149,"x_min":90,"x_max":1085,"o":"m 167 989 l 311 989 l 243 119 l 682 119 l 672 0 l 90 0 l 167 989 m 629 -126 q 722 -136 679 -136 q 824 -99 790 -136 q 864 28 857 -61 l 939 989 l 1085 989 l 1008 26 q 932 -190 996 -121 q 740 -258 868 -258 q 619 -247 679 -258 l 629 -126 z "},"Ĺ":{"ha":767,"x_min":90,"x_max":724,"o":"m 167 989 l 311 989 l 243 119 l 724 119 l 714 0 l 90 0 l 167 989 m 199 1074 l 354 1288 l 507 1288 l 292 1074 l 199 1074 z "},"Ľ":{"ha":767,"x_min":90,"x_max":724,"o":"m 167 989 l 311 989 l 243 119 l 724 119 l 714 0 l 90 0 l 167 989 m 410 721 l 429 989 l 538 989 l 481 721 l 410 721 z "},"Ļ":{"ha":767,"x_min":90,"x_max":724,"o":"m 167 989 l 311 989 l 243 119 l 724 119 l 714 0 l 90 0 l 167 989 m 479 -99 l 474 -182 q 448 -286 468 -242 q 383 -369 428 -331 l 329 -328 q 369 -278 356 -301 q 386 -226 382 -254 l 313 -226 l 322 -99 l 479 -99 z "},"Ŀ":{"ha":767,"x_min":90,"x_max":724,"o":"m 167 989 l 311 989 l 243 119 l 724 119 l 714 0 l 90 0 l 167 989 m 608 571 l 596 419 l 431 419 l 442 571 l 608 571 z "},"Ḷ":{"ha":767,"x_min":90,"x_max":724,"o":"m 167 989 l 311 989 l 243 119 l 724 119 l 714 0 l 90 0 l 167 989 m 474 -121 l 463 -262 l 314 -262 l 326 -121 l 474 -121 z "},"ǈ":{"ha":1111,"x_min":90,"x_max":1071,"o":"m 167 989 l 311 989 l 243 119 l 724 119 l 714 0 l 90 0 l 167 989 m 644 -179 q 711 -189 683 -189 q 836 -57 825 -189 l 897 700 l 1038 700 l 975 -68 q 903 -246 965 -185 q 735 -307 840 -307 q 636 -293 679 -307 l 644 -179 m 1071 1006 l 1060 858 l 896 858 l 907 1006 l 1071 1006 z "},"Ḻ":{"ha":767,"x_min":90,"x_max":724,"o":"m 167 989 l 311 989 l 243 119 l 724 119 l 714 0 l 90 0 l 167 989 m 185 -144 l 610 -144 l 603 -239 l 178 -239 l 185 -144 z "},"Ł":{"ha":792,"x_min":11,"x_max":747,"o":"m 747 119 l 739 0 l 114 0 l 144 394 l 11 321 l 21 450 l 154 524 l 190 989 l 336 989 l 306 607 l 579 757 l 569 628 l 296 476 l 267 119 l 747 119 z "},"M":{"ha":1179,"x_min":92,"x_max":1114,"o":"m 1114 989 l 1036 0 l 907 0 l 960 675 l 614 0 l 515 0 l 274 676 l 221 0 l 92 0 l 168 989 l 285 989 l 578 169 l 997 989 l 1114 989 z "},"Ṃ":{"ha":1179,"x_min":92,"x_max":1114,"o":"m 1114 989 l 1036 0 l 907 0 l 960 675 l 614 0 l 515 0 l 274 676 l 221 0 l 92 0 l 168 989 l 285 989 l 578 169 l 997 989 l 1114 989 m 629 -121 l 618 -262 l 469 -262 l 482 -121 l 629 -121 z "},"N":{"ha":1042,"x_min":90,"x_max":978,"o":"m 978 989 l 900 0 l 790 0 l 283 746 l 224 0 l 90 0 l 167 989 l 276 989 l 783 244 l 842 989 l 978 989 z "},"Ǌ":{"ha":1519,"x_min":90,"x_max":1454,"o":"m 978 989 l 900 0 l 790 0 l 283 746 l 224 0 l 90 0 l 167 989 l 276 989 l 783 244 l 842 989 l 978 989 m 999 -126 q 1093 -136 1049 -136 q 1194 -99 1161 -136 q 1233 28 1226 -62 l 1310 989 l 1454 989 l 1378 26 q 1303 -190 1367 -121 q 1111 -258 1239 -258 q 990 -247 1050 -258 l 999 -126 z "},"Ń":{"ha":1042,"x_min":90,"x_max":978,"o":"m 978 989 l 900 0 l 790 0 l 283 746 l 224 0 l 90 0 l 167 989 l 276 989 l 783 244 l 842 989 l 978 989 m 532 1074 l 688 1288 l 840 1288 l 625 1074 l 532 1074 z "},"Ň":{"ha":1042,"x_min":90,"x_max":978,"o":"m 978 989 l 900 0 l 790 0 l 283 746 l 224 0 l 90 0 l 167 989 l 276 989 l 783 244 l 842 989 l 978 989 m 813 1288 l 622 1074 l 535 1074 l 379 1288 l 497 1288 l 588 1150 l 693 1288 l 813 1288 z "},"Ņ":{"ha":1042,"x_min":90,"x_max":978,"o":"m 978 989 l 900 0 l 790 0 l 283 746 l 224 0 l 90 0 l 167 989 l 276 989 l 783 244 l 842 989 l 978 989 m 567 -99 l 561 -182 q 535 -286 556 -242 q 471 -369 515 -331 l 417 -328 q 456 -278 443 -301 q 474 -226 469 -254 l 400 -226 l 410 -99 l 567 -99 z "},"Ṅ":{"ha":1042,"x_min":90,"x_max":978,"o":"m 978 989 l 900 0 l 790 0 l 283 746 l 224 0 l 90 0 l 167 989 l 276 989 l 783 244 l 842 989 l 978 989 m 675 1256 l 664 1107 l 501 1107 l 513 1256 l 675 1256 z "},"Ṇ":{"ha":1042,"x_min":90,"x_max":978,"o":"m 978 989 l 900 0 l 790 0 l 283 746 l 224 0 l 90 0 l 167 989 l 276 989 l 783 244 l 842 989 l 978 989 m 561 -121 l 550 -262 l 401 -262 l 414 -121 l 561 -121 z "},"Ŋ":{"ha":1042,"x_min":90,"x_max":978,"o":"m 978 989 l 900 18 q 821 -178 890 -110 q 614 -256 751 -247 l 519 -262 l 514 -149 l 603 -143 q 717 -99 676 -137 q 764 8 758 -61 l 767 35 l 283 746 l 224 0 l 90 0 l 167 989 l 276 989 l 783 244 l 842 989 l 978 989 z "},"ǋ":{"ha":1386,"x_min":90,"x_max":1346,"o":"m 978 989 l 900 0 l 790 0 l 283 746 l 224 0 l 90 0 l 167 989 l 276 989 l 783 244 l 842 989 l 978 989 m 919 -179 q 986 -189 958 -189 q 1111 -57 1100 -189 l 1172 700 l 1313 700 l 1250 -68 q 1178 -246 1240 -185 q 1010 -307 1115 -307 q 911 -293 954 -307 l 919 -179 m 1346 1006 l 1335 858 l 1171 858 l 1182 1006 l 1346 1006 z "},"Ṉ":{"ha":1042,"x_min":90,"x_max":978,"o":"m 978 989 l 900 0 l 790 0 l 283 746 l 224 0 l 90 0 l 167 989 l 276 989 l 783 244 l 842 989 l 978 989 m 272 -144 l 697 -144 l 690 -239 l 265 -239 l 272 -144 z "},"Ñ":{"ha":1042,"x_min":90,"x_max":978,"o":"m 978 989 l 900 0 l 790 0 l 283 746 l 224 0 l 90 0 l 167 989 l 276 989 l 783 244 l 842 989 l 978 989 m 350 1097 q 394 1227 354 1185 q 496 1269 435 1269 q 547 1258 524 1269 q 607 1225 571 1247 q 630 1212 613 1222 q 661 1197 647 1201 q 686 1192 675 1192 q 734 1211 715 1192 q 754 1265 753 1231 l 826 1265 q 781 1136 821 1179 q 679 1093 740 1093 q 628 1104 651 1093 q 568 1138 604 1115 q 522 1163 538 1156 q 490 1171 507 1171 q 442 1151 461 1171 q 421 1097 424 1132 l 350 1097 z "},"O":{"ha":1082,"x_min":93,"x_max":1013,"o":"m 543 -12 q 303 44 404 -12 q 147 206 201 100 q 93 456 93 311 q 151 743 93 619 q 315 934 208 867 q 561 1001 421 1001 q 801 945 700 1001 q 958 783 903 889 q 1013 533 1013 678 q 955 246 1013 369 q 791 55 897 122 q 543 -12 685 -12 m 543 107 q 715 158 642 107 q 826 306 788 210 q 865 533 865 401 q 787 792 865 701 q 563 882 708 882 q 325 768 411 882 q 239 454 239 654 q 317 197 239 286 q 543 107 396 107 z "},"Ó":{"ha":1082,"x_min":93,"x_max":1013,"o":"m 543 -12 q 303 44 404 -12 q 147 206 201 100 q 93 456 93 311 q 151 743 93 619 q 315 934 208 867 q 561 1001 421 1001 q 801 945 700 1001 q 958 783 903 889 q 1013 533 1013 678 q 955 246 1013 369 q 791 55 897 122 q 543 -12 685 -12 m 543 107 q 715 158 642 107 q 826 306 788 210 q 865 533 865 401 q 787 792 865 701 q 563 882 708 882 q 325 768 411 882 q 239 454 239 654 q 317 197 239 286 q 543 107 396 107 m 550 1074 l 706 1288 l 858 1288 l 643 1074 l 550 1074 z "},"Ŏ":{"ha":1082,"x_min":93,"x_max":1013,"o":"m 543 -12 q 303 44 404 -12 q 147 206 201 100 q 93 456 93 311 q 151 743 93 619 q 315 934 208 867 q 561 1001 421 1001 q 801 945 700 1001 q 958 783 903 889 q 1013 533 1013 678 q 955 246 1013 369 q 791 55 897 122 q 543 -12 685 -12 m 543 107 q 715 158 642 107 q 826 306 788 210 q 865 533 865 401 q 787 792 865 701 q 563 882 708 882 q 325 768 411 882 q 239 454 239 654 q 317 197 239 286 q 543 107 396 107 m 603 1089 q 460 1128 522 1089 q 375 1239 399 1167 l 457 1272 q 519 1203 482 1224 q 607 1182 556 1182 q 696 1202 657 1182 q 768 1272 735 1222 l 844 1239 q 747 1126 810 1164 q 603 1089 683 1089 z "},"Ô":{"ha":1082,"x_min":93,"x_max":1013,"o":"m 543 -12 q 303 44 404 -12 q 147 206 201 100 q 93 456 93 311 q 151 743 93 619 q 315 934 208 867 q 561 1001 421 1001 q 801 945 700 1001 q 958 783 903 889 q 1013 533 1013 678 q 955 246 1013 369 q 791 55 897 122 q 543 -12 685 -12 m 543 107 q 715 158 642 107 q 826 306 788 210 q 865 533 865 401 q 787 792 865 701 q 563 882 708 882 q 325 768 411 882 q 239 454 239 654 q 317 197 239 286 q 543 107 396 107 m 381 1074 l 571 1288 l 657 1288 l 814 1074 l 696 1074 l 613 1211 l 500 1074 l 381 1074 z "},"Ố":{"ha":1082,"x_min":93,"x_max":1013,"o":"m 543 -12 q 303 44 404 -12 q 147 206 201 100 q 93 456 93 311 q 151 743 93 619 q 315 934 208 867 q 561 1001 421 1001 q 801 945 700 1001 q 958 783 903 889 q 1013 533 1013 678 q 955 246 1013 369 q 791 55 897 122 q 543 -12 685 -12 m 543 107 q 715 158 642 107 q 826 306 788 210 q 865 533 865 401 q 787 792 865 701 q 563 882 708 882 q 325 768 411 882 q 239 454 239 654 q 317 197 239 286 q 543 107 396 107 m 863 1417 l 1006 1417 l 810 1219 l 731 1219 l 863 1417 m 569 1276 l 657 1276 l 814 1074 l 699 1074 l 611 1201 l 499 1074 l 381 1074 l 569 1276 z "},"Ộ":{"ha":1082,"x_min":93,"x_max":1013,"o":"m 543 -12 q 303 44 404 -12 q 147 206 201 100 q 93 456 93 311 q 151 743 93 619 q 315 934 208 867 q 561 1001 421 1001 q 801 945 700 1001 q 958 783 903 889 q 1013 533 1013 678 q 955 246 1013 369 q 791 55 897 122 q 543 -12 685 -12 m 543 107 q 715 158 642 107 q 826 306 788 210 q 865 533 865 401 q 787 792 865 701 q 563 882 708 882 q 325 768 411 882 q 239 454 239 654 q 317 197 239 286 q 543 107 396 107 m 579 -121 l 568 -262 l 419 -262 l 432 -121 l 579 -121 m 381 1074 l 571 1288 l 657 1288 l 814 1074 l 696 1074 l 613 1211 l 500 1074 l 381 1074 z "},"Ồ":{"ha":1082,"x_min":93,"x_max":1013,"o":"m 543 -12 q 303 44 404 -12 q 147 206 201 100 q 93 456 93 311 q 151 743 93 619 q 315 934 208 867 q 561 1001 421 1001 q 801 945 700 1001 q 958 783 903 889 q 1013 533 1013 678 q 955 246 1013 369 q 791 55 897 122 q 543 -12 685 -12 m 543 107 q 715 158 642 107 q 826 306 788 210 q 865 533 865 401 q 787 792 865 701 q 563 882 708 882 q 325 768 411 882 q 239 454 239 654 q 317 197 239 286 q 543 107 396 107 m 649 1417 l 775 1417 l 869 1219 l 790 1219 l 649 1417 m 569 1276 l 657 1276 l 814 1074 l 699 1074 l 611 1201 l 499 1074 l 381 1074 l 569 1276 z "},"Ổ":{"ha":1082,"x_min":93,"x_max":1013,"o":"m 543 -12 q 303 44 404 -12 q 147 206 201 100 q 93 456 93 311 q 151 743 93 619 q 315 934 208 867 q 561 1001 421 1001 q 801 945 700 1001 q 958 783 903 889 q 1013 533 1013 678 q 955 246 1013 369 q 791 55 897 122 q 543 -12 685 -12 m 543 107 q 715 158 642 107 q 826 306 788 210 q 865 533 865 401 q 787 792 865 701 q 563 882 708 882 q 325 768 411 882 q 239 454 239 654 q 317 197 239 286 q 543 107 396 107 m 732 1244 q 751 1283 733 1269 q 799 1308 769 1297 q 813 1315 803 1310 q 828 1324 824 1319 q 833 1335 833 1329 q 788 1354 833 1354 q 693 1339 746 1354 l 678 1403 q 799 1425 733 1425 q 897 1403 861 1425 q 933 1346 933 1381 q 915 1301 933 1317 q 864 1272 897 1286 q 828 1254 840 1263 q 814 1232 815 1246 l 813 1219 l 729 1219 l 732 1244 m 569 1276 l 657 1276 l 814 1074 l 699 1074 l 611 1201 l 499 1074 l 381 1074 l 569 1276 z "},"Ỗ":{"ha":1082,"x_min":93,"x_max":1013,"o":"m 543 -12 q 303 44 404 -12 q 147 206 201 100 q 93 456 93 311 q 151 743 93 619 q 315 934 208 867 q 561 1001 421 1001 q 801 945 700 1001 q 958 783 903 889 q 1013 533 1013 678 q 955 246 1013 369 q 791 55 897 122 q 543 -12 685 -12 m 543 107 q 715 158 642 107 q 826 306 788 210 q 865 533 865 401 q 787 792 865 701 q 563 882 708 882 q 325 768 411 882 q 239 454 239 654 q 317 197 239 286 q 543 107 396 107 m 383 1297 q 427 1399 386 1361 q 525 1438 468 1438 q 576 1431 553 1438 q 640 1407 600 1424 q 722 1382 690 1382 q 767 1397 750 1382 q 786 1439 785 1413 l 857 1439 q 815 1337 856 1375 q 717 1299 774 1299 q 661 1307 688 1299 q 601 1331 635 1315 q 559 1348 581 1340 q 519 1356 538 1356 q 474 1340 492 1356 q 454 1297 456 1324 l 383 1297 m 569 1276 l 657 1276 l 814 1074 l 699 1074 l 611 1201 l 499 1074 l 381 1074 l 569 1276 z "},"Ȍ":{"ha":1082,"x_min":93,"x_max":1013,"o":"m 543 -12 q 303 44 404 -12 q 147 206 201 100 q 93 456 93 311 q 151 743 93 619 q 315 934 208 867 q 561 1001 421 1001 q 801 945 700 1001 q 958 783 903 889 q 1013 533 1013 678 q 955 246 1013 369 q 791 55 897 122 q 543 -12 685 -12 m 543 107 q 715 158 642 107 q 826 306 788 210 q 865 533 865 401 q 787 792 865 701 q 563 882 708 882 q 325 768 411 882 q 239 454 239 654 q 317 197 239 286 q 543 107 396 107 m 354 1288 l 461 1288 l 547 1074 l 474 1074 l 354 1288 m 528 1288 l 636 1288 l 721 1074 l 647 1074 l 528 1288 z "},"Ö":{"ha":1082,"x_min":93,"x_max":1013,"o":"m 543 -12 q 303 44 404 -12 q 147 206 201 100 q 93 456 93 311 q 151 743 93 619 q 315 934 208 867 q 561 1001 421 1001 q 801 945 700 1001 q 958 783 903 889 q 1013 533 1013 678 q 955 246 1013 369 q 791 55 897 122 q 543 -12 685 -12 m 543 107 q 715 158 642 107 q 826 306 788 210 q 865 533 865 401 q 787 792 865 701 q 563 882 708 882 q 325 768 411 882 q 239 454 239 654 q 317 197 239 286 q 543 107 396 107 m 560 1250 l 549 1113 l 404 1113 l 415 1250 l 560 1250 m 808 1250 l 797 1113 l 653 1113 l 663 1250 l 808 1250 z "},"Ȫ":{"ha":1082,"x_min":93,"x_max":1013,"o":"m 543 -12 q 303 44 404 -12 q 147 206 201 100 q 93 456 93 311 q 151 743 93 619 q 315 934 208 867 q 561 1001 421 1001 q 801 945 700 1001 q 958 783 903 889 q 1013 533 1013 678 q 955 246 1013 369 q 791 55 897 122 q 543 -12 685 -12 m 543 107 q 715 158 642 107 q 826 306 788 210 q 865 533 865 401 q 787 792 865 701 q 563 882 708 882 q 325 768 411 882 q 239 454 239 654 q 317 197 239 286 q 543 107 396 107 m 560 1250 l 549 1113 l 404 1113 l 415 1250 l 560 1250 m 808 1250 l 797 1113 l 653 1113 l 663 1250 l 808 1250 m 415 1456 l 840 1456 l 833 1357 l 407 1357 l 415 1456 z "},"Ȱ":{"ha":1082,"x_min":93,"x_max":1013,"o":"m 543 -12 q 303 44 404 -12 q 147 206 201 100 q 93 456 93 311 q 151 743 93 619 q 315 934 208 867 q 561 1001 421 1001 q 801 945 700 1001 q 958 783 903 889 q 1013 533 1013 678 q 955 246 1013 369 q 791 55 897 122 q 543 -12 685 -12 m 543 107 q 715 158 642 107 q 826 306 788 210 q 865 533 865 401 q 787 792 865 701 q 563 882 708 882 q 325 768 411 882 q 239 454 239 654 q 317 197 239 286 q 543 107 396 107 m 693 1256 l 682 1107 l 519 1107 l 531 1256 l 693 1256 m 415 1456 l 840 1456 l 833 1357 l 407 1357 l 415 1456 z "},"Ọ":{"ha":1082,"x_min":93,"x_max":1013,"o":"m 543 -12 q 303 44 404 -12 q 147 206 201 100 q 93 456 93 311 q 151 743 93 619 q 315 934 208 867 q 561 1001 421 1001 q 801 945 700 1001 q 958 783 903 889 q 1013 533 1013 678 q 955 246 1013 369 q 791 55 897 122 q 543 -12 685 -12 m 543 107 q 715 158 642 107 q 826 306 788 210 q 865 533 865 401 q 787 792 865 701 q 563 882 708 882 q 325 768 411 882 q 239 454 239 654 q 317 197 239 286 q 543 107 396 107 m 579 -121 l 568 -262 l 419 -262 l 432 -121 l 579 -121 z "},"Ò":{"ha":1082,"x_min":93,"x_max":1013,"o":"m 543 -12 q 303 44 404 -12 q 147 206 201 100 q 93 456 93 311 q 151 743 93 619 q 315 934 208 867 q 561 1001 421 1001 q 801 945 700 1001 q 958 783 903 889 q 1013 533 1013 678 q 955 246 1013 369 q 791 55 897 122 q 543 -12 685 -12 m 543 107 q 715 158 642 107 q 826 306 788 210 q 865 533 865 401 q 787 792 865 701 q 563 882 708 882 q 325 768 411 882 q 239 454 239 654 q 317 197 239 286 q 543 107 396 107 m 379 1288 l 514 1288 l 643 1074 l 550 1074 l 379 1288 z "},"Ỏ":{"ha":1082,"x_min":93,"x_max":1013,"o":"m 543 -12 q 303 44 404 -12 q 147 206 201 100 q 93 456 93 311 q 151 743 93 619 q 315 934 208 867 q 561 1001 421 1001 q 801 945 700 1001 q 958 783 903 889 q 1013 533 1013 678 q 955 246 1013 369 q 791 55 897 122 q 543 -12 685 -12 m 543 107 q 715 158 642 107 q 826 306 788 210 q 865 533 865 401 q 787 792 865 701 q 563 882 708 882 q 325 768 411 882 q 239 454 239 654 q 317 197 239 286 q 543 107 396 107 m 639 1074 l 557 1074 l 558 1100 q 575 1137 560 1124 q 619 1165 590 1150 q 649 1182 639 1174 q 658 1200 658 1190 q 646 1216 658 1210 q 610 1222 633 1222 q 522 1206 568 1222 l 504 1271 q 624 1293 563 1293 q 724 1270 688 1293 q 760 1211 760 1247 q 741 1164 760 1181 q 689 1132 722 1147 q 652 1111 663 1119 q 640 1089 642 1103 l 639 1074 z "},"Ơ":{"ha":1082,"x_min":93,"x_max":1064,"o":"m 1061 1121 q 1002 974 1054 1029 q 857 910 950 918 q 971 758 929 853 q 1013 533 1013 663 q 955 246 1013 369 q 791 55 897 122 q 543 -12 685 -12 q 303 44 404 -12 q 147 206 201 100 q 93 456 93 311 q 151 744 93 621 q 319 934 210 867 q 575 1001 428 1001 q 679 996 613 1001 q 782 989 732 989 q 897 1023 863 989 q 939 1140 932 1057 l 940 1163 l 1064 1163 l 1061 1121 m 543 107 q 715 158 642 107 q 826 306 788 210 q 865 533 865 401 q 787 792 865 701 q 563 882 708 882 q 325 768 411 882 q 239 454 239 654 q 317 197 239 286 q 543 107 396 107 z "},"Ớ":{"ha":1082,"x_min":93,"x_max":1064,"o":"m 1061 1121 q 1002 974 1054 1029 q 857 910 950 918 q 971 758 929 853 q 1013 533 1013 663 q 955 246 1013 369 q 791 55 897 122 q 543 -12 685 -12 q 303 44 404 -12 q 147 206 201 100 q 93 456 93 311 q 151 744 93 621 q 319 934 210 867 q 575 1001 428 1001 q 679 996 613 1001 q 782 989 732 989 q 897 1023 863 989 q 939 1140 932 1057 l 940 1163 l 1064 1163 l 1061 1121 m 543 107 q 715 158 642 107 q 826 306 788 210 q 865 533 865 401 q 787 792 865 701 q 563 882 708 882 q 325 768 411 882 q 239 454 239 654 q 317 197 239 286 q 543 107 396 107 m 550 1074 l 706 1288 l 858 1288 l 643 1074 l 550 1074 z "},"Ợ":{"ha":1082,"x_min":93,"x_max":1064,"o":"m 1061 1121 q 1002 974 1054 1029 q 857 910 950 918 q 971 758 929 853 q 1013 533 1013 663 q 955 246 1013 369 q 791 55 897 122 q 543 -12 685 -12 q 303 44 404 -12 q 147 206 201 100 q 93 456 93 311 q 151 744 93 621 q 319 934 210 867 q 575 1001 428 1001 q 679 996 613 1001 q 782 989 732 989 q 897 1023 863 989 q 939 1140 932 1057 l 940 1163 l 1064 1163 l 1061 1121 m 543 107 q 715 158 642 107 q 826 306 788 210 q 865 533 865 401 q 787 792 865 701 q 563 882 708 882 q 325 768 411 882 q 239 454 239 654 q 317 197 239 286 q 543 107 396 107 m 581 -121 l 569 -262 l 421 -262 l 433 -121 l 581 -121 z "},"Ờ":{"ha":1082,"x_min":93,"x_max":1064,"o":"m 1061 1121 q 1002 974 1054 1029 q 857 910 950 918 q 971 758 929 853 q 1013 533 1013 663 q 955 246 1013 369 q 791 55 897 122 q 543 -12 685 -12 q 303 44 404 -12 q 147 206 201 100 q 93 456 93 311 q 151 744 93 621 q 319 934 210 867 q 575 1001 428 1001 q 679 996 613 1001 q 782 989 732 989 q 897 1023 863 989 q 939 1140 932 1057 l 940 1163 l 1064 1163 l 1061 1121 m 543 107 q 715 158 642 107 q 826 306 788 210 q 865 533 865 401 q 787 792 865 701 q 563 882 708 882 q 325 768 411 882 q 239 454 239 654 q 317 197 239 286 q 543 107 396 107 m 379 1288 l 514 1288 l 643 1074 l 550 1074 l 379 1288 z "},"Ở":{"ha":1082,"x_min":93,"x_max":1064,"o":"m 1061 1121 q 1002 974 1054 1029 q 857 910 950 918 q 971 758 929 853 q 1013 533 1013 663 q 955 246 1013 369 q 791 55 897 122 q 543 -12 685 -12 q 303 44 404 -12 q 147 206 201 100 q 93 456 93 311 q 151 744 93 621 q 319 934 210 867 q 575 1001 428 1001 q 679 996 613 1001 q 782 989 732 989 q 897 1023 863 989 q 939 1140 932 1057 l 940 1163 l 1064 1163 l 1061 1121 m 543 107 q 715 158 642 107 q 826 306 788 210 q 865 533 865 401 q 787 792 865 701 q 563 882 708 882 q 325 768 411 882 q 239 454 239 654 q 317 197 239 286 q 543 107 396 107 m 639 1074 l 557 1074 l 558 1100 q 575 1137 560 1124 q 619 1165 590 1150 q 649 1182 639 1174 q 658 1200 658 1190 q 646 1216 658 1210 q 610 1222 633 1222 q 522 1206 568 1222 l 504 1271 q 624 1293 563 1293 q 724 1270 688 1293 q 760 1211 760 1247 q 741 1164 760 1181 q 689 1132 722 1147 q 652 1111 663 1119 q 640 1089 642 1103 l 639 1074 z "},"Ỡ":{"ha":1082,"x_min":93,"x_max":1064,"o":"m 1061 1121 q 1002 974 1054 1029 q 857 910 950 918 q 971 758 929 853 q 1013 533 1013 663 q 955 246 1013 369 q 791 55 897 122 q 543 -12 685 -12 q 303 44 404 -12 q 147 206 201 100 q 93 456 93 311 q 151 744 93 621 q 319 934 210 867 q 575 1001 428 1001 q 679 996 613 1001 q 782 989 732 989 q 897 1023 863 989 q 939 1140 932 1057 l 940 1163 l 1064 1163 l 1061 1121 m 543 107 q 715 158 642 107 q 826 306 788 210 q 865 533 865 401 q 787 792 865 701 q 563 882 708 882 q 325 768 411 882 q 239 454 239 654 q 317 197 239 286 q 543 107 396 107 m 368 1097 q 413 1227 372 1185 q 514 1269 453 1269 q 565 1258 542 1269 q 625 1225 589 1247 q 648 1212 631 1222 q 679 1197 665 1201 q 704 1192 693 1192 q 752 1211 733 1192 q 772 1265 771 1231 l 844 1265 q 799 1136 839 1179 q 697 1093 758 1093 q 646 1104 669 1093 q 586 1138 622 1115 q 540 1163 556 1156 q 508 1171 525 1171 q 460 1151 479 1171 q 439 1097 442 1132 l 368 1097 z "},"Ő":{"ha":1082,"x_min":93,"x_max":1013,"o":"m 543 -12 q 303 44 404 -12 q 147 206 201 100 q 93 456 93 311 q 151 743 93 619 q 315 934 208 867 q 561 1001 421 1001 q 801 945 700 1001 q 958 783 903 889 q 1013 533 1013 678 q 955 246 1013 369 q 791 55 897 122 q 543 -12 685 -12 m 543 107 q 715 158 642 107 q 826 306 788 210 q 865 533 865 401 q 787 792 865 701 q 563 882 708 882 q 325 768 411 882 q 239 454 239 654 q 317 197 239 286 q 543 107 396 107 m 588 1288 l 703 1288 l 547 1074 l 474 1074 l 588 1288 m 763 1288 l 878 1288 l 721 1074 l 647 1074 l 763 1288 z "},"Ȏ":{"ha":1082,"x_min":93,"x_max":1013,"o":"m 543 -12 q 303 44 404 -12 q 147 206 201 100 q 93 456 93 311 q 151 743 93 619 q 315 934 208 867 q 561 1001 421 1001 q 801 945 700 1001 q 958 783 903 889 q 1013 533 1013 678 q 955 246 1013 369 q 791 55 897 122 q 543 -12 685 -12 m 543 107 q 715 158 642 107 q 826 306 788 210 q 865 533 865 401 q 787 792 865 701 q 563 882 708 882 q 325 768 411 882 q 239 454 239 654 q 317 197 239 286 q 543 107 396 107 m 608 1274 q 751 1235 689 1274 q 836 1124 813 1196 l 754 1090 q 692 1160 729 1139 q 604 1181 654 1181 q 515 1160 554 1181 q 443 1090 476 1139 l 367 1124 q 465 1235 401 1197 q 608 1274 528 1274 z "},"Ō":{"ha":1082,"x_min":93,"x_max":1013,"o":"m 543 -12 q 303 44 404 -12 q 147 206 201 100 q 93 456 93 311 q 151 743 93 619 q 315 934 208 867 q 561 1001 421 1001 q 801 945 700 1001 q 958 783 903 889 q 1013 533 1013 678 q 955 246 1013 369 q 791 55 897 122 q 543 -12 685 -12 m 543 107 q 715 158 642 107 q 826 306 788 210 q 865 533 865 401 q 787 792 865 701 q 563 882 708 882 q 325 768 411 882 q 239 454 239 654 q 317 197 239 286 q 543 107 396 107 m 397 1231 l 822 1231 l 815 1132 l 389 1132 l 397 1231 z "},"Ṓ":{"ha":1082,"x_min":93,"x_max":1013,"o":"m 543 -12 q 303 44 404 -12 q 147 206 201 100 q 93 456 93 311 q 151 743 93 619 q 315 934 208 867 q 561 1001 421 1001 q 801 945 700 1001 q 958 783 903 889 q 1013 533 1013 678 q 955 246 1013 369 q 791 55 897 122 q 543 -12 685 -12 m 543 107 q 715 158 642 107 q 826 306 788 210 q 865 533 865 401 q 787 792 865 701 q 563 882 708 882 q 325 768 411 882 q 239 454 239 654 q 317 197 239 286 q 543 107 396 107 m 397 1231 l 822 1231 l 815 1132 l 389 1132 l 397 1231 m 568 1299 l 724 1513 l 876 1513 l 661 1299 l 568 1299 z "},"Ṑ":{"ha":1082,"x_min":93,"x_max":1013,"o":"m 543 -12 q 303 44 404 -12 q 147 206 201 100 q 93 456 93 311 q 151 743 93 619 q 315 934 208 867 q 561 1001 421 1001 q 801 945 700 1001 q 958 783 903 889 q 1013 533 1013 678 q 955 246 1013 369 q 791 55 897 122 q 543 -12 685 -12 m 543 107 q 715 158 642 107 q 826 306 788 210 q 865 533 865 401 q 787 792 865 701 q 563 882 708 882 q 325 768 411 882 q 239 454 239 654 q 317 197 239 286 q 543 107 396 107 m 397 1231 l 822 1231 l 815 1132 l 389 1132 l 397 1231 m 397 1513 l 532 1513 l 661 1299 l 568 1299 l 397 1513 z "},"Ǫ":{"ha":1082,"x_min":93,"x_max":1013,"o":"m 658 0 q 547 -108 547 -25 q 569 -167 547 -146 q 628 -187 590 -187 q 711 -165 667 -187 l 728 -242 q 606 -272 671 -272 q 488 -233 532 -272 q 443 -129 443 -193 q 496 -10 443 -56 q 282 56 372 -3 q 142 216 192 114 q 93 456 93 318 q 151 743 93 619 q 315 934 208 867 q 561 1001 421 1001 q 803 945 701 1001 q 958 783 904 889 q 1013 533 1013 678 q 967 274 1013 386 q 842 92 922 161 q 658 0 763 24 m 543 107 q 715 158 642 107 q 826 306 788 210 q 865 533 865 401 q 787 792 865 701 q 563 882 708 882 q 325 768 411 882 q 239 454 239 654 q 317 197 239 286 q 543 107 396 107 z "},"Ø":{"ha":1082,"x_min":93,"x_max":1013,"o":"m 881 888 q 978 737 944 826 q 1013 533 1013 647 q 955 246 1013 369 q 791 55 897 122 q 543 -12 685 -12 q 315 38 411 -12 l 242 -74 l 149 -15 l 225 100 q 127 251 161 161 q 93 456 93 342 q 151 743 93 619 q 315 934 208 867 q 561 1001 421 1001 q 790 951 692 1001 l 864 1063 l 957 1004 l 881 888 m 239 454 q 303 217 239 304 l 719 846 q 563 882 654 882 q 325 768 411 882 q 239 454 239 654 m 543 107 q 715 158 642 107 q 826 306 788 210 q 865 533 865 401 q 803 771 865 682 l 385 143 q 543 107 453 107 z "},"Ǿ":{"ha":1082,"x_min":93,"x_max":1013,"o":"m 881 888 q 978 737 944 826 q 1013 533 1013 647 q 955 246 1013 369 q 791 55 897 122 q 543 -12 685 -12 q 315 38 411 -12 l 242 -74 l 149 -15 l 225 100 q 127 251 161 161 q 93 456 93 342 q 151 743 93 619 q 315 934 208 867 q 561 1001 421 1001 q 790 951 692 1001 l 864 1063 l 957 1004 l 881 888 m 239 454 q 303 217 239 304 l 719 846 q 563 882 654 882 q 325 768 411 882 q 239 454 239 654 m 543 107 q 715 158 642 107 q 826 306 788 210 q 865 533 865 401 q 803 771 865 682 l 385 143 q 543 107 453 107 m 550 1074 l 706 1288 l 858 1288 l 643 1074 l 550 1074 z "},"Õ":{"ha":1082,"x_min":93,"x_max":1013,"o":"m 543 -12 q 303 44 404 -12 q 147 206 201 100 q 93 456 93 311 q 151 743 93 619 q 315 934 208 867 q 561 1001 421 1001 q 801 945 700 1001 q 958 783 903 889 q 1013 533 1013 678 q 955 246 1013 369 q 791 55 897 122 q 543 -12 685 -12 m 543 107 q 715 158 642 107 q 826 306 788 210 q 865 533 865 401 q 787 792 865 701 q 563 882 708 882 q 325 768 411 882 q 239 454 239 654 q 317 197 239 286 q 543 107 396 107 m 368 1097 q 413 1227 372 1185 q 514 1269 453 1269 q 565 1258 542 1269 q 625 1225 589 1247 q 648 1212 631 1222 q 679 1197 665 1201 q 704 1192 693 1192 q 752 1211 733 1192 q 772 1265 771 1231 l 844 1265 q 799 1136 839 1179 q 697 1093 758 1093 q 646 1104 669 1093 q 586 1138 622 1115 q 540 1163 556 1156 q 508 1171 525 1171 q 460 1151 479 1171 q 439 1097 442 1132 l 368 1097 z "},"Ṍ":{"ha":1082,"x_min":93,"x_max":1013,"o":"m 543 -12 q 303 44 404 -12 q 147 206 201 100 q 93 456 93 311 q 151 743 93 619 q 315 934 208 867 q 561 1001 421 1001 q 801 945 700 1001 q 958 783 903 889 q 1013 533 1013 678 q 955 246 1013 369 q 791 55 897 122 q 543 -12 685 -12 m 543 107 q 715 158 642 107 q 826 306 788 210 q 865 533 865 401 q 787 792 865 701 q 563 882 708 882 q 325 768 411 882 q 239 454 239 654 q 317 197 239 286 q 543 107 396 107 m 368 1097 q 413 1227 372 1185 q 514 1269 453 1269 q 565 1258 542 1269 q 625 1225 589 1247 q 648 1212 631 1222 q 679 1197 665 1201 q 704 1192 693 1192 q 752 1211 733 1192 q 772 1265 771 1231 l 844 1265 q 799 1136 839 1179 q 697 1093 758 1093 q 646 1104 669 1093 q 586 1138 622 1115 q 540 1163 556 1156 q 508 1171 525 1171 q 460 1151 479 1171 q 439 1097 442 1132 l 368 1097 m 568 1299 l 724 1513 l 876 1513 l 661 1299 l 568 1299 z "},"Ṏ":{"ha":1082,"x_min":93,"x_max":1013,"o":"m 543 -12 q 303 44 404 -12 q 147 206 201 100 q 93 456 93 311 q 151 743 93 619 q 315 934 208 867 q 561 1001 421 1001 q 801 945 700 1001 q 958 783 903 889 q 1013 533 1013 678 q 955 246 1013 369 q 791 55 897 122 q 543 -12 685 -12 m 543 107 q 715 158 642 107 q 826 306 788 210 q 865 533 865 401 q 787 792 865 701 q 563 882 708 882 q 325 768 411 882 q 239 454 239 654 q 317 197 239 286 q 543 107 396 107 m 368 1097 q 413 1227 372 1185 q 514 1269 453 1269 q 565 1258 542 1269 q 625 1225 589 1247 q 648 1212 631 1222 q 679 1197 665 1201 q 704 1192 693 1192 q 752 1211 733 1192 q 772 1265 771 1231 l 844 1265 q 799 1136 839 1179 q 697 1093 758 1093 q 646 1104 669 1093 q 586 1138 622 1115 q 540 1163 556 1156 q 508 1171 525 1171 q 460 1151 479 1171 q 439 1097 442 1132 l 368 1097 m 578 1475 l 567 1338 l 422 1338 l 433 1475 l 578 1475 m 826 1475 l 815 1338 l 671 1338 l 681 1475 l 826 1475 z "},"Ȭ":{"ha":1082,"x_min":93,"x_max":1013,"o":"m 543 -12 q 303 44 404 -12 q 147 206 201 100 q 93 456 93 311 q 151 743 93 619 q 315 934 208 867 q 561 1001 421 1001 q 801 945 700 1001 q 958 783 903 889 q 1013 533 1013 678 q 955 246 1013 369 q 791 55 897 122 q 543 -12 685 -12 m 543 107 q 715 158 642 107 q 826 306 788 210 q 865 533 865 401 q 787 792 865 701 q 563 882 708 882 q 325 768 411 882 q 239 454 239 654 q 317 197 239 286 q 543 107 396 107 m 368 1097 q 413 1227 372 1185 q 514 1269 453 1269 q 565 1258 542 1269 q 625 1225 589 1247 q 648 1212 631 1222 q 679 1197 665 1201 q 704 1192 693 1192 q 752 1211 733 1192 q 772 1265 771 1231 l 844 1265 q 799 1136 839 1179 q 697 1093 758 1093 q 646 1104 669 1093 q 586 1138 622 1115 q 540 1163 556 1156 q 508 1171 525 1171 q 460 1151 479 1171 q 439 1097 442 1132 l 368 1097 m 415 1456 l 840 1456 l 833 1357 l 407 1357 l 415 1456 z "},"Œ":{"ha":1467,"x_min":93,"x_max":1451,"o":"m 943 872 l 919 561 l 1390 561 l 1381 444 l 910 444 l 885 117 l 1385 117 l 1375 0 l 739 0 l 743 54 q 524 -12 653 -12 q 297 44 394 -12 q 147 206 200 100 q 93 456 93 311 q 151 744 93 621 q 317 934 210 867 q 569 1001 425 1001 q 701 985 638 1001 q 813 933 764 968 l 817 989 l 1451 989 l 1443 872 l 943 872 m 239 454 q 317 197 239 286 q 543 107 396 107 q 653 124 600 107 q 746 174 706 140 l 796 815 q 703 865 758 849 q 583 882 649 882 q 328 769 418 882 q 239 454 239 656 z "},"P":{"ha":915,"x_min":90,"x_max":885,"o":"m 564 989 q 801 917 717 989 q 885 725 885 844 q 792 503 885 582 q 532 425 699 425 l 267 425 l 233 0 l 90 0 l 167 989 l 564 989 m 522 539 q 688 585 631 539 q 746 719 746 631 q 697 833 746 793 q 550 874 649 874 l 303 874 l 276 539 l 522 539 z "},"Þ":{"ha":914,"x_min":90,"x_max":869,"o":"m 567 776 q 790 710 711 776 q 869 519 869 643 q 784 305 869 381 q 538 229 699 229 l 250 229 l 232 0 l 90 0 l 167 989 l 310 989 l 293 776 l 567 776 m 528 343 q 731 513 731 343 q 687 626 731 590 q 553 661 643 661 l 283 661 l 258 343 l 528 343 z "},"Q":{"ha":1082,"x_min":93,"x_max":1013,"o":"m 707 14 q 865 -182 758 -87 l 761 -265 q 649 -153 701 -221 q 560 -12 596 -86 l 543 -12 q 303 44 404 -12 q 147 206 201 100 q 93 456 93 311 q 151 743 93 619 q 315 934 208 867 q 561 1001 421 1001 q 801 945 700 1001 q 958 783 903 889 q 1013 533 1013 678 q 931 201 1013 338 q 707 14 850 65 m 239 454 q 317 197 239 286 q 543 107 396 107 q 715 158 642 107 q 826 306 788 210 q 865 533 865 401 q 787 792 865 701 q 563 882 708 882 q 325 768 411 882 q 239 454 239 654 z "},"R":{"ha":968,"x_min":90,"x_max":903,"o":"m 676 443 q 743 398 717 431 q 788 307 769 365 l 882 0 l 731 0 l 631 329 q 576 402 615 382 q 471 422 538 422 l 265 422 l 232 0 l 90 0 l 167 989 l 586 989 q 820 919 738 989 q 903 726 903 850 q 846 541 903 614 q 676 443 789 468 m 546 538 q 765 718 765 538 q 572 874 765 874 l 301 874 l 275 538 l 546 538 z "},"Ŕ":{"ha":968,"x_min":90,"x_max":903,"o":"m 676 443 q 743 398 717 431 q 788 307 769 365 l 882 0 l 731 0 l 631 329 q 576 402 615 382 q 471 422 538 422 l 265 422 l 232 0 l 90 0 l 167 989 l 586 989 q 820 919 738 989 q 903 726 903 850 q 846 541 903 614 q 676 443 789 468 m 546 538 q 765 718 765 538 q 572 874 765 874 l 301 874 l 275 538 l 546 538 m 493 1074 l 649 1288 l 801 1288 l 586 1074 l 493 1074 z "},"Ř":{"ha":968,"x_min":90,"x_max":903,"o":"m 676 443 q 743 398 717 431 q 788 307 769 365 l 882 0 l 731 0 l 631 329 q 576 402 615 382 q 471 422 538 422 l 265 422 l 232 0 l 90 0 l 167 989 l 586 989 q 820 919 738 989 q 903 726 903 850 q 846 541 903 614 q 676 443 789 468 m 546 538 q 765 718 765 538 q 572 874 765 874 l 301 874 l 275 538 l 546 538 m 774 1288 l 583 1074 l 496 1074 l 340 1288 l 458 1288 l 549 1150 l 654 1288 l 774 1288 z "},"Ŗ":{"ha":968,"x_min":90,"x_max":903,"o":"m 676 443 q 743 398 717 431 q 788 307 769 365 l 882 0 l 731 0 l 631 329 q 576 402 615 382 q 471 422 538 422 l 265 422 l 232 0 l 90 0 l 167 989 l 586 989 q 820 919 738 989 q 903 726 903 850 q 846 541 903 614 q 676 443 789 468 m 546 538 q 765 718 765 538 q 572 874 765 874 l 301 874 l 275 538 l 546 538 m 528 -99 l 522 -182 q 497 -286 517 -242 q 432 -369 476 -331 l 378 -328 q 417 -278 404 -301 q 435 -226 431 -254 l 361 -226 l 371 -99 l 528 -99 z "},"Ȑ":{"ha":968,"x_min":90,"x_max":903,"o":"m 676 443 q 743 398 717 431 q 788 307 769 365 l 882 0 l 731 0 l 631 329 q 576 402 615 382 q 471 422 538 422 l 265 422 l 232 0 l 90 0 l 167 989 l 586 989 q 820 919 738 989 q 903 726 903 850 q 846 541 903 614 q 676 443 789 468 m 546 538 q 765 718 765 538 q 572 874 765 874 l 301 874 l 275 538 l 546 538 m 297 1288 l 404 1288 l 490 1074 l 417 1074 l 297 1288 m 471 1288 l 579 1288 l 664 1074 l 590 1074 l 471 1288 z "},"Ṛ":{"ha":968,"x_min":90,"x_max":903,"o":"m 676 443 q 743 398 717 431 q 788 307 769 365 l 882 0 l 731 0 l 631 329 q 576 402 615 382 q 471 422 538 422 l 265 422 l 232 0 l 90 0 l 167 989 l 586 989 q 820 919 738 989 q 903 726 903 850 q 846 541 903 614 q 676 443 789 468 m 546 538 q 765 718 765 538 q 572 874 765 874 l 301 874 l 275 538 l 546 538 m 522 -121 l 511 -262 l 363 -262 l 375 -121 l 522 -121 z "},"Ȓ":{"ha":968,"x_min":90,"x_max":903,"o":"m 676 443 q 743 398 717 431 q 788 307 769 365 l 882 0 l 731 0 l 631 329 q 576 402 615 382 q 471 422 538 422 l 265 422 l 232 0 l 90 0 l 167 989 l 586 989 q 820 919 738 989 q 903 726 903 850 q 846 541 903 614 q 676 443 789 468 m 546 538 q 765 718 765 538 q 572 874 765 874 l 301 874 l 275 538 l 546 538 m 551 1274 q 694 1235 632 1274 q 779 1124 756 1196 l 697 1090 q 635 1160 672 1139 q 547 1181 597 1181 q 458 1160 497 1181 q 386 1090 419 1139 l 310 1124 q 408 1235 344 1197 q 551 1274 471 1274 z "},"Ṟ":{"ha":968,"x_min":90,"x_max":903,"o":"m 676 443 q 743 398 717 431 q 788 307 769 365 l 882 0 l 731 0 l 631 329 q 576 402 615 382 q 471 422 538 422 l 265 422 l 232 0 l 90 0 l 167 989 l 586 989 q 820 919 738 989 q 903 726 903 850 q 846 541 903 614 q 676 443 789 468 m 546 538 q 765 718 765 538 q 572 874 765 874 l 301 874 l 275 538 l 546 538 m 233 -144 l 658 -144 l 651 -239 l 226 -239 l 233 -144 z "},"S":{"ha":879,"x_min":46,"x_max":840,"o":"m 429 -11 q 46 111 197 -11 l 106 217 q 259 132 181 158 q 433 106 338 106 q 606 146 546 106 q 665 260 665 186 q 635 335 665 306 q 560 383 604 365 q 435 425 517 400 q 266 484 331 456 q 156 567 201 513 q 110 713 110 622 q 156 864 110 799 q 289 965 203 929 q 490 1000 375 1000 q 685 968 593 1000 q 840 878 778 936 l 781 772 q 642 856 717 828 q 488 883 567 883 q 315 840 376 883 q 254 722 254 797 q 286 639 254 672 q 365 587 318 606 q 497 543 413 568 q 661 487 599 514 q 767 408 724 460 q 811 272 811 356 q 709 65 811 140 q 429 -11 607 -11 z "},"Ś":{"ha":879,"x_min":46,"x_max":840,"o":"m 429 -11 q 46 111 197 -11 l 106 217 q 259 132 181 158 q 433 106 338 106 q 606 146 546 106 q 665 260 665 186 q 635 335 665 306 q 560 383 604 365 q 435 425 517 400 q 266 484 331 456 q 156 567 201 513 q 110 713 110 622 q 156 864 110 799 q 289 965 203 929 q 490 1000 375 1000 q 685 968 593 1000 q 840 878 778 936 l 781 772 q 642 856 717 828 q 488 883 567 883 q 315 840 376 883 q 254 722 254 797 q 286 639 254 672 q 365 587 318 606 q 497 543 413 568 q 661 487 599 514 q 767 408 724 460 q 811 272 811 356 q 709 65 811 140 q 429 -11 607 -11 m 451 1074 l 607 1288 l 760 1288 l 544 1074 l 451 1074 z "},"Ṥ":{"ha":879,"x_min":46,"x_max":840,"o":"m 429 -11 q 46 111 197 -11 l 106 217 q 259 132 181 158 q 433 106 338 106 q 606 146 546 106 q 665 260 665 186 q 635 335 665 306 q 560 383 604 365 q 435 425 517 400 q 266 484 331 456 q 156 567 201 513 q 110 713 110 622 q 156 864 110 799 q 289 965 203 929 q 490 1000 375 1000 q 685 968 593 1000 q 840 878 778 936 l 781 772 q 642 856 717 828 q 488 883 567 883 q 315 840 376 883 q 254 722 254 797 q 286 639 254 672 q 365 587 318 606 q 497 543 413 568 q 661 487 599 514 q 767 408 724 460 q 811 272 811 356 q 709 65 811 140 q 429 -11 607 -11 m 469 1074 l 625 1288 l 778 1288 l 563 1074 l 469 1074 m 433 1286 l 422 1138 l 260 1138 l 271 1286 l 433 1286 z "},"Š":{"ha":879,"x_min":46,"x_max":840,"o":"m 429 -11 q 46 111 197 -11 l 106 217 q 259 132 181 158 q 433 106 338 106 q 606 146 546 106 q 665 260 665 186 q 635 335 665 306 q 560 383 604 365 q 435 425 517 400 q 266 484 331 456 q 156 567 201 513 q 110 713 110 622 q 156 864 110 799 q 289 965 203 929 q 490 1000 375 1000 q 685 968 593 1000 q 840 878 778 936 l 781 772 q 642 856 717 828 q 488 883 567 883 q 315 840 376 883 q 254 722 254 797 q 286 639 254 672 q 365 587 318 606 q 497 543 413 568 q 661 487 599 514 q 767 408 724 460 q 811 272 811 356 q 709 65 811 140 q 429 -11 607 -11 m 732 1288 l 542 1074 l 454 1074 l 299 1288 l 417 1288 l 507 1150 l 613 1288 l 732 1288 z "},"Ṧ":{"ha":879,"x_min":46,"x_max":840,"o":"m 429 -11 q 46 111 197 -11 l 106 217 q 259 132 181 158 q 433 106 338 106 q 606 146 546 106 q 665 260 665 186 q 635 335 665 306 q 560 383 604 365 q 435 425 517 400 q 266 484 331 456 q 156 567 201 513 q 110 713 110 622 q 156 864 110 799 q 289 965 203 929 q 490 1000 375 1000 q 685 968 593 1000 q 840 878 778 936 l 781 772 q 642 856 717 828 q 488 883 567 883 q 315 840 376 883 q 254 722 254 797 q 286 639 254 672 q 365 587 318 606 q 497 543 413 568 q 661 487 599 514 q 767 408 724 460 q 811 272 811 356 q 709 65 811 140 q 429 -11 607 -11 m 732 1288 l 542 1074 l 454 1074 l 299 1288 l 417 1288 l 507 1150 l 613 1288 l 732 1288 m 613 1481 l 601 1332 l 439 1332 l 450 1481 l 613 1481 z "},"Ş":{"ha":879,"x_min":46,"x_max":840,"o":"m 254 722 q 286 639 254 672 q 365 587 318 606 q 497 543 413 568 q 661 487 599 514 q 767 408 724 460 q 811 272 811 356 q 714 68 811 143 q 446 -11 617 -7 l 436 -58 q 458 -57 443 -57 q 536 -82 507 -57 q 565 -151 565 -107 q 520 -239 565 -206 q 394 -272 475 -272 q 326 -265 363 -272 q 264 -246 290 -258 l 286 -179 q 394 -199 344 -199 q 449 -187 429 -199 q 468 -154 468 -176 q 422 -119 468 -119 q 364 -131 397 -119 l 339 -107 l 358 -8 q 46 111 171 8 l 106 217 q 259 132 181 158 q 433 106 338 106 q 606 146 546 106 q 665 260 665 186 q 635 335 665 306 q 560 383 604 365 q 435 425 517 400 q 266 484 331 456 q 156 567 201 513 q 110 713 110 622 q 156 864 110 799 q 289 965 203 929 q 490 1000 375 1000 q 685 968 593 1000 q 840 878 778 936 l 781 772 q 642 856 717 828 q 488 883 567 883 q 315 840 376 883 q 254 722 254 797 z "},"Ŝ":{"ha":879,"x_min":46,"x_max":840,"o":"m 429 -11 q 46 111 197 -11 l 106 217 q 259 132 181 158 q 433 106 338 106 q 606 146 546 106 q 665 260 665 186 q 635 335 665 306 q 560 383 604 365 q 435 425 517 400 q 266 484 331 456 q 156 567 201 513 q 110 713 110 622 q 156 864 110 799 q 289 965 203 929 q 490 1000 375 1000 q 685 968 593 1000 q 840 878 778 936 l 781 772 q 642 856 717 828 q 488 883 567 883 q 315 840 376 883 q 254 722 254 797 q 286 639 254 672 q 365 587 318 606 q 497 543 413 568 q 661 487 599 514 q 767 408 724 460 q 811 272 811 356 q 709 65 811 140 q 429 -11 607 -11 m 282 1074 l 472 1288 l 558 1288 l 715 1074 l 597 1074 l 514 1211 l 401 1074 l 282 1074 z "},"Ș":{"ha":879,"x_min":46,"x_max":840,"o":"m 429 -11 q 46 111 197 -11 l 106 217 q 259 132 181 158 q 433 106 338 106 q 606 146 546 106 q 665 260 665 186 q 635 335 665 306 q 560 383 604 365 q 435 425 517 400 q 266 484 331 456 q 156 567 201 513 q 110 713 110 622 q 156 864 110 799 q 289 965 203 929 q 490 1000 375 1000 q 685 968 593 1000 q 840 878 778 936 l 781 772 q 642 856 717 828 q 488 883 567 883 q 315 840 376 883 q 254 722 254 797 q 286 639 254 672 q 365 587 318 606 q 497 543 413 568 q 661 487 599 514 q 767 408 724 460 q 811 272 811 356 q 709 65 811 140 q 429 -11 607 -11 m 486 -99 l 481 -182 q 455 -286 475 -242 q 390 -369 435 -331 l 336 -328 q 376 -278 363 -301 q 393 -226 389 -254 l 319 -226 l 329 -99 l 486 -99 z "},"Ṡ":{"ha":879,"x_min":46,"x_max":840,"o":"m 429 -11 q 46 111 197 -11 l 106 217 q 259 132 181 158 q 433 106 338 106 q 606 146 546 106 q 665 260 665 186 q 635 335 665 306 q 560 383 604 365 q 435 425 517 400 q 266 484 331 456 q 156 567 201 513 q 110 713 110 622 q 156 864 110 799 q 289 965 203 929 q 490 1000 375 1000 q 685 968 593 1000 q 840 878 778 936 l 781 772 q 642 856 717 828 q 488 883 567 883 q 315 840 376 883 q 254 722 254 797 q 286 639 254 672 q 365 587 318 606 q 497 543 413 568 q 661 487 599 514 q 767 408 724 460 q 811 272 811 356 q 709 65 811 140 q 429 -11 607 -11 m 594 1256 l 583 1107 l 421 1107 l 432 1256 l 594 1256 z "},"Ṣ":{"ha":879,"x_min":46,"x_max":840,"o":"m 429 -11 q 46 111 197 -11 l 106 217 q 259 132 181 158 q 433 106 338 106 q 606 146 546 106 q 665 260 665 186 q 635 335 665 306 q 560 383 604 365 q 435 425 517 400 q 266 484 331 456 q 156 567 201 513 q 110 713 110 622 q 156 864 110 799 q 289 965 203 929 q 490 1000 375 1000 q 685 968 593 1000 q 840 878 778 936 l 781 772 q 642 856 717 828 q 488 883 567 883 q 315 840 376 883 q 254 722 254 797 q 286 639 254 672 q 365 587 318 606 q 497 543 413 568 q 661 487 599 514 q 767 408 724 460 q 811 272 811 356 q 709 65 811 140 q 429 -11 607 -11 m 481 -121 l 469 -262 l 321 -262 l 333 -121 l 481 -121 z "},"Ṩ":{"ha":879,"x_min":46,"x_max":840,"o":"m 429 -11 q 46 111 197 -11 l 106 217 q 259 132 181 158 q 433 106 338 106 q 606 146 546 106 q 665 260 665 186 q 635 335 665 306 q 560 383 604 365 q 435 425 517 400 q 266 484 331 456 q 156 567 201 513 q 110 713 110 622 q 156 864 110 799 q 289 965 203 929 q 490 1000 375 1000 q 685 968 593 1000 q 840 878 778 936 l 781 772 q 642 856 717 828 q 488 883 567 883 q 315 840 376 883 q 254 722 254 797 q 286 639 254 672 q 365 587 318 606 q 497 543 413 568 q 661 487 599 514 q 767 408 724 460 q 811 272 811 356 q 709 65 811 140 q 429 -11 607 -11 m 481 -121 l 469 -262 l 321 -262 l 333 -121 l 481 -121 m 594 1256 l 583 1107 l 421 1107 l 432 1256 l 594 1256 z "},"ẞ":{"ha":975,"x_min":89,"x_max":897,"o":"m 708 515 q 848 437 799 496 q 897 286 897 378 q 856 134 897 201 q 741 28 815 67 q 572 -10 667 -10 q 314 78 426 -10 l 367 185 q 567 104 472 104 q 708 153 657 104 q 758 289 758 201 q 706 406 758 368 q 547 443 654 443 l 381 443 l 390 560 l 528 560 q 673 605 622 560 q 724 733 724 650 q 674 842 724 803 q 538 881 624 881 q 353 822 414 881 q 282 640 292 763 l 231 0 l 89 0 l 140 644 q 257 908 154 818 q 543 999 360 999 q 777 930 690 999 q 864 746 864 861 q 824 602 864 663 q 708 515 783 542 z "},"Ə":{"ha":1051,"x_min":92,"x_max":982,"o":"m 542 1000 q 775 944 675 1000 q 928 782 875 888 q 982 533 982 676 q 924 246 982 369 q 759 56 865 122 q 510 -11 653 -11 q 201 108 310 -11 q 92 433 92 228 q 94 501 92 454 l 100 560 l 836 560 q 749 797 829 714 q 526 881 669 881 q 365 855 439 881 q 221 772 292 829 l 178 878 q 339 969 246 938 q 542 1000 432 1000 m 513 106 q 728 196 646 107 q 831 443 811 285 l 236 443 q 300 194 228 283 q 513 106 372 106 z "},"T":{"ha":847,"x_min":58,"x_max":882,"o":"m 393 869 l 58 869 l 68 989 l 882 989 l 872 869 l 539 869 l 469 0 l 325 0 l 393 869 z "},"Ŧ":{"ha":847,"x_min":58,"x_max":882,"o":"m 539 869 l 514 557 l 711 557 l 701 444 l 506 444 l 469 0 l 325 0 l 360 444 l 163 444 l 172 557 l 368 557 l 393 869 l 58 869 l 68 989 l 882 989 l 872 869 l 539 869 z "},"Ť":{"ha":847,"x_min":58,"x_max":882,"o":"m 393 869 l 58 869 l 68 989 l 882 989 l 872 869 l 539 869 l 469 0 l 325 0 l 393 869 m 714 1288 l 524 1074 l 436 1074 l 281 1288 l 399 1288 l 489 1150 l 594 1288 l 714 1288 z "},"Ţ":{"ha":847,"x_min":58,"x_max":882,"o":"m 431 0 l 418 -58 q 440 -57 425 -57 q 518 -82 489 -57 q 547 -151 547 -107 q 502 -239 547 -206 q 376 -272 457 -272 q 308 -265 344 -272 q 246 -246 272 -258 l 268 -179 q 376 -199 326 -199 q 431 -187 411 -199 q 450 -154 450 -176 q 404 -119 450 -119 q 346 -131 379 -119 l 321 -107 l 342 0 l 325 0 l 393 869 l 58 869 l 68 989 l 882 989 l 872 869 l 539 869 l 469 0 l 431 0 z "},"Ț":{"ha":847,"x_min":58,"x_max":882,"o":"m 393 869 l 58 869 l 68 989 l 882 989 l 872 869 l 539 869 l 469 0 l 325 0 l 393 869 m 468 -99 l 463 -182 q 437 -286 457 -242 q 372 -369 417 -331 l 318 -328 q 358 -278 344 -301 q 375 -226 371 -254 l 301 -226 l 311 -99 l 468 -99 z "},"Ṭ":{"ha":847,"x_min":58,"x_max":882,"o":"m 393 869 l 58 869 l 68 989 l 882 989 l 872 869 l 539 869 l 469 0 l 325 0 l 393 869 m 463 -121 l 451 -262 l 303 -262 l 315 -121 l 463 -121 z "},"Ṯ":{"ha":847,"x_min":58,"x_max":882,"o":"m 393 869 l 58 869 l 68 989 l 882 989 l 872 869 l 539 869 l 469 0 l 325 0 l 393 869 m 174 -144 l 599 -144 l 592 -239 l 167 -239 l 174 -144 z "},"U":{"ha":1021,"x_min":111,"x_max":964,"o":"m 494 -11 q 208 81 304 -11 q 111 349 111 172 q 113 400 111 382 l 160 989 l 301 989 l 254 399 q 253 354 253 383 q 500 106 253 106 q 694 172 625 106 q 774 378 763 238 l 821 989 l 964 989 l 915 390 q 794 90 900 190 q 494 -11 688 -11 z "},"Ú":{"ha":1021,"x_min":111,"x_max":964,"o":"m 494 -11 q 208 81 304 -11 q 111 349 111 172 q 113 400 111 382 l 160 989 l 301 989 l 254 399 q 253 354 253 383 q 500 106 253 106 q 694 172 625 106 q 774 378 763 238 l 821 989 l 964 989 l 915 390 q 794 90 900 190 q 494 -11 688 -11 m 521 1074 l 676 1288 l 829 1288 l 614 1074 l 521 1074 z "},"Ŭ":{"ha":1021,"x_min":111,"x_max":964,"o":"m 494 -11 q 208 81 304 -11 q 111 349 111 172 q 113 400 111 382 l 160 989 l 301 989 l 254 399 q 253 354 253 383 q 500 106 253 106 q 694 172 625 106 q 774 378 763 238 l 821 989 l 964 989 l 915 390 q 794 90 900 190 q 494 -11 688 -11 m 574 1089 q 431 1128 493 1089 q 346 1239 369 1167 l 428 1272 q 490 1203 453 1224 q 578 1182 526 1182 q 667 1202 628 1182 q 739 1272 706 1222 l 815 1239 q 717 1126 781 1164 q 574 1089 654 1089 z "},"Û":{"ha":1021,"x_min":111,"x_max":964,"o":"m 494 -11 q 208 81 304 -11 q 111 349 111 172 q 113 400 111 382 l 160 989 l 301 989 l 254 399 q 253 354 253 383 q 500 106 253 106 q 694 172 625 106 q 774 378 763 238 l 821 989 l 964 989 l 915 390 q 794 90 900 190 q 494 -11 688 -11 m 351 1074 l 542 1288 l 628 1288 l 785 1074 l 667 1074 l 583 1211 l 471 1074 l 351 1074 z "},"Ȕ":{"ha":1021,"x_min":111,"x_max":964,"o":"m 494 -11 q 208 81 304 -11 q 111 349 111 172 q 113 400 111 382 l 160 989 l 301 989 l 254 399 q 253 354 253 383 q 500 106 253 106 q 694 172 625 106 q 774 378 763 238 l 821 989 l 964 989 l 915 390 q 794 90 900 190 q 494 -11 688 -11 m 325 1288 l 432 1288 l 518 1074 l 444 1074 l 325 1288 m 499 1288 l 607 1288 l 692 1074 l 618 1074 l 499 1288 z "},"Ü":{"ha":1021,"x_min":111,"x_max":964,"o":"m 494 -11 q 208 81 304 -11 q 111 349 111 172 q 113 400 111 382 l 160 989 l 301 989 l 254 399 q 253 354 253 383 q 500 106 253 106 q 694 172 625 106 q 774 378 763 238 l 821 989 l 964 989 l 915 390 q 794 90 900 190 q 494 -11 688 -11 m 531 1250 l 519 1113 l 375 1113 l 386 1250 l 531 1250 m 779 1250 l 768 1113 l 624 1113 l 633 1250 l 779 1250 z "},"Ụ":{"ha":1021,"x_min":111,"x_max":964,"o":"m 494 -11 q 208 81 304 -11 q 111 349 111 172 q 113 400 111 382 l 160 989 l 301 989 l 254 399 q 253 354 253 383 q 500 106 253 106 q 694 172 625 106 q 774 378 763 238 l 821 989 l 964 989 l 915 390 q 794 90 900 190 q 494 -11 688 -11 m 549 -121 l 538 -262 l 389 -262 l 401 -121 l 549 -121 z "},"Ù":{"ha":1021,"x_min":111,"x_max":964,"o":"m 494 -11 q 208 81 304 -11 q 111 349 111 172 q 113 400 111 382 l 160 989 l 301 989 l 254 399 q 253 354 253 383 q 500 106 253 106 q 694 172 625 106 q 774 378 763 238 l 821 989 l 964 989 l 915 390 q 794 90 900 190 q 494 -11 688 -11 m 350 1288 l 485 1288 l 614 1074 l 521 1074 l 350 1288 z "},"Ủ":{"ha":1021,"x_min":111,"x_max":964,"o":"m 494 -11 q 208 81 304 -11 q 111 349 111 172 q 113 400 111 382 l 160 989 l 301 989 l 254 399 q 253 354 253 383 q 500 106 253 106 q 694 172 625 106 q 774 378 763 238 l 821 989 l 964 989 l 915 390 q 794 90 900 190 q 494 -11 688 -11 m 610 1074 l 528 1074 l 529 1100 q 546 1137 531 1124 q 590 1165 561 1150 q 619 1182 610 1174 q 629 1200 629 1190 q 617 1216 629 1210 q 581 1222 604 1222 q 493 1206 539 1222 l 475 1271 q 594 1293 533 1293 q 694 1270 658 1293 q 731 1211 731 1247 q 712 1164 731 1181 q 660 1132 693 1147 q 623 1111 633 1119 q 611 1089 613 1103 l 610 1074 z "},"Ư":{"ha":1021,"x_min":111,"x_max":1139,"o":"m 1139 1163 l 1136 1121 q 1083 983 1129 1036 q 957 915 1038 929 l 915 390 q 794 90 900 190 q 494 -11 688 -11 q 208 81 304 -11 q 111 349 111 172 q 113 400 111 382 l 160 989 l 301 989 l 254 399 q 253 354 253 383 q 500 106 253 106 q 694 172 625 106 q 774 378 763 238 l 821 989 l 863 989 q 974 1024 939 990 q 1014 1140 1008 1058 l 1015 1163 l 1139 1163 z "},"Ứ":{"ha":1021,"x_min":111,"x_max":1139,"o":"m 1139 1163 l 1136 1121 q 1083 983 1129 1036 q 957 915 1038 929 l 915 390 q 794 90 900 190 q 494 -11 688 -11 q 208 81 304 -11 q 111 349 111 172 q 113 400 111 382 l 160 989 l 301 989 l 254 399 q 253 354 253 383 q 500 106 253 106 q 694 172 625 106 q 774 378 763 238 l 821 989 l 863 989 q 974 1024 939 990 q 1014 1140 1008 1058 l 1015 1163 l 1139 1163 m 521 1074 l 676 1288 l 829 1288 l 614 1074 l 521 1074 z "},"Ự":{"ha":1021,"x_min":111,"x_max":1139,"o":"m 1139 1163 l 1136 1121 q 1083 983 1129 1036 q 957 915 1038 929 l 915 390 q 794 90 900 190 q 494 -11 688 -11 q 208 81 304 -11 q 111 349 111 172 q 113 400 111 382 l 160 989 l 301 989 l 254 399 q 253 354 253 383 q 500 106 253 106 q 694 172 625 106 q 774 378 763 238 l 821 989 l 863 989 q 974 1024 939 990 q 1014 1140 1008 1058 l 1015 1163 l 1139 1163 m 549 -121 l 538 -262 l 389 -262 l 401 -121 l 549 -121 z "},"Ừ":{"ha":1021,"x_min":111,"x_max":1139,"o":"m 1139 1163 l 1136 1121 q 1083 983 1129 1036 q 957 915 1038 929 l 915 390 q 794 90 900 190 q 494 -11 688 -11 q 208 81 304 -11 q 111 349 111 172 q 113 400 111 382 l 160 989 l 301 989 l 254 399 q 253 354 253 383 q 500 106 253 106 q 694 172 625 106 q 774 378 763 238 l 821 989 l 863 989 q 974 1024 939 990 q 1014 1140 1008 1058 l 1015 1163 l 1139 1163 m 350 1288 l 485 1288 l 614 1074 l 521 1074 l 350 1288 z "},"Ử":{"ha":1021,"x_min":111,"x_max":1139,"o":"m 1139 1163 l 1136 1121 q 1083 983 1129 1036 q 957 915 1038 929 l 915 390 q 794 90 900 190 q 494 -11 688 -11 q 208 81 304 -11 q 111 349 111 172 q 113 400 111 382 l 160 989 l 301 989 l 254 399 q 253 354 253 383 q 500 106 253 106 q 694 172 625 106 q 774 378 763 238 l 821 989 l 863 989 q 974 1024 939 990 q 1014 1140 1008 1058 l 1015 1163 l 1139 1163 m 610 1074 l 528 1074 l 529 1100 q 546 1137 531 1124 q 590 1165 561 1150 q 619 1182 610 1174 q 629 1200 629 1190 q 617 1216 629 1210 q 581 1222 604 1222 q 493 1206 539 1222 l 475 1271 q 594 1293 533 1293 q 694 1270 658 1293 q 731 1211 731 1247 q 712 1164 731 1181 q 660 1132 693 1147 q 623 1111 633 1119 q 611 1089 613 1103 l 610 1074 z "},"Ữ":{"ha":1021,"x_min":111,"x_max":1139,"o":"m 1139 1163 l 1136 1121 q 1083 983 1129 1036 q 957 915 1038 929 l 915 390 q 794 90 900 190 q 494 -11 688 -11 q 208 81 304 -11 q 111 349 111 172 q 113 400 111 382 l 160 989 l 301 989 l 254 399 q 253 354 253 383 q 500 106 253 106 q 694 172 625 106 q 774 378 763 238 l 821 989 l 863 989 q 974 1024 939 990 q 1014 1140 1008 1058 l 1015 1163 l 1139 1163 m 339 1097 q 383 1227 343 1185 q 485 1269 424 1269 q 536 1258 513 1269 q 596 1225 560 1247 q 619 1212 601 1222 q 650 1197 636 1201 q 675 1192 664 1192 q 723 1211 704 1192 q 743 1265 742 1231 l 815 1265 q 769 1136 810 1179 q 668 1093 729 1093 q 617 1104 640 1093 q 557 1138 593 1115 q 511 1163 526 1156 q 479 1171 496 1171 q 431 1151 450 1171 q 410 1097 413 1132 l 339 1097 z "},"Ű":{"ha":1021,"x_min":111,"x_max":964,"o":"m 494 -11 q 208 81 304 -11 q 111 349 111 172 q 113 400 111 382 l 160 989 l 301 989 l 254 399 q 253 354 253 383 q 500 106 253 106 q 694 172 625 106 q 774 378 763 238 l 821 989 l 964 989 l 915 390 q 794 90 900 190 q 494 -11 688 -11 m 558 1288 l 674 1288 l 518 1074 l 444 1074 l 558 1288 m 733 1288 l 849 1288 l 692 1074 l 618 1074 l 733 1288 z "},"Ȗ":{"ha":1021,"x_min":111,"x_max":964,"o":"m 494 -11 q 208 81 304 -11 q 111 349 111 172 q 113 400 111 382 l 160 989 l 301 989 l 254 399 q 253 354 253 383 q 500 106 253 106 q 694 172 625 106 q 774 378 763 238 l 821 989 l 964 989 l 915 390 q 794 90 900 190 q 494 -11 688 -11 m 579 1274 q 722 1235 660 1274 q 807 1124 783 1196 l 725 1090 q 663 1160 700 1139 q 575 1181 625 1181 q 486 1160 525 1181 q 414 1090 447 1139 l 338 1124 q 435 1235 372 1197 q 579 1274 499 1274 z "},"Ū":{"ha":1021,"x_min":111,"x_max":964,"o":"m 494 -11 q 208 81 304 -11 q 111 349 111 172 q 113 400 111 382 l 160 989 l 301 989 l 254 399 q 253 354 253 383 q 500 106 253 106 q 694 172 625 106 q 774 378 763 238 l 821 989 l 964 989 l 915 390 q 794 90 900 190 q 494 -11 688 -11 m 368 1231 l 793 1231 l 786 1132 l 360 1132 l 368 1231 z "},"Ṻ":{"ha":1021,"x_min":111,"x_max":964,"o":"m 494 -11 q 208 81 304 -11 q 111 349 111 172 q 113 400 111 382 l 160 989 l 301 989 l 254 399 q 253 354 253 383 q 500 106 253 106 q 694 172 625 106 q 774 378 763 238 l 821 989 l 964 989 l 915 390 q 794 90 900 190 q 494 -11 688 -11 m 368 1231 l 793 1231 l 786 1132 l 360 1132 l 368 1231 m 549 1475 l 538 1338 l 393 1338 l 404 1475 l 549 1475 m 797 1475 l 786 1338 l 642 1338 l 651 1475 l 797 1475 z "},"Ų":{"ha":1021,"x_min":111,"x_max":964,"o":"m 964 989 l 915 390 q 638 4 892 72 q 554 -39 582 -12 q 526 -108 526 -65 q 548 -167 526 -146 q 607 -187 569 -187 q 690 -165 646 -187 l 707 -242 q 585 -272 650 -272 q 466 -233 510 -272 q 422 -131 422 -194 q 479 -11 422 -56 q 204 83 297 -8 q 111 349 111 175 q 113 400 111 382 l 160 989 l 301 989 l 254 399 q 253 354 253 383 q 500 106 253 106 q 694 172 625 106 q 774 378 763 238 l 821 989 l 964 989 z "},"Ů":{"ha":1021,"x_min":111,"x_max":964,"o":"m 494 -11 q 208 81 304 -11 q 111 349 111 172 q 113 400 111 382 l 160 989 l 301 989 l 254 399 q 253 354 253 383 q 500 106 253 106 q 694 172 625 106 q 774 378 763 238 l 821 989 l 964 989 l 915 390 q 794 90 900 190 q 494 -11 688 -11 m 578 1067 q 475 1108 517 1067 q 433 1208 433 1149 q 475 1310 433 1268 q 578 1351 517 1351 q 681 1310 639 1351 q 724 1208 724 1268 q 681 1108 724 1149 q 578 1067 639 1067 m 578 1140 q 625 1160 607 1140 q 643 1208 643 1179 q 625 1257 643 1238 q 578 1276 607 1276 q 531 1257 550 1276 q 513 1208 513 1238 q 531 1160 513 1179 q 578 1140 550 1140 z "},"Ũ":{"ha":1021,"x_min":111,"x_max":964,"o":"m 494 -11 q 208 81 304 -11 q 111 349 111 172 q 113 400 111 382 l 160 989 l 301 989 l 254 399 q 253 354 253 383 q 500 106 253 106 q 694 172 625 106 q 774 378 763 238 l 821 989 l 964 989 l 915 390 q 794 90 900 190 q 494 -11 688 -11 m 339 1097 q 383 1227 343 1185 q 485 1269 424 1269 q 536 1258 513 1269 q 596 1225 560 1247 q 619 1212 601 1222 q 650 1197 636 1201 q 675 1192 664 1192 q 723 1211 704 1192 q 743 1265 742 1231 l 815 1265 q 769 1136 810 1179 q 668 1093 729 1093 q 617 1104 640 1093 q 557 1138 593 1115 q 511 1163 526 1156 q 479 1171 496 1171 q 431 1151 450 1171 q 410 1097 413 1132 l 339 1097 z "},"Ṹ":{"ha":1021,"x_min":111,"x_max":964,"o":"m 494 -11 q 208 81 304 -11 q 111 349 111 172 q 113 400 111 382 l 160 989 l 301 989 l 254 399 q 253 354 253 383 q 500 106 253 106 q 694 172 625 106 q 774 378 763 238 l 821 989 l 964 989 l 915 390 q 794 90 900 190 q 494 -11 688 -11 m 339 1097 q 383 1227 343 1185 q 485 1269 424 1269 q 536 1258 513 1269 q 596 1225 560 1247 q 619 1212 601 1222 q 650 1197 636 1201 q 675 1192 664 1192 q 723 1211 704 1192 q 743 1265 742 1231 l 815 1265 q 769 1136 810 1179 q 668 1093 729 1093 q 617 1104 640 1093 q 557 1138 593 1115 q 511 1163 526 1156 q 479 1171 496 1171 q 431 1151 450 1171 q 410 1097 413 1132 l 339 1097 m 539 1299 l 694 1513 l 847 1513 l 632 1299 l 539 1299 z "},"V":{"ha":983,"x_min":46,"x_max":1039,"o":"m 1039 989 l 525 0 l 406 0 l 46 989 l 196 989 l 479 181 l 890 989 l 1039 989 z "},"W":{"ha":1550,"x_min":92,"x_max":1560,"o":"m 1560 989 l 1135 0 l 1015 0 l 808 764 l 481 0 l 361 0 l 92 989 l 236 989 l 440 203 l 775 989 l 881 988 l 1088 199 l 1419 989 l 1560 989 z "},"Ẃ":{"ha":1550,"x_min":92,"x_max":1560,"o":"m 1560 989 l 1135 0 l 1015 0 l 808 764 l 481 0 l 361 0 l 92 989 l 236 989 l 440 203 l 775 989 l 881 988 l 1088 199 l 1419 989 l 1560 989 m 785 1074 l 940 1288 l 1093 1288 l 878 1074 l 785 1074 z "},"Ŵ":{"ha":1550,"x_min":92,"x_max":1560,"o":"m 1560 989 l 1135 0 l 1015 0 l 808 764 l 481 0 l 361 0 l 92 989 l 236 989 l 440 203 l 775 989 l 881 988 l 1088 199 l 1419 989 l 1560 989 m 615 1074 l 806 1288 l 892 1288 l 1049 1074 l 931 1074 l 847 1211 l 735 1074 l 615 1074 z "},"Ẅ":{"ha":1550,"x_min":92,"x_max":1560,"o":"m 1560 989 l 1135 0 l 1015 0 l 808 764 l 481 0 l 361 0 l 92 989 l 236 989 l 440 203 l 775 989 l 881 988 l 1088 199 l 1419 989 l 1560 989 m 794 1250 l 783 1113 l 639 1113 l 650 1250 l 794 1250 m 1043 1250 l 1032 1113 l 888 1113 l 897 1250 l 1043 1250 z "},"Ẁ":{"ha":1550,"x_min":92,"x_max":1560,"o":"m 1560 989 l 1135 0 l 1015 0 l 808 764 l 481 0 l 361 0 l 92 989 l 236 989 l 440 203 l 775 989 l 881 988 l 1088 199 l 1419 989 l 1560 989 m 614 1288 l 749 1288 l 878 1074 l 785 1074 l 614 1288 z "},"X":{"ha":918,"x_min":-26,"x_max":953,"o":"m 553 503 l 890 0 l 724 0 l 464 394 l 144 0 l -26 0 l 390 507 l 67 989 l 233 989 l 479 614 l 781 989 l 953 989 l 553 503 z "},"Y":{"ha":857,"x_min":13,"x_max":944,"o":"m 504 397 l 474 0 l 329 0 l 360 397 l 13 989 l 174 989 l 439 514 l 778 989 l 944 989 l 504 397 z "},"Ý":{"ha":857,"x_min":13,"x_max":944,"o":"m 504 397 l 474 0 l 329 0 l 360 397 l 13 989 l 174 989 l 439 514 l 778 989 l 944 989 l 504 397 m 438 1074 l 593 1288 l 746 1288 l 531 1074 l 438 1074 z "},"Ŷ":{"ha":857,"x_min":13,"x_max":944,"o":"m 504 397 l 474 0 l 329 0 l 360 397 l 13 989 l 174 989 l 439 514 l 778 989 l 944 989 l 504 397 m 268 1074 l 458 1288 l 544 1288 l 701 1074 l 583 1074 l 500 1211 l 388 1074 l 268 1074 z "},"Ÿ":{"ha":857,"x_min":13,"x_max":944,"o":"m 504 397 l 474 0 l 329 0 l 360 397 l 13 989 l 174 989 l 439 514 l 778 989 l 944 989 l 504 397 m 447 1250 l 436 1113 l 292 1113 l 303 1250 l 447 1250 m 696 1250 l 685 1113 l 540 1113 l 550 1250 l 696 1250 z "},"Ẏ":{"ha":857,"x_min":13,"x_max":944,"o":"m 504 397 l 474 0 l 329 0 l 360 397 l 13 989 l 174 989 l 439 514 l 778 989 l 944 989 l 504 397 m 581 1256 l 569 1107 l 407 1107 l 418 1256 l 581 1256 z "},"Ỵ":{"ha":857,"x_min":13,"x_max":944,"o":"m 504 397 l 474 0 l 329 0 l 360 397 l 13 989 l 174 989 l 439 514 l 778 989 l 944 989 l 504 397 m 467 -121 l 456 -262 l 307 -262 l 319 -121 l 467 -121 z "},"Ỳ":{"ha":857,"x_min":13,"x_max":944,"o":"m 504 397 l 474 0 l 329 0 l 360 397 l 13 989 l 174 989 l 439 514 l 778 989 l 944 989 l 504 397 m 267 1288 l 401 1288 l 531 1074 l 438 1074 l 267 1288 z "},"Ỷ":{"ha":857,"x_min":13,"x_max":944,"o":"m 504 397 l 474 0 l 329 0 l 360 397 l 13 989 l 174 989 l 439 514 l 778 989 l 944 989 l 504 397 m 526 1074 l 444 1074 l 446 1100 q 463 1137 447 1124 q 507 1165 478 1150 q 536 1182 526 1174 q 546 1200 546 1190 q 533 1216 546 1210 q 497 1222 521 1222 q 410 1206 456 1222 l 392 1271 q 511 1293 450 1293 q 611 1270 575 1293 q 647 1211 647 1247 q 628 1164 647 1181 q 576 1132 610 1147 q 540 1111 550 1119 q 528 1089 529 1103 l 526 1074 z "},"Ȳ":{"ha":857,"x_min":13,"x_max":944,"o":"m 504 397 l 474 0 l 329 0 l 360 397 l 13 989 l 174 989 l 439 514 l 778 989 l 944 989 l 504 397 m 285 1231 l 710 1231 l 703 1132 l 276 1132 l 285 1231 z "},"Ỹ":{"ha":857,"x_min":13,"x_max":944,"o":"m 504 397 l 474 0 l 329 0 l 360 397 l 13 989 l 174 989 l 439 514 l 778 989 l 944 989 l 504 397 m 256 1097 q 300 1227 260 1185 q 401 1269 340 1269 q 453 1258 429 1269 q 513 1225 476 1247 q 535 1212 518 1222 q 567 1197 553 1201 q 592 1192 581 1192 q 640 1211 621 1192 q 660 1265 658 1231 l 732 1265 q 686 1136 726 1179 q 585 1093 646 1093 q 533 1104 557 1093 q 474 1138 510 1115 q 428 1163 443 1156 q 396 1171 413 1171 q 348 1151 367 1171 q 326 1097 329 1132 l 256 1097 z "},"Z":{"ha":835,"x_min":38,"x_max":821,"o":"m 813 885 l 217 118 l 767 118 l 758 0 l 38 0 l 46 106 l 642 871 l 107 871 l 117 989 l 821 989 l 813 885 z "},"Ź":{"ha":835,"x_min":38,"x_max":821,"o":"m 813 885 l 217 118 l 767 118 l 758 0 l 38 0 l 46 106 l 642 871 l 107 871 l 117 989 l 821 989 l 813 885 m 428 1074 l 583 1288 l 736 1288 l 521 1074 l 428 1074 z "},"Ž":{"ha":835,"x_min":38,"x_max":821,"o":"m 813 885 l 217 118 l 767 118 l 758 0 l 38 0 l 46 106 l 642 871 l 107 871 l 117 989 l 821 989 l 813 885 m 708 1288 l 518 1074 l 431 1074 l 275 1288 l 393 1288 l 483 1150 l 589 1288 l 708 1288 z "},"Ż":{"ha":835,"x_min":38,"x_max":821,"o":"m 813 885 l 217 118 l 767 118 l 758 0 l 38 0 l 46 106 l 642 871 l 107 871 l 117 989 l 821 989 l 813 885 m 571 1256 l 560 1107 l 397 1107 l 408 1256 l 571 1256 z "},"Ẓ":{"ha":835,"x_min":38,"x_max":821,"o":"m 813 885 l 217 118 l 767 118 l 758 0 l 38 0 l 46 106 l 642 871 l 107 871 l 117 989 l 821 989 l 813 885 m 460 -121 l 449 -262 l 300 -262 l 313 -121 l 460 -121 z "},"a":{"ha":846,"x_min":63,"x_max":771,"o":"m 771 700 l 715 0 l 578 0 l 586 107 q 492 21 553 51 q 360 -10 432 -10 q 203 31 271 -10 q 99 149 136 72 q 63 328 63 225 q 104 531 63 443 q 220 668 146 619 q 392 717 294 717 q 532 683 472 717 q 624 586 592 649 l 632 700 l 771 700 m 400 100 q 551 174 496 100 q 607 375 607 249 q 556 547 607 488 q 411 606 506 606 q 258 532 314 606 q 203 331 203 458 q 255 160 203 221 q 400 100 307 100 z "},"á":{"ha":846,"x_min":63,"x_max":771,"o":"m 771 700 l 715 0 l 578 0 l 586 107 q 492 21 553 51 q 360 -10 432 -10 q 203 31 271 -10 q 99 149 136 72 q 63 328 63 225 q 104 531 63 443 q 220 668 146 619 q 392 717 294 717 q 532 683 472 717 q 624 586 592 649 l 632 700 l 771 700 m 400 100 q 551 174 496 100 q 607 375 607 249 q 556 547 607 488 q 411 606 506 606 q 258 532 314 606 q 203 331 203 458 q 255 160 203 221 q 400 100 307 100 m 413 790 l 569 1075 l 728 1075 l 506 790 l 413 790 z "},"ă":{"ha":846,"x_min":63,"x_max":771,"o":"m 771 700 l 715 0 l 578 0 l 586 107 q 492 21 553 51 q 360 -10 432 -10 q 203 31 271 -10 q 99 149 136 72 q 63 328 63 225 q 104 531 63 443 q 220 668 146 619 q 392 717 294 717 q 532 683 472 717 q 624 586 592 649 l 632 700 l 771 700 m 400 100 q 551 174 496 100 q 607 375 607 249 q 556 547 607 488 q 411 606 506 606 q 258 532 314 606 q 203 331 203 458 q 255 160 203 221 q 400 100 307 100 m 465 829 q 323 876 385 829 q 236 1014 261 922 l 318 1047 q 472 926 365 926 q 639 1047 574 926 l 715 1014 q 615 874 682 919 q 465 829 547 829 z "},"ắ":{"ha":846,"x_min":63,"x_max":771,"o":"m 771 700 l 715 0 l 578 0 l 586 107 q 492 21 553 51 q 360 -10 432 -10 q 203 31 271 -10 q 99 149 136 72 q 63 328 63 225 q 104 531 63 443 q 220 668 146 619 q 392 717 294 717 q 532 683 472 717 q 624 586 592 649 l 632 700 l 771 700 m 400 100 q 551 174 496 100 q 607 375 607 249 q 556 547 607 488 q 411 606 506 606 q 258 532 314 606 q 203 331 203 458 q 255 160 203 221 q 400 100 307 100 m 426 936 l 576 1135 l 722 1135 l 514 936 l 426 936 m 463 783 q 321 821 381 783 q 235 933 261 858 l 307 963 q 374 890 333 911 q 469 868 414 868 q 638 963 578 868 l 704 933 q 605 820 668 857 q 463 783 542 783 z "},"ặ":{"ha":846,"x_min":63,"x_max":771,"o":"m 771 700 l 715 0 l 578 0 l 586 107 q 492 21 553 51 q 360 -10 432 -10 q 203 31 271 -10 q 99 149 136 72 q 63 328 63 225 q 104 531 63 443 q 220 668 146 619 q 392 717 294 717 q 532 683 472 717 q 624 586 592 649 l 632 700 l 771 700 m 400 100 q 551 174 496 100 q 607 375 607 249 q 556 547 607 488 q 411 606 506 606 q 258 532 314 606 q 203 331 203 458 q 255 160 203 221 q 400 100 307 100 m 463 -121 l 451 -262 l 303 -262 l 315 -121 l 463 -121 m 465 829 q 323 876 385 829 q 236 1014 261 922 l 318 1047 q 472 926 365 926 q 639 1047 574 926 l 715 1014 q 615 874 682 919 q 465 829 547 829 z "},"ằ":{"ha":846,"x_min":63,"x_max":771,"o":"m 771 700 l 715 0 l 578 0 l 586 107 q 492 21 553 51 q 360 -10 432 -10 q 203 31 271 -10 q 99 149 136 72 q 63 328 63 225 q 104 531 63 443 q 220 668 146 619 q 392 717 294 717 q 532 683 472 717 q 624 586 592 649 l 632 700 l 771 700 m 400 100 q 551 174 496 100 q 607 375 607 249 q 556 547 607 488 q 411 606 506 606 q 258 532 314 606 q 203 331 203 458 q 255 160 203 221 q 400 100 307 100 m 256 1135 l 385 1135 l 514 936 l 426 936 l 256 1135 m 463 783 q 321 821 381 783 q 235 933 261 858 l 307 963 q 374 890 333 911 q 469 868 414 868 q 638 963 578 868 l 704 933 q 605 820 668 857 q 463 783 542 783 z "},"ẳ":{"ha":846,"x_min":63,"x_max":771,"o":"m 771 700 l 715 0 l 578 0 l 586 107 q 492 21 553 51 q 360 -10 432 -10 q 203 31 271 -10 q 99 149 136 72 q 63 328 63 225 q 104 531 63 443 q 220 668 146 619 q 392 717 294 717 q 532 683 472 717 q 624 586 592 649 l 632 700 l 771 700 m 400 100 q 551 174 496 100 q 607 375 607 249 q 556 547 607 488 q 411 606 506 606 q 258 532 314 606 q 203 331 203 458 q 255 160 203 221 q 400 100 307 100 m 431 961 q 449 1000 432 986 q 496 1025 467 1014 q 523 1038 515 1033 q 531 1051 531 1043 q 518 1067 531 1061 q 486 1072 506 1072 q 393 1056 451 1072 l 376 1119 q 497 1142 432 1142 q 596 1119 560 1142 q 632 1063 632 1097 q 614 1018 632 1033 q 563 989 596 1003 q 526 971 539 979 q 513 949 514 963 l 511 936 l 429 936 l 431 961 m 463 783 q 321 821 381 783 q 235 933 261 858 l 307 963 q 374 890 333 911 q 469 868 414 868 q 638 963 578 868 l 704 933 q 605 820 668 857 q 463 783 542 783 z "},"ẵ":{"ha":846,"x_min":63,"x_max":771,"o":"m 771 700 l 715 0 l 578 0 l 586 107 q 492 21 553 51 q 360 -10 432 -10 q 203 31 271 -10 q 99 149 136 72 q 63 328 63 225 q 104 531 63 443 q 220 668 146 619 q 392 717 294 717 q 532 683 472 717 q 624 586 592 649 l 632 700 l 771 700 m 400 100 q 551 174 496 100 q 607 375 607 249 q 556 547 607 488 q 411 606 506 606 q 258 532 314 606 q 203 331 203 458 q 255 160 203 221 q 400 100 307 100 m 576 994 q 522 1004 547 994 q 463 1032 496 1014 q 416 1054 433 1047 q 381 1061 399 1061 q 335 1044 353 1061 q 315 999 317 1028 l 243 999 q 286 1106 246 1067 q 385 1144 326 1144 q 437 1135 413 1144 q 500 1108 461 1126 q 547 1086 529 1093 q 582 1079 564 1079 q 627 1094 610 1079 q 646 1140 644 1110 l 718 1140 q 674 1033 715 1072 q 576 994 633 994 m 463 783 q 321 821 381 783 q 235 933 261 858 l 307 963 q 374 890 333 911 q 469 868 414 868 q 638 963 578 868 l 704 933 q 605 820 668 857 q 463 783 542 783 z "},"ǎ":{"ha":846,"x_min":63,"x_max":771,"o":"m 771 700 l 715 0 l 578 0 l 586 107 q 492 21 553 51 q 360 -10 432 -10 q 203 31 271 -10 q 99 149 136 72 q 63 328 63 225 q 104 531 63 443 q 220 668 146 619 q 392 717 294 717 q 532 683 472 717 q 624 586 592 649 l 632 700 l 771 700 m 400 100 q 551 174 496 100 q 607 375 607 249 q 556 547 607 488 q 411 606 506 606 q 258 532 314 606 q 203 331 203 458 q 255 160 203 221 q 400 100 307 100 m 697 1075 l 504 790 l 413 790 l 265 1075 l 383 1075 l 465 883 l 574 1075 l 697 1075 z "},"â":{"ha":846,"x_min":63,"x_max":771,"o":"m 771 700 l 715 0 l 578 0 l 586 107 q 492 21 553 51 q 360 -10 432 -10 q 203 31 271 -10 q 99 149 136 72 q 63 328 63 225 q 104 531 63 443 q 220 668 146 619 q 392 717 294 717 q 532 683 472 717 q 624 586 592 649 l 632 700 l 771 700 m 400 100 q 551 174 496 100 q 607 375 607 249 q 556 547 607 488 q 411 606 506 606 q 258 532 314 606 q 203 331 203 458 q 255 160 203 221 q 400 100 307 100 m 242 790 l 435 1075 l 526 1075 l 675 790 l 557 790 l 475 979 l 365 790 l 242 790 z "},"ấ":{"ha":846,"x_min":63,"x_max":867,"o":"m 771 700 l 715 0 l 578 0 l 586 107 q 492 21 553 51 q 360 -10 432 -10 q 203 31 271 -10 q 99 149 136 72 q 63 328 63 225 q 104 531 63 443 q 220 668 146 619 q 392 717 294 717 q 532 683 472 717 q 624 586 592 649 l 632 700 l 771 700 m 400 100 q 551 174 496 100 q 607 375 607 249 q 556 547 607 488 q 411 606 506 606 q 258 532 314 606 q 203 331 203 458 q 255 160 203 221 q 400 100 307 100 m 593 936 l 725 1135 l 867 1135 l 671 936 l 593 936 m 242 790 l 431 993 l 518 993 l 675 790 l 560 790 l 472 918 l 361 790 l 242 790 z "},"ậ":{"ha":846,"x_min":63,"x_max":771,"o":"m 771 700 l 715 0 l 578 0 l 586 107 q 492 21 553 51 q 360 -10 432 -10 q 203 31 271 -10 q 99 149 136 72 q 63 328 63 225 q 104 531 63 443 q 220 668 146 619 q 392 717 294 717 q 532 683 472 717 q 624 586 592 649 l 632 700 l 771 700 m 400 100 q 551 174 496 100 q 607 375 607 249 q 556 547 607 488 q 411 606 506 606 q 258 532 314 606 q 203 331 203 458 q 255 160 203 221 q 400 100 307 100 m 463 -121 l 451 -262 l 303 -262 l 315 -121 l 463 -121 m 242 790 l 435 1075 l 526 1075 l 675 790 l 557 790 l 475 979 l 365 790 l 242 790 z "},"ầ":{"ha":846,"x_min":63,"x_max":771,"o":"m 771 700 l 715 0 l 578 0 l 586 107 q 492 21 553 51 q 360 -10 432 -10 q 203 31 271 -10 q 99 149 136 72 q 63 328 63 225 q 104 531 63 443 q 220 668 146 619 q 392 717 294 717 q 532 683 472 717 q 624 586 592 649 l 632 700 l 771 700 m 400 100 q 551 174 496 100 q 607 375 607 249 q 556 547 607 488 q 411 606 506 606 q 258 532 314 606 q 203 331 203 458 q 255 160 203 221 q 400 100 307 100 m 510 1135 l 638 1135 l 731 936 l 651 936 l 510 1135 m 431 993 l 518 993 l 675 790 l 560 790 l 472 918 l 361 790 l 242 790 l 431 993 z "},"ẩ":{"ha":846,"x_min":63,"x_max":794,"o":"m 771 700 l 715 0 l 578 0 l 586 107 q 492 21 553 51 q 360 -10 432 -10 q 203 31 271 -10 q 99 149 136 72 q 63 328 63 225 q 104 531 63 443 q 220 668 146 619 q 392 717 294 717 q 532 683 472 717 q 624 586 592 649 l 632 700 l 771 700 m 400 100 q 551 174 496 100 q 607 375 607 249 q 556 547 607 488 q 411 606 506 606 q 258 532 314 606 q 203 331 203 458 q 255 160 203 221 q 400 100 307 100 m 593 961 q 612 1000 594 986 q 658 1025 629 1014 q 685 1038 678 1033 q 693 1051 693 1043 q 681 1067 693 1061 q 649 1072 668 1072 q 556 1056 611 1072 l 539 1119 q 660 1142 594 1142 q 758 1119 722 1142 q 794 1063 794 1097 q 776 1018 794 1033 q 725 989 758 1003 q 689 971 701 979 q 675 949 676 963 l 674 936 l 592 936 l 593 961 m 431 993 l 518 993 l 675 790 l 560 790 l 472 918 l 361 790 l 242 790 l 431 993 z "},"ẫ":{"ha":846,"x_min":63,"x_max":771,"o":"m 771 700 l 715 0 l 578 0 l 586 107 q 492 21 553 51 q 360 -10 432 -10 q 203 31 271 -10 q 99 149 136 72 q 63 328 63 225 q 104 531 63 443 q 220 668 146 619 q 392 717 294 717 q 532 683 472 717 q 624 586 592 649 l 632 700 l 771 700 m 400 100 q 551 174 496 100 q 607 375 607 249 q 556 547 607 488 q 411 606 506 606 q 258 532 314 606 q 203 331 203 458 q 255 160 203 221 q 400 100 307 100 m 244 1015 q 288 1117 247 1079 q 386 1156 329 1156 q 442 1147 415 1156 q 501 1124 468 1139 q 547 1106 529 1111 q 583 1100 565 1100 q 628 1115 611 1100 q 647 1156 646 1129 l 719 1156 q 676 1053 717 1092 q 578 1015 635 1015 q 524 1024 549 1015 q 463 1047 499 1032 q 417 1066 435 1060 q 381 1072 399 1072 q 337 1056 354 1072 q 317 1015 319 1040 l 244 1015 m 431 993 l 518 993 l 675 790 l 560 790 l 472 918 l 361 790 l 242 790 l 431 993 z "},"ȁ":{"ha":846,"x_min":63,"x_max":771,"o":"m 771 700 l 715 0 l 578 0 l 586 107 q 492 21 553 51 q 360 -10 432 -10 q 203 31 271 -10 q 99 149 136 72 q 63 328 63 225 q 104 531 63 443 q 220 668 146 619 q 392 717 294 717 q 532 683 472 717 q 624 586 592 649 l 632 700 l 771 700 m 400 100 q 551 174 496 100 q 607 375 607 249 q 556 547 607 488 q 411 606 506 606 q 258 532 314 606 q 203 331 203 458 q 255 160 203 221 q 400 100 307 100 m 251 1075 l 365 1075 l 403 790 l 338 790 l 251 1075 m 429 1075 l 542 1075 l 581 790 l 514 790 l 429 1075 z "},"ä":{"ha":846,"x_min":63,"x_max":771,"o":"m 771 700 l 715 0 l 578 0 l 586 107 q 492 21 553 51 q 360 -10 432 -10 q 203 31 271 -10 q 99 149 136 72 q 63 328 63 225 q 104 531 63 443 q 220 668 146 619 q 392 717 294 717 q 532 683 472 717 q 624 586 592 649 l 632 700 l 771 700 m 400 100 q 551 174 496 100 q 607 375 607 249 q 556 547 607 488 q 411 606 506 606 q 258 532 314 606 q 203 331 203 458 q 255 160 203 221 q 400 100 307 100 m 424 1001 l 413 863 l 268 863 l 279 1001 l 424 1001 m 672 1001 l 660 863 l 517 863 l 526 1001 l 672 1001 z "},"ȧ":{"ha":846,"x_min":63,"x_max":771,"o":"m 771 700 l 715 0 l 578 0 l 586 107 q 492 21 553 51 q 360 -10 432 -10 q 203 31 271 -10 q 99 149 136 72 q 63 328 63 225 q 104 531 63 443 q 220 668 146 619 q 392 717 294 717 q 532 683 472 717 q 624 586 592 649 l 632 700 l 771 700 m 400 100 q 551 174 496 100 q 607 375 607 249 q 556 547 607 488 q 411 606 506 606 q 258 532 314 606 q 203 331 203 458 q 255 160 203 221 q 400 100 307 100 m 557 1006 l 546 858 l 382 858 l 393 1006 l 557 1006 z "},"ạ":{"ha":846,"x_min":63,"x_max":771,"o":"m 771 700 l 715 0 l 578 0 l 586 107 q 492 21 553 51 q 360 -10 432 -10 q 203 31 271 -10 q 99 149 136 72 q 63 328 63 225 q 104 531 63 443 q 220 668 146 619 q 392 717 294 717 q 532 683 472 717 q 624 586 592 649 l 632 700 l 771 700 m 400 100 q 551 174 496 100 q 607 375 607 249 q 556 547 607 488 q 411 606 506 606 q 258 532 314 606 q 203 331 203 458 q 255 160 203 221 q 400 100 307 100 m 463 -121 l 451 -262 l 303 -262 l 315 -121 l 463 -121 z "},"à":{"ha":846,"x_min":63,"x_max":771,"o":"m 771 700 l 715 0 l 578 0 l 586 107 q 492 21 553 51 q 360 -10 432 -10 q 203 31 271 -10 q 99 149 136 72 q 63 328 63 225 q 104 531 63 443 q 220 668 146 619 q 392 717 294 717 q 532 683 472 717 q 624 586 592 649 l 632 700 l 771 700 m 400 100 q 551 174 496 100 q 607 375 607 249 q 556 547 607 488 q 411 606 506 606 q 258 532 314 606 q 203 331 203 458 q 255 160 203 221 q 400 100 307 100 m 242 1075 l 385 1075 l 506 790 l 413 790 l 242 1075 z "},"ả":{"ha":846,"x_min":63,"x_max":771,"o":"m 771 700 l 715 0 l 578 0 l 586 107 q 492 21 553 51 q 360 -10 432 -10 q 203 31 271 -10 q 99 149 136 72 q 63 328 63 225 q 104 531 63 443 q 220 668 146 619 q 392 717 294 717 q 532 683 472 717 q 624 586 592 649 l 632 700 l 771 700 m 400 100 q 551 174 496 100 q 607 375 607 249 q 556 547 607 488 q 411 606 506 606 q 258 532 314 606 q 203 331 203 458 q 255 160 203 221 q 400 100 307 100 m 503 790 l 419 790 l 422 826 q 441 876 425 856 q 483 919 457 897 q 498 933 486 922 q 515 952 510 943 q 521 971 521 961 q 469 1003 521 1003 q 389 988 435 1003 l 371 1057 q 492 1079 422 1079 q 590 1053 553 1079 q 626 986 626 1026 q 609 931 626 953 q 560 886 592 910 q 519 851 532 865 q 504 815 506 836 l 503 790 z "},"ȃ":{"ha":846,"x_min":63,"x_max":771,"o":"m 771 700 l 715 0 l 578 0 l 586 107 q 492 21 553 51 q 360 -10 432 -10 q 203 31 271 -10 q 99 149 136 72 q 63 328 63 225 q 104 531 63 443 q 220 668 146 619 q 392 717 294 717 q 532 683 472 717 q 624 586 592 649 l 632 700 l 771 700 m 400 100 q 551 174 496 100 q 607 375 607 249 q 556 547 607 488 q 411 606 506 606 q 258 532 314 606 q 203 331 203 458 q 255 160 203 221 q 400 100 307 100 m 475 1043 q 617 997 556 1043 q 703 860 679 950 l 622 826 q 468 947 575 947 q 377 919 418 947 q 301 826 336 892 l 224 858 q 326 998 258 953 q 475 1043 393 1043 z "},"ā":{"ha":846,"x_min":63,"x_max":771,"o":"m 771 700 l 715 0 l 578 0 l 586 107 q 492 21 553 51 q 360 -10 432 -10 q 203 31 271 -10 q 99 149 136 72 q 63 328 63 225 q 104 531 63 443 q 220 668 146 619 q 392 717 294 717 q 532 683 472 717 q 624 586 592 649 l 632 700 l 771 700 m 400 100 q 551 174 496 100 q 607 375 607 249 q 556 547 607 488 q 411 606 506 606 q 258 532 314 606 q 203 331 203 458 q 255 160 203 221 q 400 100 307 100 m 261 981 l 686 981 l 678 882 l 253 882 l 261 981 z "},"ą":{"ha":846,"x_min":61,"x_max":769,"o":"m 654 -193 q 740 -169 694 -193 l 758 -247 q 633 -278 701 -278 q 514 -237 560 -278 q 468 -133 468 -197 q 497 -37 468 -79 q 579 29 526 4 l 585 106 q 490 21 550 51 q 360 -10 431 -10 q 203 31 271 -10 q 99 149 136 72 q 61 328 61 225 q 103 531 61 443 q 219 668 144 619 q 392 717 294 717 q 532 683 472 717 q 624 585 592 649 l 632 700 l 769 700 l 714 0 l 696 0 q 608 -31 643 0 q 572 -111 572 -61 q 594 -172 572 -151 q 654 -193 615 -193 m 400 104 q 549 177 494 104 q 603 375 603 250 q 553 543 603 485 q 411 601 504 601 q 261 529 315 601 q 207 331 207 457 q 257 163 207 222 q 400 104 307 104 z "},"å":{"ha":846,"x_min":63,"x_max":771,"o":"m 771 700 l 715 0 l 578 0 l 586 107 q 492 21 553 51 q 360 -10 432 -10 q 203 31 271 -10 q 99 149 136 72 q 63 328 63 225 q 104 531 63 443 q 220 668 146 619 q 392 717 294 717 q 532 683 472 717 q 624 586 592 649 l 632 700 l 771 700 m 400 100 q 551 174 496 100 q 607 375 607 249 q 556 547 607 488 q 411 606 506 606 q 258 532 314 606 q 203 331 203 458 q 255 160 203 221 q 400 100 307 100 m 469 790 q 367 831 408 790 q 325 933 325 872 q 367 1034 325 993 q 469 1075 408 1075 q 573 1034 531 1075 q 615 933 615 993 q 573 831 615 872 q 469 790 531 790 m 469 864 q 517 883 499 864 q 535 933 535 903 q 517 981 535 963 q 469 1000 499 1000 q 423 981 442 1000 q 404 933 404 961 q 423 883 404 903 q 469 864 442 864 z "},"ǻ":{"ha":846,"x_min":61,"x_max":818,"o":"m 464 793 q 364 833 406 793 q 322 932 322 874 q 367 1039 322 994 q 474 1083 411 1083 q 549 1064 514 1083 l 668 1222 l 818 1217 l 603 1008 q 618 946 618 981 q 573 838 618 882 q 464 793 528 793 m 403 936 q 422 888 403 908 q 467 868 440 868 q 517 890 497 868 q 538 942 538 911 q 519 989 538 969 q 471 1008 500 1008 q 422 988 442 1008 q 403 936 403 967 m 632 700 l 769 700 l 714 0 l 576 0 l 585 106 q 490 21 550 51 q 360 -10 431 -10 q 203 31 271 -10 q 99 149 136 72 q 61 328 61 225 q 103 531 61 443 q 219 668 144 619 q 392 717 294 717 q 532 683 472 717 q 624 585 592 649 l 632 700 m 400 100 q 551 174 496 100 q 606 375 606 249 q 556 547 606 488 q 411 606 506 606 q 258 532 314 606 q 203 331 203 458 q 254 160 203 221 q 400 100 306 100 z "},"ã":{"ha":846,"x_min":63,"x_max":771,"o":"m 771 700 l 715 0 l 578 0 l 586 107 q 492 21 553 51 q 360 -10 432 -10 q 203 31 271 -10 q 99 149 136 72 q 63 328 63 225 q 104 531 63 443 q 220 668 146 619 q 392 717 294 717 q 532 683 472 717 q 624 586 592 649 l 632 700 l 771 700 m 400 100 q 551 174 496 100 q 607 375 607 249 q 556 547 607 488 q 411 606 506 606 q 258 532 314 606 q 203 331 203 458 q 255 160 203 221 q 400 100 307 100 m 232 850 q 276 979 236 936 q 375 1022 315 1022 q 429 1011 404 1022 q 489 978 454 1000 q 535 951 518 960 q 569 943 553 943 q 617 963 599 943 q 638 1018 635 982 l 707 1018 q 664 889 703 932 q 565 846 625 846 q 513 857 538 846 q 450 890 488 868 q 406 915 424 907 q 372 924 389 924 q 324 904 343 924 q 303 850 306 885 l 232 850 z "},"æ":{"ha":1218,"x_min":67,"x_max":1164,"o":"m 669 347 l 669 329 q 723 160 669 219 q 879 100 776 100 q 989 119 933 100 q 1093 178 1044 139 l 1128 79 q 1013 15 1085 39 q 872 -10 942 -10 q 694 34 768 -10 q 585 157 621 78 q 476 34 547 78 q 313 -10 404 -10 q 135 47 203 -10 q 67 196 67 104 q 161 374 67 317 q 471 431 256 431 l 540 431 l 542 444 q 543 472 543 454 q 508 573 543 540 q 401 606 474 606 q 164 532 282 606 l 128 632 q 262 694 182 671 q 419 717 342 717 q 640 610 583 717 q 745 689 683 661 q 882 717 807 717 q 1087 636 1010 717 q 1164 410 1164 556 q 1160 347 1164 381 l 669 347 m 882 614 q 749 567 800 614 q 679 431 697 519 l 1043 431 q 999 567 1043 519 q 882 614 956 614 m 336 94 q 469 151 414 94 q 531 294 524 207 l 535 349 l 476 349 q 312 333 371 349 q 229 288 253 318 q 206 208 206 257 q 241 126 206 157 q 336 94 276 94 z "},"ǽ":{"ha":1218,"x_min":67,"x_max":1164,"o":"m 669 347 l 669 329 q 723 160 669 219 q 879 100 776 100 q 989 119 933 100 q 1093 178 1044 139 l 1128 79 q 1013 15 1085 39 q 872 -10 942 -10 q 694 34 768 -10 q 585 157 621 78 q 476 34 547 78 q 313 -10 404 -10 q 135 47 203 -10 q 67 196 67 104 q 161 374 67 317 q 471 431 256 431 l 540 431 l 542 444 q 543 472 543 454 q 508 573 543 540 q 401 606 474 606 q 164 532 282 606 l 128 632 q 262 694 182 671 q 419 717 342 717 q 640 610 583 717 q 745 689 683 661 q 882 717 807 717 q 1087 636 1010 717 q 1164 410 1164 556 q 1160 347 1164 381 l 669 347 m 882 614 q 749 567 800 614 q 679 431 697 519 l 1043 431 q 999 567 1043 519 q 882 614 956 614 m 336 94 q 469 151 414 94 q 531 294 524 207 l 535 349 l 476 349 q 312 333 371 349 q 229 288 253 318 q 206 208 206 257 q 241 126 206 157 q 336 94 276 94 m 590 790 l 747 1075 l 906 1075 l 683 790 l 590 790 z "},"b":{"ha":846,"x_min":75,"x_max":786,"o":"m 488 717 q 643 676 575 717 q 749 558 711 635 q 786 379 786 482 q 744 176 786 264 q 628 39 703 88 q 456 -10 553 -10 q 315 24 375 -10 q 224 121 254 58 l 214 0 l 75 0 l 157 1022 l 296 1022 l 261 601 q 356 686 296 656 q 488 717 417 717 m 438 100 q 590 174 535 100 q 644 375 644 247 q 593 545 644 485 q 449 606 542 606 q 296 532 351 606 q 240 331 240 458 q 291 159 240 218 q 438 100 342 100 z "},"c":{"ha":693,"x_min":61,"x_max":686,"o":"m 397 -10 q 219 32 296 -10 q 102 151 143 74 q 61 329 61 228 q 106 535 61 447 q 233 669 150 622 q 426 717 315 717 q 572 693 506 717 q 686 626 638 669 l 635 526 q 533 585 582 565 q 429 604 483 604 q 264 531 322 604 q 206 328 206 458 q 259 161 206 221 q 408 101 313 101 q 509 120 463 101 q 607 179 556 139 l 643 79 q 533 14 597 38 q 397 -10 468 -10 z "},"ć":{"ha":693,"x_min":61,"x_max":711,"o":"m 397 -10 q 219 32 296 -10 q 102 151 143 74 q 61 329 61 228 q 106 535 61 447 q 233 669 150 622 q 426 717 315 717 q 572 693 506 717 q 686 626 638 669 l 635 526 q 533 585 582 565 q 429 604 483 604 q 264 531 322 604 q 206 328 206 458 q 259 161 206 221 q 408 101 313 101 q 509 120 463 101 q 607 179 556 139 l 643 79 q 533 14 597 38 q 397 -10 468 -10 m 396 790 l 553 1075 l 711 1075 l 489 790 l 396 790 z "},"č":{"ha":693,"x_min":61,"x_max":686,"o":"m 397 -10 q 219 32 296 -10 q 102 151 143 74 q 61 329 61 228 q 106 535 61 447 q 233 669 150 622 q 426 717 315 717 q 572 693 506 717 q 686 626 638 669 l 635 526 q 533 585 582 565 q 429 604 483 604 q 264 531 322 604 q 206 328 206 458 q 259 161 206 221 q 408 101 313 101 q 509 120 463 101 q 607 179 556 139 l 643 79 q 533 14 597 38 q 397 -10 468 -10 m 681 1075 l 488 790 l 396 790 l 249 1075 l 367 1075 l 449 883 l 557 1075 l 681 1075 z "},"ç":{"ha":693,"x_min":61,"x_max":686,"o":"m 643 79 q 535 15 599 39 q 403 -10 472 -8 l 393 -58 q 415 -57 400 -57 q 493 -82 464 -57 q 522 -151 522 -107 q 477 -239 522 -206 q 351 -272 432 -272 q 283 -265 319 -272 q 221 -246 247 -258 l 243 -179 q 351 -199 301 -199 q 406 -187 386 -199 q 425 -154 425 -176 q 379 -119 425 -119 q 321 -131 354 -119 l 296 -107 l 317 -3 q 129 109 197 21 q 61 329 61 197 q 106 535 61 447 q 233 669 150 622 q 426 717 315 717 q 572 693 506 717 q 686 626 638 669 l 635 526 q 533 585 582 565 q 429 604 483 604 q 264 531 322 604 q 206 328 206 458 q 259 161 206 221 q 408 101 313 101 q 509 120 463 101 q 607 179 556 139 l 643 79 z "},"ḉ":{"ha":693,"x_min":61,"x_max":711,"o":"m 489 790 l 396 790 l 553 1075 l 711 1075 l 489 790 m 429 604 q 264 531 322 604 q 206 328 206 458 q 259 161 206 221 q 408 101 313 101 q 509 120 463 101 q 607 179 556 139 l 643 79 q 535 15 599 39 q 403 -10 472 -8 l 393 -58 q 415 -57 400 -57 q 493 -82 464 -57 q 522 -151 522 -107 q 477 -239 522 -206 q 351 -272 432 -272 q 283 -265 319 -272 q 221 -246 247 -258 l 243 -179 q 351 -199 301 -199 q 406 -187 386 -199 q 425 -154 425 -176 q 379 -119 425 -119 q 321 -131 354 -119 l 296 -107 l 317 -3 q 129 109 197 21 q 61 329 61 197 q 106 535 61 447 q 233 669 150 622 q 426 717 315 717 q 572 693 506 717 q 686 626 638 669 l 635 526 q 533 585 582 565 q 429 604 483 604 z "},"ĉ":{"ha":693,"x_min":61,"x_max":686,"o":"m 397 -10 q 219 32 296 -10 q 102 151 143 74 q 61 329 61 228 q 106 535 61 447 q 233 669 150 622 q 426 717 315 717 q 572 693 506 717 q 686 626 638 669 l 635 526 q 533 585 582 565 q 429 604 483 604 q 264 531 322 604 q 206 328 206 458 q 259 161 206 221 q 408 101 313 101 q 509 120 463 101 q 607 179 556 139 l 643 79 q 533 14 597 38 q 397 -10 468 -10 m 225 790 l 418 1075 l 510 1075 l 658 790 l 540 790 l 458 979 l 349 790 l 225 790 z "},"ċ":{"ha":693,"x_min":61,"x_max":686,"o":"m 397 -10 q 219 32 296 -10 q 102 151 143 74 q 61 329 61 228 q 106 535 61 447 q 233 669 150 622 q 426 717 315 717 q 572 693 506 717 q 686 626 638 669 l 635 526 q 533 585 582 565 q 429 604 483 604 q 264 531 322 604 q 206 328 206 458 q 259 161 206 221 q 408 101 313 101 q 509 120 463 101 q 607 179 556 139 l 643 79 q 533 14 597 38 q 397 -10 468 -10 m 540 1006 l 529 858 l 365 858 l 376 1006 l 540 1006 z "},"d":{"ha":846,"x_min":61,"x_max":796,"o":"m 796 1022 l 714 0 l 576 0 l 585 104 q 490 20 550 50 q 360 -10 431 -10 q 203 31 271 -10 q 99 149 136 72 q 61 326 61 225 q 103 531 61 442 q 219 668 144 619 q 392 717 294 717 q 532 683 472 717 q 622 588 592 650 l 656 1022 l 796 1022 m 400 100 q 551 174 496 100 q 606 375 606 249 q 556 547 606 488 q 411 606 506 606 q 258 533 314 606 q 203 332 203 460 q 254 161 203 222 q 400 100 306 100 z "},"ð":{"ha":814,"x_min":60,"x_max":789,"o":"m 644 833 q 760 460 760 682 q 661 106 760 221 q 394 -10 563 -10 q 217 28 293 -10 q 101 138 142 67 q 60 303 60 208 q 103 487 60 407 q 224 610 147 567 q 400 653 301 653 q 535 626 476 653 q 628 549 593 600 q 519 792 611 692 l 281 714 l 261 796 l 447 856 q 268 936 367 913 l 308 1035 q 582 900 476 997 l 771 961 l 789 881 l 644 833 m 396 101 q 550 167 496 101 q 604 347 604 233 q 553 490 604 438 q 410 542 501 542 q 255 476 310 542 q 200 301 200 411 q 251 154 200 207 q 396 101 301 101 z "},"ď":{"ha":846,"x_min":61,"x_max":936,"o":"m 656 1022 l 796 1022 l 714 0 l 576 0 l 585 104 q 490 20 550 50 q 360 -10 431 -10 q 203 31 271 -10 q 99 149 136 72 q 61 326 61 225 q 103 531 61 442 q 219 668 144 619 q 392 717 294 717 q 532 683 472 717 q 622 588 592 650 l 656 1022 m 936 1022 l 879 749 l 819 749 l 840 1022 l 936 1022 m 400 100 q 551 174 496 100 q 606 375 606 249 q 556 547 606 488 q 411 606 506 606 q 258 533 314 606 q 203 332 203 460 q 254 161 203 222 q 400 100 306 100 z "},"đ":{"ha":846,"x_min":63,"x_max":918,"o":"m 910 800 l 779 800 l 717 0 l 579 0 l 588 107 q 492 22 553 53 q 361 -10 432 -10 q 205 32 272 -10 q 100 151 138 74 q 63 335 63 229 q 104 531 63 444 q 222 667 146 618 q 393 717 297 717 q 533 683 474 717 q 624 588 593 650 l 639 800 l 367 800 l 374 903 l 647 903 l 657 1022 l 797 1022 l 788 903 l 918 903 l 910 800 m 401 100 q 553 174 499 100 q 607 382 607 249 q 557 549 607 492 q 411 606 507 606 q 260 532 315 606 q 204 331 204 458 q 256 160 204 219 q 401 100 308 100 z "},"ḍ":{"ha":846,"x_min":61,"x_max":796,"o":"m 796 1022 l 714 0 l 576 0 l 585 104 q 490 20 550 50 q 360 -10 431 -10 q 203 31 271 -10 q 99 149 136 72 q 61 326 61 225 q 103 531 61 442 q 219 668 144 619 q 392 717 294 717 q 532 683 472 717 q 622 588 592 650 l 656 1022 l 796 1022 m 400 100 q 551 174 496 100 q 606 375 606 249 q 556 547 606 488 q 411 606 506 606 q 258 533 314 606 q 203 332 203 460 q 254 161 203 222 q 400 100 306 100 m 464 -121 l 453 -262 l 304 -262 l 317 -121 l 464 -121 z "},"ḏ":{"ha":846,"x_min":61,"x_max":796,"o":"m 796 1022 l 714 0 l 576 0 l 585 104 q 490 20 550 50 q 360 -10 431 -10 q 203 31 271 -10 q 99 149 136 72 q 61 326 61 225 q 103 531 61 442 q 219 668 144 619 q 392 717 294 717 q 532 683 472 717 q 622 588 592 650 l 656 1022 l 796 1022 m 400 100 q 551 174 496 100 q 606 375 606 249 q 556 547 606 488 q 411 606 506 606 q 258 533 314 606 q 203 332 203 460 q 254 161 203 222 q 400 100 306 100 m 175 -144 l 600 -144 l 593 -239 l 168 -239 l 175 -144 z "},"ǆ":{"ha":1571,"x_min":61,"x_max":1526,"o":"m 796 1022 l 714 0 l 576 0 l 585 104 q 490 20 550 50 q 360 -10 431 -10 q 203 31 271 -10 q 99 149 136 72 q 61 326 61 225 q 103 531 61 442 q 219 668 144 619 q 392 717 294 717 q 532 683 472 717 q 622 588 592 650 l 656 1022 l 796 1022 m 400 100 q 551 174 496 100 q 606 375 606 249 q 556 547 606 488 q 411 606 506 606 q 258 533 314 606 q 203 332 203 460 q 254 161 203 222 q 400 100 306 100 m 1518 603 l 1068 107 l 1494 107 l 1486 0 l 888 0 l 894 97 l 1344 592 l 946 592 l 954 700 l 1526 700 l 1518 603 m 1489 1075 l 1296 790 l 1204 790 l 1057 1075 l 1175 1075 l 1257 883 l 1365 1075 l 1489 1075 z "},"e":{"ha":758,"x_min":61,"x_max":704,"o":"m 200 347 l 200 329 q 253 160 200 219 q 410 100 307 100 q 633 178 535 100 l 669 79 q 552 14 625 38 q 403 -10 479 -10 q 222 32 299 -10 q 103 151 144 74 q 61 329 61 228 q 105 531 61 443 q 228 668 149 619 q 408 717 307 717 q 625 638 546 717 q 704 411 704 558 q 700 347 704 381 l 200 347 m 415 614 q 280 567 332 614 q 210 431 228 521 l 583 431 q 540 566 585 518 q 415 614 494 614 z "},"é":{"ha":758,"x_min":61,"x_max":704,"o":"m 200 347 l 200 329 q 253 160 200 219 q 410 100 307 100 q 633 178 535 100 l 669 79 q 552 14 625 38 q 403 -10 479 -10 q 222 32 299 -10 q 103 151 144 74 q 61 329 61 228 q 105 531 61 443 q 228 668 149 619 q 408 717 307 717 q 625 638 546 717 q 704 411 704 558 q 700 347 704 381 l 200 347 m 415 614 q 280 567 332 614 q 210 431 228 521 l 583 431 q 540 566 585 518 q 415 614 494 614 m 385 790 l 542 1075 l 700 1075 l 478 790 l 385 790 z "},"ĕ":{"ha":758,"x_min":61,"x_max":704,"o":"m 200 347 l 200 329 q 253 160 200 219 q 410 100 307 100 q 633 178 535 100 l 669 79 q 552 14 625 38 q 403 -10 479 -10 q 222 32 299 -10 q 103 151 144 74 q 61 329 61 228 q 105 531 61 443 q 228 668 149 619 q 408 717 307 717 q 625 638 546 717 q 704 411 704 558 q 700 347 704 381 l 200 347 m 415 614 q 280 567 332 614 q 210 431 228 521 l 583 431 q 540 566 585 518 q 415 614 494 614 m 438 829 q 295 876 357 829 q 208 1014 233 922 l 290 1047 q 444 926 338 926 q 611 1047 546 926 l 688 1014 q 587 874 654 919 q 438 829 519 829 z "},"ě":{"ha":758,"x_min":61,"x_max":704,"o":"m 200 347 l 200 329 q 253 160 200 219 q 410 100 307 100 q 633 178 535 100 l 669 79 q 552 14 625 38 q 403 -10 479 -10 q 222 32 299 -10 q 103 151 144 74 q 61 329 61 228 q 105 531 61 443 q 228 668 149 619 q 408 717 307 717 q 625 638 546 717 q 704 411 704 558 q 700 347 704 381 l 200 347 m 415 614 q 280 567 332 614 q 210 431 228 521 l 583 431 q 540 566 585 518 q 415 614 494 614 m 669 1075 l 476 790 l 385 790 l 238 1075 l 356 1075 l 438 883 l 546 1075 l 669 1075 z "},"ḝ":{"ha":758,"x_min":61,"x_max":704,"o":"m 438 829 q 295 876 357 829 q 208 1014 233 922 l 290 1047 q 444 926 338 926 q 611 1047 546 926 l 688 1014 q 587 874 654 919 q 438 829 519 829 m 200 347 l 200 329 q 253 160 200 219 q 410 100 307 100 q 633 178 535 100 l 669 79 q 561 17 628 42 q 422 -10 494 -7 l 413 -58 q 435 -57 419 -57 q 513 -82 483 -57 q 542 -151 542 -107 q 497 -239 542 -206 q 371 -272 451 -272 q 303 -265 339 -272 q 240 -246 267 -258 l 263 -179 q 371 -199 321 -199 q 425 -187 406 -199 q 444 -154 444 -176 q 399 -119 444 -119 q 340 -131 374 -119 l 315 -107 l 335 -4 q 134 104 207 15 q 61 329 61 193 q 105 531 61 443 q 228 668 149 619 q 408 717 307 717 q 625 638 546 717 q 704 411 704 558 q 700 347 704 381 l 200 347 m 415 614 q 280 567 332 614 q 210 431 228 521 l 583 431 q 540 566 585 518 q 415 614 494 614 z "},"ê":{"ha":758,"x_min":61,"x_max":704,"o":"m 200 347 l 200 329 q 253 160 200 219 q 410 100 307 100 q 633 178 535 100 l 669 79 q 552 14 625 38 q 403 -10 479 -10 q 222 32 299 -10 q 103 151 144 74 q 61 329 61 228 q 105 531 61 443 q 228 668 149 619 q 408 717 307 717 q 625 638 546 717 q 704 411 704 558 q 700 347 704 381 l 200 347 m 415 614 q 280 567 332 614 q 210 431 228 521 l 583 431 q 540 566 585 518 q 415 614 494 614 m 214 790 l 407 1075 l 499 1075 l 647 790 l 529 790 l 447 979 l 338 790 l 214 790 z "},"ế":{"ha":758,"x_min":61,"x_max":839,"o":"m 200 347 l 200 329 q 253 160 200 219 q 410 100 307 100 q 633 178 535 100 l 669 79 q 552 14 625 38 q 403 -10 479 -10 q 222 32 299 -10 q 103 151 144 74 q 61 329 61 228 q 105 531 61 443 q 228 668 149 619 q 408 717 307 717 q 625 638 546 717 q 704 411 704 558 q 700 347 704 381 l 200 347 m 415 614 q 280 567 332 614 q 210 431 228 521 l 583 431 q 540 566 585 518 q 415 614 494 614 m 565 936 l 697 1135 l 839 1135 l 643 936 l 565 936 m 214 790 l 403 993 l 490 993 l 647 790 l 532 790 l 444 918 l 333 790 l 214 790 z "},"ệ":{"ha":758,"x_min":61,"x_max":704,"o":"m 200 347 l 200 329 q 253 160 200 219 q 410 100 307 100 q 633 178 535 100 l 669 79 q 552 14 625 38 q 403 -10 479 -10 q 222 32 299 -10 q 103 151 144 74 q 61 329 61 228 q 105 531 61 443 q 228 668 149 619 q 408 717 307 717 q 625 638 546 717 q 704 411 704 558 q 700 347 704 381 l 200 347 m 415 614 q 280 567 332 614 q 210 431 228 521 l 583 431 q 540 566 585 518 q 415 614 494 614 m 457 -121 l 446 -262 l 297 -262 l 310 -121 l 457 -121 m 214 790 l 407 1075 l 499 1075 l 647 790 l 529 790 l 447 979 l 338 790 l 214 790 z "},"ề":{"ha":758,"x_min":61,"x_max":704,"o":"m 200 347 l 200 329 q 253 160 200 219 q 410 100 307 100 q 633 178 535 100 l 669 79 q 552 14 625 38 q 403 -10 479 -10 q 222 32 299 -10 q 103 151 144 74 q 61 329 61 228 q 105 531 61 443 q 228 668 149 619 q 408 717 307 717 q 625 638 546 717 q 704 411 704 558 q 700 347 704 381 l 200 347 m 415 614 q 280 567 332 614 q 210 431 228 521 l 583 431 q 540 566 585 518 q 415 614 494 614 m 482 1135 l 610 1135 l 703 936 l 624 936 l 482 1135 m 403 993 l 490 993 l 647 790 l 532 790 l 444 918 l 333 790 l 214 790 l 403 993 z "},"ể":{"ha":758,"x_min":61,"x_max":767,"o":"m 200 347 l 200 329 q 253 160 200 219 q 410 100 307 100 q 633 178 535 100 l 669 79 q 552 14 625 38 q 403 -10 479 -10 q 222 32 299 -10 q 103 151 144 74 q 61 329 61 228 q 105 531 61 443 q 228 668 149 619 q 408 717 307 717 q 625 638 546 717 q 704 411 704 558 q 700 347 704 381 l 200 347 m 415 614 q 280 567 332 614 q 210 431 228 521 l 583 431 q 540 566 585 518 q 415 614 494 614 m 565 961 q 584 1000 567 986 q 631 1025 601 1014 q 658 1038 650 1033 q 665 1051 665 1043 q 653 1067 665 1061 q 621 1072 640 1072 q 528 1056 583 1072 l 511 1119 q 632 1142 567 1142 q 731 1119 694 1142 q 767 1063 767 1097 q 749 1018 767 1033 q 697 989 731 1003 q 661 971 674 979 q 647 949 649 963 l 646 936 l 564 936 l 565 961 m 403 993 l 490 993 l 647 790 l 532 790 l 444 918 l 333 790 l 214 790 l 403 993 z "},"ễ":{"ha":758,"x_min":61,"x_max":704,"o":"m 200 347 l 200 329 q 253 160 200 219 q 410 100 307 100 q 633 178 535 100 l 669 79 q 552 14 625 38 q 403 -10 479 -10 q 222 32 299 -10 q 103 151 144 74 q 61 329 61 228 q 105 531 61 443 q 228 668 149 619 q 408 717 307 717 q 625 638 546 717 q 704 411 704 558 q 700 347 704 381 l 200 347 m 415 614 q 280 567 332 614 q 210 431 228 521 l 583 431 q 540 566 585 518 q 415 614 494 614 m 217 1015 q 260 1117 219 1079 q 358 1156 301 1156 q 414 1147 388 1156 q 474 1124 440 1139 q 519 1106 501 1111 q 556 1100 538 1100 q 601 1115 583 1100 q 619 1156 618 1129 l 692 1156 q 648 1053 689 1092 q 550 1015 607 1015 q 496 1024 521 1015 q 435 1047 471 1032 q 389 1066 407 1060 q 353 1072 371 1072 q 309 1056 326 1072 q 289 1015 292 1040 l 217 1015 m 403 993 l 490 993 l 647 790 l 532 790 l 444 918 l 333 790 l 214 790 l 403 993 z "},"ȅ":{"ha":758,"x_min":61,"x_max":704,"o":"m 200 347 l 200 329 q 253 160 200 219 q 410 100 307 100 q 633 178 535 100 l 669 79 q 552 14 625 38 q 403 -10 479 -10 q 222 32 299 -10 q 103 151 144 74 q 61 329 61 228 q 105 531 61 443 q 228 668 149 619 q 408 717 307 717 q 625 638 546 717 q 704 411 704 558 q 700 347 704 381 l 200 347 m 415 614 q 280 567 332 614 q 210 431 228 521 l 583 431 q 540 566 585 518 q 415 614 494 614 m 224 1075 l 338 1075 l 375 790 l 310 790 l 224 1075 m 401 1075 l 514 1075 l 553 790 l 486 790 l 401 1075 z "},"ë":{"ha":758,"x_min":61,"x_max":704,"o":"m 200 347 l 200 329 q 253 160 200 219 q 410 100 307 100 q 633 178 535 100 l 669 79 q 552 14 625 38 q 403 -10 479 -10 q 222 32 299 -10 q 103 151 144 74 q 61 329 61 228 q 105 531 61 443 q 228 668 149 619 q 408 717 307 717 q 625 638 546 717 q 704 411 704 558 q 700 347 704 381 l 200 347 m 415 614 q 280 567 332 614 q 210 431 228 521 l 583 431 q 540 566 585 518 q 415 614 494 614 m 396 1001 l 385 863 l 240 863 l 251 1001 l 396 1001 m 644 1001 l 632 863 l 489 863 l 499 1001 l 644 1001 z "},"ė":{"ha":758,"x_min":61,"x_max":704,"o":"m 200 347 l 200 329 q 253 160 200 219 q 410 100 307 100 q 633 178 535 100 l 669 79 q 552 14 625 38 q 403 -10 479 -10 q 222 32 299 -10 q 103 151 144 74 q 61 329 61 228 q 105 531 61 443 q 228 668 149 619 q 408 717 307 717 q 625 638 546 717 q 704 411 704 558 q 700 347 704 381 l 200 347 m 415 614 q 280 567 332 614 q 210 431 228 521 l 583 431 q 540 566 585 518 q 415 614 494 614 m 529 1006 l 518 858 l 354 858 l 365 1006 l 529 1006 z "},"ẹ":{"ha":758,"x_min":61,"x_max":704,"o":"m 200 347 l 200 329 q 253 160 200 219 q 410 100 307 100 q 633 178 535 100 l 669 79 q 552 14 625 38 q 403 -10 479 -10 q 222 32 299 -10 q 103 151 144 74 q 61 329 61 228 q 105 531 61 443 q 228 668 149 619 q 408 717 307 717 q 625 638 546 717 q 704 411 704 558 q 700 347 704 381 l 200 347 m 415 614 q 280 567 332 614 q 210 431 228 521 l 583 431 q 540 566 585 518 q 415 614 494 614 m 457 -121 l 446 -262 l 297 -262 l 310 -121 l 457 -121 z "},"è":{"ha":758,"x_min":61,"x_max":704,"o":"m 200 347 l 200 329 q 253 160 200 219 q 410 100 307 100 q 633 178 535 100 l 669 79 q 552 14 625 38 q 403 -10 479 -10 q 222 32 299 -10 q 103 151 144 74 q 61 329 61 228 q 105 531 61 443 q 228 668 149 619 q 408 717 307 717 q 625 638 546 717 q 704 411 704 558 q 700 347 704 381 l 200 347 m 415 614 q 280 567 332 614 q 210 431 228 521 l 583 431 q 540 566 585 518 q 415 614 494 614 m 214 1075 l 357 1075 l 478 790 l 385 790 l 214 1075 z "},"ẻ":{"ha":758,"x_min":61,"x_max":704,"o":"m 200 347 l 200 329 q 253 160 200 219 q 410 100 307 100 q 633 178 535 100 l 669 79 q 552 14 625 38 q 403 -10 479 -10 q 222 32 299 -10 q 103 151 144 74 q 61 329 61 228 q 105 531 61 443 q 228 668 149 619 q 408 717 307 717 q 625 638 546 717 q 704 411 704 558 q 700 347 704 381 l 200 347 m 415 614 q 280 567 332 614 q 210 431 228 521 l 583 431 q 540 566 585 518 q 415 614 494 614 m 475 790 l 392 790 l 394 826 q 413 876 397 856 q 456 919 429 897 q 470 933 458 922 q 488 952 482 943 q 493 971 493 961 q 442 1003 493 1003 q 361 988 407 1003 l 343 1057 q 464 1079 394 1079 q 562 1053 525 1079 q 599 986 599 1026 q 581 931 599 953 q 532 886 564 910 q 491 851 504 865 q 476 815 478 836 l 475 790 z "},"ȇ":{"ha":758,"x_min":61,"x_max":704,"o":"m 200 347 l 200 329 q 253 160 200 219 q 410 100 307 100 q 633 178 535 100 l 669 79 q 552 14 625 38 q 403 -10 479 -10 q 222 32 299 -10 q 103 151 144 74 q 61 329 61 228 q 105 531 61 443 q 228 668 149 619 q 408 717 307 717 q 625 638 546 717 q 704 411 704 558 q 700 347 704 381 l 200 347 m 415 614 q 280 567 332 614 q 210 431 228 521 l 583 431 q 540 566 585 518 q 415 614 494 614 m 447 1043 q 590 997 528 1043 q 675 860 651 950 l 594 826 q 440 947 547 947 q 349 919 390 947 q 274 826 308 892 l 196 858 q 298 998 231 953 q 447 1043 365 1043 z "},"ē":{"ha":758,"x_min":61,"x_max":704,"o":"m 200 347 l 200 329 q 253 160 200 219 q 410 100 307 100 q 633 178 535 100 l 669 79 q 552 14 625 38 q 403 -10 479 -10 q 222 32 299 -10 q 103 151 144 74 q 61 329 61 228 q 105 531 61 443 q 228 668 149 619 q 408 717 307 717 q 625 638 546 717 q 704 411 704 558 q 700 347 704 381 l 200 347 m 415 614 q 280 567 332 614 q 210 431 228 521 l 583 431 q 540 566 585 518 q 415 614 494 614 m 233 981 l 658 981 l 650 882 l 225 882 l 233 981 z "},"ḗ":{"ha":758,"x_min":61,"x_max":721,"o":"m 200 347 l 200 329 q 253 160 200 219 q 410 100 307 100 q 633 178 535 100 l 669 79 q 552 14 625 38 q 403 -10 479 -10 q 222 32 299 -10 q 103 151 144 74 q 61 329 61 228 q 105 531 61 443 q 228 668 149 619 q 408 717 307 717 q 625 638 546 717 q 704 411 704 558 q 700 347 704 381 l 200 347 m 415 614 q 280 567 332 614 q 210 431 228 521 l 583 431 q 540 566 585 518 q 415 614 494 614 m 233 981 l 658 981 l 650 882 l 225 882 l 233 981 m 406 1060 l 563 1344 l 721 1344 l 499 1060 l 406 1060 z "},"ḕ":{"ha":758,"x_min":61,"x_max":704,"o":"m 200 347 l 200 329 q 253 160 200 219 q 410 100 307 100 q 633 178 535 100 l 669 79 q 552 14 625 38 q 403 -10 479 -10 q 222 32 299 -10 q 103 151 144 74 q 61 329 61 228 q 105 531 61 443 q 228 668 149 619 q 408 717 307 717 q 625 638 546 717 q 704 411 704 558 q 700 347 704 381 l 200 347 m 415 614 q 280 567 332 614 q 210 431 228 521 l 583 431 q 540 566 585 518 q 415 614 494 614 m 233 981 l 658 981 l 650 882 l 225 882 l 233 981 m 235 1344 l 378 1344 l 499 1060 l 406 1060 l 235 1344 z "},"ę":{"ha":758,"x_min":61,"x_max":704,"o":"m 200 347 l 200 329 q 253 160 200 219 q 410 100 307 100 q 633 178 535 100 l 669 79 q 586 28 644 51 q 484 -37 513 -3 q 456 -111 456 -71 q 478 -172 456 -151 q 539 -193 500 -193 q 624 -169 578 -193 l 642 -247 q 518 -278 585 -278 q 397 -237 442 -278 q 351 -133 351 -197 q 407 -10 351 -57 l 403 -10 q 222 32 299 -10 q 103 151 144 74 q 61 329 61 228 q 105 531 61 443 q 228 668 149 619 q 408 717 307 717 q 624 637 544 717 q 704 410 704 557 q 700 347 704 381 l 200 347 m 415 614 q 282 569 336 614 q 210 431 228 524 l 583 431 q 540 566 585 518 q 415 614 494 614 z "},"ẽ":{"ha":758,"x_min":61,"x_max":704,"o":"m 200 347 l 200 329 q 253 160 200 219 q 410 100 307 100 q 633 178 535 100 l 669 79 q 552 14 625 38 q 403 -10 479 -10 q 222 32 299 -10 q 103 151 144 74 q 61 329 61 228 q 105 531 61 443 q 228 668 149 619 q 408 717 307 717 q 625 638 546 717 q 704 411 704 558 q 700 347 704 381 l 200 347 m 415 614 q 280 567 332 614 q 210 431 228 521 l 583 431 q 540 566 585 518 q 415 614 494 614 m 204 850 q 248 979 208 936 q 347 1022 288 1022 q 401 1011 376 1022 q 461 978 426 1000 q 508 951 490 960 q 542 943 525 943 q 589 963 571 943 q 610 1018 607 982 l 679 1018 q 636 889 675 932 q 538 846 597 846 q 485 857 510 846 q 422 890 460 868 q 378 915 396 907 q 344 924 361 924 q 297 904 315 924 q 275 850 278 885 l 204 850 z "},"ə":{"ha":760,"x_min":56,"x_max":699,"o":"m 364 717 q 542 675 467 717 q 658 556 618 633 q 699 378 699 479 q 656 175 699 263 q 535 39 613 88 q 358 -10 458 -10 q 137 69 218 -10 q 56 294 56 149 q 60 358 56 325 l 563 358 l 563 378 q 508 547 563 488 q 354 606 454 606 q 128 528 228 606 l 92 626 q 212 692 136 668 q 364 717 288 717 m 354 92 q 484 139 433 92 q 553 275 535 186 l 178 275 q 223 139 176 186 q 354 92 269 92 z "},"f":{"ha":488,"x_min":28,"x_max":519,"o":"m 443 913 q 318 779 329 913 l 311 700 l 507 700 l 497 592 l 303 592 l 256 0 l 117 0 l 164 592 l 28 592 l 38 700 l 172 700 l 179 792 q 252 969 189 908 q 419 1031 315 1031 q 519 1017 474 1031 l 510 901 q 443 913 472 913 z "},"g":{"ha":851,"x_min":63,"x_max":775,"o":"m 775 700 l 721 17 q 620 -230 707 -150 q 374 -310 533 -310 q 89 -239 210 -310 l 122 -129 q 245 -183 186 -167 q 376 -200 304 -200 q 583 4 567 -200 l 593 133 q 499 51 558 81 q 365 21 439 21 q 206 60 275 21 q 100 173 138 100 q 63 343 63 246 q 104 537 63 451 q 221 669 146 622 q 394 717 296 717 q 538 683 478 717 q 629 586 597 649 l 638 700 l 775 700 m 403 132 q 557 201 500 132 q 614 389 614 269 q 562 549 614 493 q 414 606 510 606 q 260 536 317 606 q 204 346 204 467 q 256 188 204 243 q 403 132 307 132 z "},"ğ":{"ha":851,"x_min":63,"x_max":775,"o":"m 775 700 l 721 17 q 620 -230 707 -150 q 374 -310 533 -310 q 89 -239 210 -310 l 122 -129 q 245 -183 186 -167 q 376 -200 304 -200 q 583 4 567 -200 l 593 133 q 499 51 558 81 q 365 21 439 21 q 206 60 275 21 q 100 173 138 100 q 63 343 63 246 q 104 537 63 451 q 221 669 146 622 q 394 717 296 717 q 538 683 478 717 q 629 586 597 649 l 638 700 l 775 700 m 403 132 q 557 201 500 132 q 614 389 614 269 q 562 549 614 493 q 414 606 510 606 q 260 536 317 606 q 204 346 204 467 q 256 188 204 243 q 403 132 307 132 m 469 829 q 327 876 389 829 q 240 1014 265 922 l 322 1047 q 476 926 369 926 q 643 1047 578 926 l 719 1014 q 619 874 686 919 q 469 829 551 829 z "},"ǧ":{"ha":851,"x_min":63,"x_max":775,"o":"m 775 700 l 721 17 q 620 -230 707 -150 q 374 -310 533 -310 q 89 -239 210 -310 l 122 -129 q 245 -183 186 -167 q 376 -200 304 -200 q 583 4 567 -200 l 593 133 q 499 51 558 81 q 365 21 439 21 q 206 60 275 21 q 100 173 138 100 q 63 343 63 246 q 104 537 63 451 q 221 669 146 622 q 394 717 296 717 q 538 683 478 717 q 629 586 597 649 l 638 700 l 775 700 m 403 132 q 557 201 500 132 q 614 389 614 269 q 562 549 614 493 q 414 606 510 606 q 260 536 317 606 q 204 346 204 467 q 256 188 204 243 q 403 132 307 132 m 701 1075 l 508 790 l 417 790 l 269 1075 l 388 1075 l 469 883 l 578 1075 l 701 1075 z "},"ĝ":{"ha":851,"x_min":63,"x_max":775,"o":"m 775 700 l 721 17 q 620 -230 707 -150 q 374 -310 533 -310 q 89 -239 210 -310 l 122 -129 q 245 -183 186 -167 q 376 -200 304 -200 q 583 4 567 -200 l 593 133 q 499 51 558 81 q 365 21 439 21 q 206 60 275 21 q 100 173 138 100 q 63 343 63 246 q 104 537 63 451 q 221 669 146 622 q 394 717 296 717 q 538 683 478 717 q 629 586 597 649 l 638 700 l 775 700 m 403 132 q 557 201 500 132 q 614 389 614 269 q 562 549 614 493 q 414 606 510 606 q 260 536 317 606 q 204 346 204 467 q 256 188 204 243 q 403 132 307 132 m 246 790 l 439 1075 l 531 1075 l 679 790 l 561 790 l 479 979 l 369 790 l 246 790 z "},"ģ":{"ha":851,"x_min":63,"x_max":775,"o":"m 775 700 l 721 17 q 620 -230 707 -150 q 374 -310 533 -310 q 89 -239 210 -310 l 122 -129 q 245 -183 186 -167 q 376 -200 304 -200 q 583 4 567 -200 l 593 133 q 499 51 558 81 q 365 21 439 21 q 206 60 275 21 q 100 173 138 100 q 63 343 63 246 q 104 537 63 451 q 221 669 146 622 q 394 717 296 717 q 538 683 478 717 q 629 586 597 649 l 638 700 l 775 700 m 403 132 q 557 201 500 132 q 614 389 614 269 q 562 549 614 493 q 414 606 510 606 q 260 536 317 606 q 204 346 204 467 q 256 188 204 243 q 403 132 307 132 m 554 958 l 544 831 l 388 831 l 393 914 q 419 1018 399 974 q 483 1101 439 1063 l 538 1060 q 479 958 490 1014 l 554 958 z "},"ġ":{"ha":851,"x_min":63,"x_max":775,"o":"m 775 700 l 721 17 q 620 -230 707 -150 q 374 -310 533 -310 q 89 -239 210 -310 l 122 -129 q 245 -183 186 -167 q 376 -200 304 -200 q 583 4 567 -200 l 593 133 q 499 51 558 81 q 365 21 439 21 q 206 60 275 21 q 100 173 138 100 q 63 343 63 246 q 104 537 63 451 q 221 669 146 622 q 394 717 296 717 q 538 683 478 717 q 629 586 597 649 l 638 700 l 775 700 m 403 132 q 557 201 500 132 q 614 389 614 269 q 562 549 614 493 q 414 606 510 606 q 260 536 317 606 q 204 346 204 467 q 256 188 204 243 q 403 132 307 132 m 561 1006 l 550 858 l 386 858 l 397 1006 l 561 1006 z "},"ḡ":{"ha":851,"x_min":63,"x_max":775,"o":"m 775 700 l 721 17 q 620 -230 707 -150 q 374 -310 533 -310 q 89 -239 210 -310 l 122 -129 q 245 -183 186 -167 q 376 -200 304 -200 q 583 4 567 -200 l 593 133 q 499 51 558 81 q 365 21 439 21 q 206 60 275 21 q 100 173 138 100 q 63 343 63 246 q 104 537 63 451 q 221 669 146 622 q 394 717 296 717 q 538 683 478 717 q 629 586 597 649 l 638 700 l 775 700 m 403 132 q 557 201 500 132 q 614 389 614 269 q 562 549 614 493 q 414 606 510 606 q 260 536 317 606 q 204 346 204 467 q 256 188 204 243 q 403 132 307 132 m 265 981 l 690 981 l 682 882 l 257 882 l 265 981 z "},"h":{"ha":824,"x_min":75,"x_max":733,"o":"m 493 717 q 672 654 611 717 q 733 471 733 592 q 732 432 733 446 l 697 0 l 558 0 l 592 424 q 593 453 593 433 q 450 603 593 603 q 307 549 360 603 q 247 399 254 494 l 215 0 l 75 0 l 156 1022 l 296 1022 l 263 606 q 359 688 299 658 q 493 717 419 717 z "},"ħ":{"ha":824,"x_min":7,"x_max":733,"o":"m 493 717 q 672 654 611 717 q 733 471 733 592 q 732 432 733 446 l 697 0 l 558 0 l 592 424 q 593 453 593 433 q 450 603 593 603 q 307 549 360 603 q 247 399 254 494 l 215 0 l 75 0 l 136 789 l 7 789 l 15 892 l 144 892 l 154 1017 l 294 1017 l 285 892 l 558 892 l 550 789 l 276 789 l 261 603 q 358 687 297 657 q 493 717 419 717 z "},"ḫ":{"ha":824,"x_min":75,"x_max":733,"o":"m 493 717 q 672 654 611 717 q 733 471 733 592 q 732 432 733 446 l 697 0 l 558 0 l 592 424 q 593 453 593 433 q 450 603 593 603 q 307 549 360 603 q 247 399 254 494 l 215 0 l 75 0 l 156 1022 l 296 1022 l 263 606 q 359 688 299 658 q 493 717 419 717 m 367 -301 q 224 -256 286 -301 q 138 -118 163 -210 l 219 -85 q 374 -206 267 -206 q 465 -178 424 -206 q 539 -85 506 -150 l 617 -118 q 516 -256 583 -211 q 367 -301 449 -301 z "},"ĥ":{"ha":824,"x_min":17,"x_max":733,"o":"m 493 717 q 672 654 611 717 q 733 471 733 592 q 732 432 733 446 l 697 0 l 558 0 l 592 424 q 593 453 593 433 q 450 603 593 603 q 307 549 360 603 q 247 399 254 494 l 215 0 l 75 0 l 156 1022 l 296 1022 l 263 606 q 359 688 299 658 q 493 717 419 717 m 17 1107 l 207 1321 l 293 1321 l 450 1107 l 332 1107 l 249 1244 l 136 1107 l 17 1107 z "},"ḥ":{"ha":824,"x_min":75,"x_max":733,"o":"m 493 717 q 672 654 611 717 q 733 471 733 592 q 732 432 733 446 l 697 0 l 558 0 l 592 424 q 593 453 593 433 q 450 603 593 603 q 307 549 360 603 q 247 399 254 494 l 215 0 l 75 0 l 156 1022 l 296 1022 l 263 606 q 359 688 299 658 q 493 717 419 717 m 451 -121 l 440 -262 l 292 -262 l 304 -121 l 451 -121 z "},"i":{"ha":344,"x_min":75,"x_max":306,"o":"m 131 700 l 271 700 l 215 0 l 75 0 l 131 700 m 306 1006 l 294 858 l 131 858 l 142 1006 l 306 1006 z "},"ı":{"ha":344,"x_min":75,"x_max":271,"o":"m 131 700 l 271 700 l 215 0 l 75 0 l 131 700 z "},"í":{"ha":344,"x_min":75,"x_max":476,"o":"m 131 700 l 271 700 l 215 0 l 75 0 l 131 700 m 161 790 l 318 1075 l 476 1075 l 254 790 l 161 790 z "},"ĭ":{"ha":344,"x_min":-15,"x_max":464,"o":"m 131 700 l 271 700 l 215 0 l 75 0 l 131 700 m 214 829 q 72 876 133 829 q -15 1014 10 922 l 67 1047 q 221 926 114 926 q 388 1047 322 926 l 464 1014 q 363 874 431 919 q 214 829 296 829 z "},"î":{"ha":344,"x_min":-10,"x_max":424,"o":"m 131 700 l 271 700 l 215 0 l 75 0 l 131 700 m -10 790 l 183 1075 l 275 1075 l 424 790 l 306 790 l 224 979 l 114 790 l -10 790 z "},"ȉ":{"ha":344,"x_min":0,"x_max":329,"o":"m 131 700 l 271 700 l 215 0 l 75 0 l 131 700 m 0 1075 l 114 1075 l 151 790 l 86 790 l 0 1075 m 178 1075 l 290 1075 l 329 790 l 263 790 l 178 1075 z "},"ï":{"ha":344,"x_min":17,"x_max":421,"o":"m 131 700 l 271 700 l 215 0 l 75 0 l 131 700 m 172 1001 l 161 863 l 17 863 l 28 1001 l 172 1001 m 421 1001 l 408 863 l 265 863 l 275 1001 l 421 1001 z "},"ḯ":{"ha":344,"x_min":17,"x_max":497,"o":"m 131 700 l 271 700 l 215 0 l 75 0 l 131 700 m 172 1001 l 161 863 l 17 863 l 28 1001 l 172 1001 m 421 1001 l 408 863 l 265 863 l 275 1001 l 421 1001 m 182 1060 l 339 1344 l 497 1344 l 275 1060 l 182 1060 z "},"ị":{"ha":344,"x_min":50,"x_max":306,"o":"m 131 700 l 271 700 l 215 0 l 75 0 l 131 700 m 306 1006 l 294 858 l 131 858 l 142 1006 l 306 1006 m 210 -121 l 199 -262 l 50 -262 l 63 -121 l 210 -121 z "},"ì":{"ha":344,"x_min":-10,"x_max":271,"o":"m 131 700 l 271 700 l 215 0 l 75 0 l 131 700 m -10 1075 l 133 1075 l 254 790 l 161 790 l -10 1075 z "},"ỉ":{"ha":344,"x_min":75,"x_max":375,"o":"m 131 700 l 271 700 l 215 0 l 75 0 l 131 700 m 251 790 l 168 790 l 171 826 q 190 876 174 856 q 232 919 206 897 q 247 933 235 922 q 264 952 258 943 q 269 971 269 961 q 218 1003 269 1003 q 138 988 183 1003 l 119 1057 q 240 1079 171 1079 q 338 1053 301 1079 q 375 986 375 1026 q 358 931 375 953 q 308 886 340 910 q 267 851 281 865 q 253 815 254 836 l 251 790 z "},"ȋ":{"ha":344,"x_min":-28,"x_max":451,"o":"m 131 700 l 271 700 l 215 0 l 75 0 l 131 700 m 224 1043 q 366 997 304 1043 q 451 860 428 950 l 371 826 q 217 947 324 947 q 126 919 167 947 q 50 826 85 892 l -28 858 q 74 998 7 953 q 224 1043 142 1043 z "},"ī":{"ha":344,"x_min":1,"x_max":435,"o":"m 131 700 l 271 700 l 215 0 l 75 0 l 131 700 m 10 981 l 435 981 l 426 882 l 1 882 l 10 981 z "},"į":{"ha":344,"x_min":-32,"x_max":306,"o":"m 306 1011 l 293 863 l 131 863 l 143 1011 l 306 1011 m 206 0 q 103 -31 138 0 q 69 -110 69 -62 q 92 -172 69 -151 q 154 -193 114 -193 q 239 -169 193 -193 l 257 -247 q 132 -278 199 -278 q 13 -237 57 -278 q -32 -131 -32 -197 q 78 33 -32 -17 l 131 700 l 271 700 l 215 0 l 206 0 z "},"ĩ":{"ha":344,"x_min":-19,"x_max":456,"o":"m 131 700 l 271 700 l 215 0 l 75 0 l 131 700 m -19 850 q 24 979 -15 936 q 124 1022 64 1022 q 178 1011 153 1022 q 238 978 203 1000 q 284 951 267 960 q 318 943 301 943 q 365 963 347 943 q 386 1018 383 982 l 456 1018 q 413 889 451 932 q 314 846 374 846 q 261 857 286 846 q 199 890 236 868 q 155 915 172 907 q 121 924 138 924 q 73 904 92 924 q 51 850 54 885 l -19 850 z "},"j":{"ha":344,"x_min":-131,"x_max":304,"o":"m -122 -179 q -56 -189 -83 -189 q 69 -57 58 -189 l 131 700 l 271 700 l 208 -68 q 136 -246 199 -185 q -32 -307 74 -307 q -131 -293 -87 -307 l -122 -179 m 304 1006 l 293 858 l 129 858 l 140 1006 l 304 1006 z "},"ȷ":{"ha":344,"x_min":-131,"x_max":271,"o":"m -122 -179 q -56 -189 -83 -189 q 69 -57 58 -189 l 131 700 l 271 700 l 208 -68 q 136 -246 199 -185 q -32 -307 74 -307 q -131 -293 -87 -307 l -122 -179 z "},"ĵ":{"ha":344,"x_min":-131,"x_max":422,"o":"m -122 -179 q -56 -189 -83 -189 q 69 -57 58 -189 l 131 700 l 271 700 l 208 -68 q 136 -246 199 -185 q -32 -307 74 -307 q -131 -293 -87 -307 l -122 -179 m -11 790 l 182 1075 l 274 1075 l 422 790 l 304 790 l 222 979 l 113 790 l -11 790 z "},"k":{"ha":738,"x_min":75,"x_max":754,"o":"m 394 361 l 728 0 l 554 0 l 242 333 l 215 0 l 75 0 l 156 1022 l 296 1022 l 246 385 l 576 699 l 754 699 l 394 361 z "},"ķ":{"ha":738,"x_min":75,"x_max":754,"o":"m 394 361 l 728 0 l 554 0 l 242 333 l 215 0 l 75 0 l 156 1022 l 296 1022 l 246 385 l 576 699 l 754 699 l 394 361 m 413 -99 l 407 -182 q 381 -286 401 -242 q 317 -369 361 -331 l 263 -328 q 302 -278 289 -301 q 319 -226 315 -254 l 246 -226 l 256 -99 l 413 -99 z "},"ĸ":{"ha":738,"x_min":75,"x_max":753,"o":"m 393 361 l 728 0 l 554 0 l 242 333 l 215 0 l 75 0 l 131 700 l 269 700 l 244 383 l 576 699 l 753 699 l 393 361 z "},"l":{"ha":344,"x_min":75,"x_max":297,"o":"m 157 1022 l 297 1022 l 215 0 l 75 0 l 157 1022 z "},"ĺ":{"ha":344,"x_min":75,"x_max":493,"o":"m 157 1022 l 297 1022 l 215 0 l 75 0 l 157 1022 m 185 1107 l 340 1321 l 493 1321 l 278 1107 l 185 1107 z "},"ľ":{"ha":344,"x_min":75,"x_max":439,"o":"m 157 1022 l 297 1022 l 215 0 l 75 0 l 157 1022 m 322 749 l 343 1022 l 439 1022 l 381 749 l 322 749 z "},"ļ":{"ha":344,"x_min":49,"x_max":297,"o":"m 157 1022 l 297 1022 l 215 0 l 75 0 l 157 1022 m 215 -99 l 210 -182 q 184 -286 204 -242 q 119 -369 164 -331 l 65 -328 q 105 -278 92 -301 q 122 -226 118 -254 l 49 -226 l 58 -99 l 215 -99 z "},"ŀ":{"ha":415,"x_min":75,"x_max":464,"o":"m 157 1022 l 297 1022 l 215 0 l 75 0 l 157 1022 m 464 574 l 451 422 l 286 422 l 297 574 l 464 574 z "},"ḷ":{"ha":344,"x_min":50,"x_max":297,"o":"m 157 1022 l 297 1022 l 215 0 l 75 0 l 157 1022 m 210 -121 l 199 -262 l 50 -262 l 63 -121 l 210 -121 z "},"ǉ":{"ha":689,"x_min":75,"x_max":649,"o":"m 157 1022 l 297 1022 l 215 0 l 75 0 l 157 1022 m 222 -179 q 289 -189 261 -189 q 414 -57 403 -189 l 475 700 l 615 700 l 553 -68 q 481 -246 543 -185 q 313 -307 418 -307 q 214 -293 257 -307 l 222 -179 m 649 1006 l 638 858 l 474 858 l 485 1006 l 649 1006 z "},"ḻ":{"ha":344,"x_min":-86,"x_max":346,"o":"m 157 1022 l 297 1022 l 215 0 l 75 0 l 157 1022 m -79 -144 l 346 -144 l 339 -239 l -86 -239 l -79 -144 z "},"ł":{"ha":429,"x_min":-7,"x_max":460,"o":"m 294 485 l 256 0 l 118 0 l 150 406 l 42 346 l -7 443 l 161 536 l 199 1017 l 336 1017 l 304 615 l 413 675 l 460 576 l 294 485 z "},"m":{"ha":1233,"x_min":75,"x_max":1143,"o":"m 921 717 q 1087 655 1031 717 q 1143 474 1143 593 q 1142 432 1143 446 l 1107 0 l 968 0 l 1001 426 q 1003 460 1003 438 q 972 567 1003 532 q 876 603 940 603 q 747 549 794 603 q 692 394 700 496 l 661 0 l 521 0 l 556 425 q 557 456 557 436 q 526 567 557 531 q 431 603 494 603 q 301 549 349 603 q 246 394 253 496 l 215 0 l 75 0 l 115 503 q 121 644 121 594 q 119 700 121 682 l 250 700 l 253 592 q 476 717 324 717 q 608 684 556 717 q 682 588 660 651 q 781 683 719 650 q 921 717 843 717 z "},"ṃ":{"ha":1233,"x_min":75,"x_max":1143,"o":"m 921 717 q 1087 655 1031 717 q 1143 474 1143 593 q 1142 432 1143 446 l 1107 0 l 968 0 l 1001 426 q 1003 460 1003 438 q 972 567 1003 532 q 876 603 940 603 q 747 549 794 603 q 692 394 700 496 l 661 0 l 521 0 l 556 425 q 557 456 557 436 q 526 567 557 531 q 431 603 494 603 q 301 549 349 603 q 246 394 253 496 l 215 0 l 75 0 l 115 503 q 121 644 121 594 q 119 700 121 682 l 250 700 l 253 592 q 476 717 324 717 q 608 684 556 717 q 682 588 660 651 q 781 683 719 650 q 921 717 843 717 m 657 -121 l 646 -262 l 497 -262 l 510 -121 l 657 -121 z "},"n":{"ha":824,"x_min":75,"x_max":733,"o":"m 493 717 q 672 654 611 717 q 733 471 733 592 q 732 432 733 446 l 697 0 l 558 0 l 592 424 q 593 453 593 433 q 450 603 593 603 q 307 549 360 603 q 247 399 254 494 l 215 0 l 75 0 l 115 503 q 121 635 121 560 q 119 700 121 678 l 250 700 l 253 589 q 351 683 288 649 q 493 717 414 717 z "},"ń":{"ha":824,"x_min":75,"x_max":733,"o":"m 493 717 q 672 654 611 717 q 733 471 733 592 q 732 432 733 446 l 697 0 l 558 0 l 592 424 q 593 453 593 433 q 450 603 593 603 q 307 549 360 603 q 247 399 254 494 l 215 0 l 75 0 l 115 503 q 121 635 121 560 q 119 700 121 678 l 250 700 l 253 589 q 351 683 288 649 q 493 717 414 717 m 403 790 l 560 1075 l 718 1075 l 496 790 l 403 790 z "},"ŉ":{"ha":824,"x_min":75,"x_max":733,"o":"m 342 1060 l 336 976 q 310 872 331 917 q 246 789 290 828 l 190 831 q 250 932 242 876 l 175 932 l 185 1060 l 342 1060 m 493 717 q 672 654 611 717 q 733 471 733 592 q 732 432 733 446 l 697 0 l 558 0 l 592 424 q 593 453 593 433 q 450 603 593 603 q 307 549 360 603 q 247 399 254 494 l 215 0 l 75 0 l 115 503 q 121 635 121 560 q 119 700 121 678 l 250 700 l 253 589 q 351 683 288 649 q 493 717 414 717 z "},"ň":{"ha":824,"x_min":75,"x_max":733,"o":"m 493 717 q 672 654 611 717 q 733 471 733 592 q 732 432 733 446 l 697 0 l 558 0 l 592 424 q 593 453 593 433 q 450 603 593 603 q 307 549 360 603 q 247 399 254 494 l 215 0 l 75 0 l 115 503 q 121 635 121 560 q 119 700 121 678 l 250 700 l 253 589 q 351 683 288 649 q 493 717 414 717 m 688 1075 l 494 790 l 403 790 l 256 1075 l 374 1075 l 456 883 l 564 1075 l 688 1075 z "},"ņ":{"ha":824,"x_min":75,"x_max":733,"o":"m 493 717 q 672 654 611 717 q 733 471 733 592 q 732 432 733 446 l 697 0 l 558 0 l 592 424 q 593 453 593 433 q 450 603 593 603 q 307 549 360 603 q 247 399 254 494 l 215 0 l 75 0 l 115 503 q 121 635 121 560 q 119 700 121 678 l 250 700 l 253 589 q 351 683 288 649 q 493 717 414 717 m 457 -99 l 451 -182 q 426 -286 446 -242 q 361 -369 406 -331 l 307 -328 q 347 -278 333 -301 q 364 -226 360 -254 l 290 -226 l 300 -99 l 457 -99 z "},"ṅ":{"ha":824,"x_min":75,"x_max":733,"o":"m 493 717 q 672 654 611 717 q 733 471 733 592 q 732 432 733 446 l 697 0 l 558 0 l 592 424 q 593 453 593 433 q 450 603 593 603 q 307 549 360 603 q 247 399 254 494 l 215 0 l 75 0 l 115 503 q 121 635 121 560 q 119 700 121 678 l 250 700 l 253 589 q 351 683 288 649 q 493 717 414 717 m 547 1006 l 536 858 l 372 858 l 383 1006 l 547 1006 z "},"ṇ":{"ha":824,"x_min":75,"x_max":733,"o":"m 493 717 q 672 654 611 717 q 733 471 733 592 q 732 432 733 446 l 697 0 l 558 0 l 592 424 q 593 453 593 433 q 450 603 593 603 q 307 549 360 603 q 247 399 254 494 l 215 0 l 75 0 l 115 503 q 121 635 121 560 q 119 700 121 678 l 250 700 l 253 589 q 351 683 288 649 q 493 717 414 717 m 451 -121 l 440 -262 l 292 -262 l 304 -121 l 451 -121 z "},"ŋ":{"ha":824,"x_min":75,"x_max":733,"o":"m 493 717 q 672 654 611 717 q 733 471 733 592 q 732 432 733 446 l 696 -26 q 624 -204 688 -143 q 454 -265 560 -265 q 357 -251 400 -265 l 365 -137 q 432 -147 403 -147 q 519 -117 486 -147 q 557 -15 553 -87 l 592 424 q 593 453 593 433 q 450 603 593 603 q 307 549 360 603 q 247 399 254 494 l 215 0 l 75 0 l 115 503 q 121 635 121 560 q 119 700 121 678 l 250 700 l 253 589 q 351 683 288 649 q 493 717 414 717 z "},"ǌ":{"ha":1168,"x_min":75,"x_max":1128,"o":"m 493 717 q 672 654 611 717 q 733 471 733 592 q 732 432 733 446 l 697 0 l 558 0 l 592 424 q 593 453 593 433 q 450 603 593 603 q 307 549 360 603 q 247 399 254 494 l 215 0 l 75 0 l 115 503 q 121 635 121 560 q 119 700 121 678 l 250 700 l 253 589 q 351 683 288 649 q 493 717 414 717 m 701 -179 q 768 -189 740 -189 q 893 -57 882 -189 l 954 700 l 1094 700 l 1032 -68 q 960 -246 1022 -185 q 792 -307 897 -307 q 693 -293 736 -307 l 701 -179 m 1128 1006 l 1117 858 l 953 858 l 964 1006 l 1128 1006 z "},"ṉ":{"ha":824,"x_min":75,"x_max":733,"o":"m 493 717 q 672 654 611 717 q 733 471 733 592 q 732 432 733 446 l 697 0 l 558 0 l 592 424 q 593 453 593 433 q 450 603 593 603 q 307 549 360 603 q 247 399 254 494 l 215 0 l 75 0 l 115 503 q 121 635 121 560 q 119 700 121 678 l 250 700 l 253 589 q 351 683 288 649 q 493 717 414 717 m 163 -144 l 588 -144 l 581 -239 l 156 -239 l 163 -144 z "},"ñ":{"ha":824,"x_min":75,"x_max":733,"o":"m 493 717 q 672 654 611 717 q 733 471 733 592 q 732 432 733 446 l 697 0 l 558 0 l 592 424 q 593 453 593 433 q 450 603 593 603 q 307 549 360 603 q 247 399 254 494 l 215 0 l 75 0 l 115 503 q 121 635 121 560 q 119 700 121 678 l 250 700 l 253 589 q 351 683 288 649 q 493 717 414 717 m 222 850 q 266 979 226 936 q 365 1022 306 1022 q 419 1011 394 1022 q 479 978 444 1000 q 526 951 508 960 q 560 943 543 943 q 607 963 589 943 q 628 1018 625 982 l 697 1018 q 654 889 693 932 q 556 846 615 846 q 503 857 528 846 q 440 890 478 868 q 397 915 414 907 q 363 924 379 924 q 315 904 333 924 q 293 850 296 885 l 222 850 z "},"o":{"ha":807,"x_min":61,"x_max":746,"o":"m 397 -10 q 219 32 296 -10 q 102 151 143 74 q 61 331 61 228 q 105 535 61 447 q 228 669 149 622 q 411 717 307 717 q 588 674 513 717 q 705 556 664 632 q 746 376 746 479 q 702 172 746 260 q 580 38 658 85 q 397 -10 501 -10 m 399 100 q 551 176 497 100 q 604 381 604 253 q 554 547 604 489 q 411 606 504 606 q 257 530 311 606 q 203 326 203 454 q 252 158 203 215 q 399 100 301 100 z "},"ó":{"ha":807,"x_min":61,"x_max":746,"o":"m 397 -10 q 219 32 296 -10 q 102 151 143 74 q 61 331 61 228 q 105 535 61 447 q 228 669 149 622 q 411 717 307 717 q 588 674 513 717 q 705 556 664 632 q 746 376 746 479 q 702 172 746 260 q 580 38 658 85 q 397 -10 501 -10 m 399 100 q 551 176 497 100 q 604 381 604 253 q 554 547 604 489 q 411 606 504 606 q 257 530 311 606 q 203 326 203 454 q 252 158 203 215 q 399 100 301 100 m 392 790 l 549 1075 l 707 1075 l 485 790 l 392 790 z "},"ŏ":{"ha":807,"x_min":61,"x_max":746,"o":"m 397 -10 q 219 32 296 -10 q 102 151 143 74 q 61 331 61 228 q 105 535 61 447 q 228 669 149 622 q 411 717 307 717 q 588 674 513 717 q 705 556 664 632 q 746 376 746 479 q 702 172 746 260 q 580 38 658 85 q 397 -10 501 -10 m 399 100 q 551 176 497 100 q 604 381 604 253 q 554 547 604 489 q 411 606 504 606 q 257 530 311 606 q 203 326 203 454 q 252 158 203 215 q 399 100 301 100 m 444 829 q 302 876 364 829 q 215 1014 240 922 l 297 1047 q 451 926 344 926 q 618 1047 553 926 l 694 1014 q 594 874 661 919 q 444 829 526 829 z "},"ô":{"ha":807,"x_min":61,"x_max":746,"o":"m 397 -10 q 219 32 296 -10 q 102 151 143 74 q 61 331 61 228 q 105 535 61 447 q 228 669 149 622 q 411 717 307 717 q 588 674 513 717 q 705 556 664 632 q 746 376 746 479 q 702 172 746 260 q 580 38 658 85 q 397 -10 501 -10 m 399 100 q 551 176 497 100 q 604 381 604 253 q 554 547 604 489 q 411 606 504 606 q 257 530 311 606 q 203 326 203 454 q 252 158 203 215 q 399 100 301 100 m 221 790 l 414 1075 l 506 1075 l 654 790 l 536 790 l 454 979 l 344 790 l 221 790 z "},"ố":{"ha":807,"x_min":61,"x_max":846,"o":"m 397 -10 q 219 32 296 -10 q 102 151 143 74 q 61 331 61 228 q 105 535 61 447 q 228 669 149 622 q 411 717 307 717 q 588 674 513 717 q 705 556 664 632 q 746 376 746 479 q 702 172 746 260 q 580 38 658 85 q 397 -10 501 -10 m 399 100 q 551 176 497 100 q 604 381 604 253 q 554 547 604 489 q 411 606 504 606 q 257 530 311 606 q 203 326 203 454 q 252 158 203 215 q 399 100 301 100 m 572 936 l 704 1135 l 846 1135 l 650 936 l 572 936 m 221 790 l 410 993 l 497 993 l 654 790 l 539 790 l 451 918 l 340 790 l 221 790 z "},"ộ":{"ha":807,"x_min":61,"x_max":746,"o":"m 397 -10 q 219 32 296 -10 q 102 151 143 74 q 61 331 61 228 q 105 535 61 447 q 228 669 149 622 q 411 717 307 717 q 588 674 513 717 q 705 556 664 632 q 746 376 746 479 q 702 172 746 260 q 580 38 658 85 q 397 -10 501 -10 m 399 100 q 551 176 497 100 q 604 381 604 253 q 554 547 604 489 q 411 606 504 606 q 257 530 311 606 q 203 326 203 454 q 252 158 203 215 q 399 100 301 100 m 442 -121 l 431 -262 l 282 -262 l 294 -121 l 442 -121 m 221 790 l 414 1075 l 506 1075 l 654 790 l 536 790 l 454 979 l 344 790 l 221 790 z "},"ồ":{"ha":807,"x_min":61,"x_max":746,"o":"m 397 -10 q 219 32 296 -10 q 102 151 143 74 q 61 331 61 228 q 105 535 61 447 q 228 669 149 622 q 411 717 307 717 q 588 674 513 717 q 705 556 664 632 q 746 376 746 479 q 702 172 746 260 q 580 38 658 85 q 397 -10 501 -10 m 399 100 q 551 176 497 100 q 604 381 604 253 q 554 547 604 489 q 411 606 504 606 q 257 530 311 606 q 203 326 203 454 q 252 158 203 215 q 399 100 301 100 m 489 1135 l 617 1135 l 710 936 l 631 936 l 489 1135 m 410 993 l 497 993 l 654 790 l 539 790 l 451 918 l 340 790 l 221 790 l 410 993 z "},"ổ":{"ha":807,"x_min":61,"x_max":774,"o":"m 397 -10 q 219 32 296 -10 q 102 151 143 74 q 61 331 61 228 q 105 535 61 447 q 228 669 149 622 q 411 717 307 717 q 588 674 513 717 q 705 556 664 632 q 746 376 746 479 q 702 172 746 260 q 580 38 658 85 q 397 -10 501 -10 m 399 100 q 551 176 497 100 q 604 381 604 253 q 554 547 604 489 q 411 606 504 606 q 257 530 311 606 q 203 326 203 454 q 252 158 203 215 q 399 100 301 100 m 572 961 q 591 1000 574 986 q 638 1025 608 1014 q 665 1038 657 1033 q 672 1051 672 1043 q 660 1067 672 1061 q 628 1072 647 1072 q 535 1056 590 1072 l 518 1119 q 639 1142 574 1142 q 738 1119 701 1142 q 774 1063 774 1097 q 756 1018 774 1033 q 704 989 738 1003 q 668 971 681 979 q 654 949 656 963 l 653 936 l 571 936 l 572 961 m 410 993 l 497 993 l 654 790 l 539 790 l 451 918 l 340 790 l 221 790 l 410 993 z "},"ỗ":{"ha":807,"x_min":61,"x_max":746,"o":"m 397 -10 q 219 32 296 -10 q 102 151 143 74 q 61 331 61 228 q 105 535 61 447 q 228 669 149 622 q 411 717 307 717 q 588 674 513 717 q 705 556 664 632 q 746 376 746 479 q 702 172 746 260 q 580 38 658 85 q 397 -10 501 -10 m 399 100 q 551 176 497 100 q 604 381 604 253 q 554 547 604 489 q 411 606 504 606 q 257 530 311 606 q 203 326 203 454 q 252 158 203 215 q 399 100 301 100 m 224 1015 q 267 1117 226 1079 q 365 1156 308 1156 q 421 1147 394 1156 q 481 1124 447 1139 q 526 1106 508 1111 q 563 1100 544 1100 q 608 1115 590 1100 q 626 1156 625 1129 l 699 1156 q 655 1053 696 1092 q 557 1015 614 1015 q 503 1024 528 1015 q 442 1047 478 1032 q 396 1066 414 1060 q 360 1072 378 1072 q 316 1056 333 1072 q 296 1015 299 1040 l 224 1015 m 410 993 l 497 993 l 654 790 l 539 790 l 451 918 l 340 790 l 221 790 l 410 993 z "},"ȍ":{"ha":807,"x_min":61,"x_max":746,"o":"m 397 -10 q 219 32 296 -10 q 102 151 143 74 q 61 331 61 228 q 105 535 61 447 q 228 669 149 622 q 411 717 307 717 q 588 674 513 717 q 705 556 664 632 q 746 376 746 479 q 702 172 746 260 q 580 38 658 85 q 397 -10 501 -10 m 399 100 q 551 176 497 100 q 604 381 604 253 q 554 547 604 489 q 411 606 504 606 q 257 530 311 606 q 203 326 203 454 q 252 158 203 215 q 399 100 301 100 m 231 1075 l 344 1075 l 382 790 l 317 790 l 231 1075 m 408 1075 l 521 1075 l 560 790 l 493 790 l 408 1075 z "},"ö":{"ha":807,"x_min":61,"x_max":746,"o":"m 397 -10 q 219 32 296 -10 q 102 151 143 74 q 61 331 61 228 q 105 535 61 447 q 228 669 149 622 q 411 717 307 717 q 588 674 513 717 q 705 556 664 632 q 746 376 746 479 q 702 172 746 260 q 580 38 658 85 q 397 -10 501 -10 m 399 100 q 551 176 497 100 q 604 381 604 253 q 554 547 604 489 q 411 606 504 606 q 257 530 311 606 q 203 326 203 454 q 252 158 203 215 q 399 100 301 100 m 403 1001 l 392 863 l 247 863 l 258 1001 l 403 1001 m 651 1001 l 639 863 l 496 863 l 506 1001 l 651 1001 z "},"ȫ":{"ha":807,"x_min":61,"x_max":746,"o":"m 397 -10 q 219 32 296 -10 q 102 151 143 74 q 61 331 61 228 q 105 535 61 447 q 228 669 149 622 q 411 717 307 717 q 588 674 513 717 q 705 556 664 632 q 746 376 746 479 q 702 172 746 260 q 580 38 658 85 q 397 -10 501 -10 m 399 100 q 551 176 497 100 q 604 381 604 253 q 554 547 604 489 q 411 606 504 606 q 257 530 311 606 q 203 326 203 454 q 252 158 203 215 q 399 100 301 100 m 403 1001 l 392 863 l 247 863 l 258 1001 l 403 1001 m 651 1001 l 639 863 l 496 863 l 506 1001 l 651 1001 m 261 1250 l 686 1250 l 678 1151 l 253 1151 l 261 1250 z "},"ȱ":{"ha":807,"x_min":61,"x_max":746,"o":"m 397 -10 q 219 32 296 -10 q 102 151 143 74 q 61 331 61 228 q 105 535 61 447 q 228 669 149 622 q 411 717 307 717 q 588 674 513 717 q 705 556 664 632 q 746 376 746 479 q 702 172 746 260 q 580 38 658 85 q 397 -10 501 -10 m 399 100 q 551 176 497 100 q 604 381 604 253 q 554 547 604 489 q 411 606 504 606 q 257 530 311 606 q 203 326 203 454 q 252 158 203 215 q 399 100 301 100 m 536 1006 l 525 858 l 361 858 l 372 1006 l 536 1006 m 261 1250 l 686 1250 l 678 1151 l 253 1151 l 261 1250 z "},"ọ":{"ha":807,"x_min":61,"x_max":746,"o":"m 397 -10 q 219 32 296 -10 q 102 151 143 74 q 61 331 61 228 q 105 535 61 447 q 228 669 149 622 q 411 717 307 717 q 588 674 513 717 q 705 556 664 632 q 746 376 746 479 q 702 172 746 260 q 580 38 658 85 q 397 -10 501 -10 m 399 100 q 551 176 497 100 q 604 381 604 253 q 554 547 604 489 q 411 606 504 606 q 257 530 311 606 q 203 326 203 454 q 252 158 203 215 q 399 100 301 100 m 442 -121 l 431 -262 l 282 -262 l 294 -121 l 442 -121 z "},"ò":{"ha":807,"x_min":61,"x_max":746,"o":"m 397 -10 q 219 32 296 -10 q 102 151 143 74 q 61 331 61 228 q 105 535 61 447 q 228 669 149 622 q 411 717 307 717 q 588 674 513 717 q 705 556 664 632 q 746 376 746 479 q 702 172 746 260 q 580 38 658 85 q 397 -10 501 -10 m 399 100 q 551 176 497 100 q 604 381 604 253 q 554 547 604 489 q 411 606 504 606 q 257 530 311 606 q 203 326 203 454 q 252 158 203 215 q 399 100 301 100 m 221 1075 l 364 1075 l 485 790 l 392 790 l 221 1075 z "},"ỏ":{"ha":807,"x_min":61,"x_max":746,"o":"m 397 -10 q 219 32 296 -10 q 102 151 143 74 q 61 331 61 228 q 105 535 61 447 q 228 669 149 622 q 411 717 307 717 q 588 674 513 717 q 705 556 664 632 q 746 376 746 479 q 702 172 746 260 q 580 38 658 85 q 397 -10 501 -10 m 399 100 q 551 176 497 100 q 604 381 604 253 q 554 547 604 489 q 411 606 504 606 q 257 530 311 606 q 203 326 203 454 q 252 158 203 215 q 399 100 301 100 m 482 790 l 399 790 l 401 826 q 420 876 404 856 q 463 919 436 897 q 477 933 465 922 q 494 952 489 943 q 500 971 500 961 q 449 1003 500 1003 q 368 988 414 1003 l 350 1057 q 471 1079 401 1079 q 569 1053 532 1079 q 606 986 606 1026 q 588 931 606 953 q 539 886 571 910 q 498 851 511 865 q 483 815 485 836 l 482 790 z "},"ơ":{"ha":807,"x_min":61,"x_max":799,"o":"m 796 842 q 750 709 789 763 q 642 636 711 656 q 719 522 693 590 q 746 376 746 454 q 702 172 746 260 q 580 38 658 85 q 397 -10 501 -10 q 219 32 296 -10 q 102 151 143 74 q 61 331 61 228 q 105 535 61 447 q 228 669 149 622 q 413 717 308 717 q 496 711 446 717 q 538 707 521 707 q 634 742 600 707 q 675 861 668 776 l 676 883 l 799 883 l 796 842 m 399 100 q 551 176 497 100 q 604 381 604 253 q 554 547 604 489 q 411 606 504 606 q 257 530 311 606 q 203 326 203 454 q 252 158 203 215 q 399 100 301 100 z "},"ớ":{"ha":807,"x_min":61,"x_max":799,"o":"m 796 842 q 750 709 789 763 q 642 636 711 656 q 719 522 693 590 q 746 376 746 454 q 702 172 746 260 q 580 38 658 85 q 397 -10 501 -10 q 219 32 296 -10 q 102 151 143 74 q 61 331 61 228 q 105 535 61 447 q 228 669 149 622 q 413 717 308 717 q 496 711 446 717 q 538 707 521 707 q 634 742 600 707 q 675 861 668 776 l 676 883 l 799 883 l 796 842 m 399 100 q 551 176 497 100 q 604 381 604 253 q 554 547 604 489 q 411 606 504 606 q 257 530 311 606 q 203 326 203 454 q 252 158 203 215 q 399 100 301 100 m 392 790 l 549 1075 l 707 1075 l 485 790 l 392 790 z "},"ợ":{"ha":807,"x_min":61,"x_max":799,"o":"m 796 842 q 750 709 789 763 q 642 636 711 656 q 719 522 693 590 q 746 376 746 454 q 702 172 746 260 q 580 38 658 85 q 397 -10 501 -10 q 219 32 296 -10 q 102 151 143 74 q 61 331 61 228 q 105 535 61 447 q 228 669 149 622 q 413 717 308 717 q 496 711 446 717 q 538 707 521 707 q 634 742 600 707 q 675 861 668 776 l 676 883 l 799 883 l 796 842 m 399 100 q 551 176 497 100 q 604 381 604 253 q 554 547 604 489 q 411 606 504 606 q 257 530 311 606 q 203 326 203 454 q 252 158 203 215 q 399 100 301 100 m 442 -121 l 431 -262 l 282 -262 l 294 -121 l 442 -121 z "},"ờ":{"ha":807,"x_min":61,"x_max":799,"o":"m 796 842 q 750 709 789 763 q 642 636 711 656 q 719 522 693 590 q 746 376 746 454 q 702 172 746 260 q 580 38 658 85 q 397 -10 501 -10 q 219 32 296 -10 q 102 151 143 74 q 61 331 61 228 q 105 535 61 447 q 228 669 149 622 q 413 717 308 717 q 496 711 446 717 q 538 707 521 707 q 634 742 600 707 q 675 861 668 776 l 676 883 l 799 883 l 796 842 m 399 100 q 551 176 497 100 q 604 381 604 253 q 554 547 604 489 q 411 606 504 606 q 257 530 311 606 q 203 326 203 454 q 252 158 203 215 q 399 100 301 100 m 221 1075 l 364 1075 l 485 790 l 392 790 l 221 1075 z "},"ở":{"ha":807,"x_min":61,"x_max":799,"o":"m 796 842 q 750 709 789 763 q 642 636 711 656 q 719 522 693 590 q 746 376 746 454 q 702 172 746 260 q 580 38 658 85 q 397 -10 501 -10 q 219 32 296 -10 q 102 151 143 74 q 61 331 61 228 q 105 535 61 447 q 228 669 149 622 q 413 717 308 717 q 496 711 446 717 q 538 707 521 707 q 634 742 600 707 q 675 861 668 776 l 676 883 l 799 883 l 796 842 m 399 100 q 551 176 497 100 q 604 381 604 253 q 554 547 604 489 q 411 606 504 606 q 257 530 311 606 q 203 326 203 454 q 252 158 203 215 q 399 100 301 100 m 482 790 l 399 790 l 401 826 q 420 876 404 856 q 463 919 436 897 q 477 933 465 922 q 494 952 489 943 q 500 971 500 961 q 449 1003 500 1003 q 368 988 414 1003 l 350 1057 q 471 1079 401 1079 q 569 1053 532 1079 q 606 986 606 1026 q 588 931 606 953 q 539 886 571 910 q 498 851 511 865 q 483 815 485 836 l 482 790 z "},"ỡ":{"ha":807,"x_min":61,"x_max":799,"o":"m 796 842 q 750 709 789 763 q 642 636 711 656 q 719 522 693 590 q 746 376 746 454 q 702 172 746 260 q 580 38 658 85 q 397 -10 501 -10 q 219 32 296 -10 q 102 151 143 74 q 61 331 61 228 q 105 535 61 447 q 228 669 149 622 q 413 717 308 717 q 496 711 446 717 q 538 707 521 707 q 634 742 600 707 q 675 861 668 776 l 676 883 l 799 883 l 796 842 m 399 100 q 551 176 497 100 q 604 381 604 253 q 554 547 604 489 q 411 606 504 606 q 257 530 311 606 q 203 326 203 454 q 252 158 203 215 q 399 100 301 100 m 211 850 q 255 979 215 936 q 354 1022 294 1022 q 408 1011 383 1022 q 468 978 433 1000 q 515 951 497 960 q 549 943 532 943 q 596 963 578 943 q 617 1018 614 982 l 686 1018 q 643 889 682 932 q 544 846 604 846 q 492 857 517 846 q 429 890 467 868 q 385 915 403 907 q 351 924 368 924 q 303 904 322 924 q 282 850 285 885 l 211 850 z "},"ő":{"ha":807,"x_min":61,"x_max":746,"o":"m 397 -10 q 219 32 296 -10 q 102 151 143 74 q 61 331 61 228 q 105 535 61 447 q 228 669 149 622 q 411 717 307 717 q 588 674 513 717 q 705 556 664 632 q 746 376 746 479 q 702 172 746 260 q 580 38 658 85 q 397 -10 501 -10 m 399 100 q 551 176 497 100 q 604 381 604 253 q 554 547 604 489 q 411 606 504 606 q 257 530 311 606 q 203 326 203 454 q 252 158 203 215 q 399 100 301 100 m 317 790 l 396 1075 l 517 1075 l 382 790 l 317 790 m 493 790 l 572 1075 l 694 1075 l 560 790 l 493 790 z "},"ȏ":{"ha":807,"x_min":61,"x_max":746,"o":"m 397 -10 q 219 32 296 -10 q 102 151 143 74 q 61 331 61 228 q 105 535 61 447 q 228 669 149 622 q 411 717 307 717 q 588 674 513 717 q 705 556 664 632 q 746 376 746 479 q 702 172 746 260 q 580 38 658 85 q 397 -10 501 -10 m 399 100 q 551 176 497 100 q 604 381 604 253 q 554 547 604 489 q 411 606 504 606 q 257 530 311 606 q 203 326 203 454 q 252 158 203 215 q 399 100 301 100 m 454 1043 q 597 997 535 1043 q 682 860 658 950 l 601 826 q 447 947 554 947 q 356 919 397 947 q 281 826 315 892 l 203 858 q 305 998 238 953 q 454 1043 372 1043 z "},"ō":{"ha":807,"x_min":61,"x_max":746,"o":"m 397 -10 q 219 32 296 -10 q 102 151 143 74 q 61 331 61 228 q 105 535 61 447 q 228 669 149 622 q 411 717 307 717 q 588 674 513 717 q 705 556 664 632 q 746 376 746 479 q 702 172 746 260 q 580 38 658 85 q 397 -10 501 -10 m 399 100 q 551 176 497 100 q 604 381 604 253 q 554 547 604 489 q 411 606 504 606 q 257 530 311 606 q 203 326 203 454 q 252 158 203 215 q 399 100 301 100 m 240 981 l 665 981 l 657 882 l 232 882 l 240 981 z "},"ṓ":{"ha":807,"x_min":61,"x_max":746,"o":"m 397 -10 q 219 32 296 -10 q 102 151 143 74 q 61 331 61 228 q 105 535 61 447 q 228 669 149 622 q 411 717 307 717 q 588 674 513 717 q 705 556 664 632 q 746 376 746 479 q 702 172 746 260 q 580 38 658 85 q 397 -10 501 -10 m 399 100 q 551 176 497 100 q 604 381 604 253 q 554 547 604 489 q 411 606 504 606 q 257 530 311 606 q 203 326 203 454 q 252 158 203 215 q 399 100 301 100 m 240 981 l 665 981 l 657 882 l 232 882 l 240 981 m 413 1060 l 569 1344 l 728 1344 l 506 1060 l 413 1060 z "},"ṑ":{"ha":807,"x_min":61,"x_max":746,"o":"m 397 -10 q 219 32 296 -10 q 102 151 143 74 q 61 331 61 228 q 105 535 61 447 q 228 669 149 622 q 411 717 307 717 q 588 674 513 717 q 705 556 664 632 q 746 376 746 479 q 702 172 746 260 q 580 38 658 85 q 397 -10 501 -10 m 399 100 q 551 176 497 100 q 604 381 604 253 q 554 547 604 489 q 411 606 504 606 q 257 530 311 606 q 203 326 203 454 q 252 158 203 215 q 399 100 301 100 m 240 981 l 665 981 l 657 882 l 232 882 l 240 981 m 242 1344 l 385 1344 l 506 1060 l 413 1060 l 242 1344 z "},"ǫ":{"ha":807,"x_min":61,"x_max":746,"o":"m 501 4 q 410 -41 439 -14 q 381 -111 381 -68 q 403 -172 381 -151 q 464 -193 425 -193 q 550 -169 504 -193 l 567 -247 q 443 -278 510 -278 q 322 -237 367 -278 q 278 -133 278 -197 q 338 -6 278 -51 q 136 101 211 11 q 61 331 61 190 q 105 535 61 447 q 228 669 149 622 q 411 717 307 717 q 588 674 513 717 q 705 555 664 632 q 746 376 746 478 q 678 128 746 221 q 501 4 611 36 m 203 326 q 252 158 203 215 q 399 100 301 100 q 551 176 497 100 q 604 381 604 253 q 554 547 604 489 q 411 606 504 606 q 257 530 311 606 q 203 326 203 454 z "},"ø":{"ha":807,"x_min":61,"x_max":746,"o":"m 642 636 q 719 524 692 590 q 746 376 746 458 q 702 172 746 260 q 580 38 658 85 q 397 -10 501 -10 q 238 22 308 -10 l 176 -71 l 101 -26 l 165 71 q 88 181 115 115 q 61 331 61 247 q 105 535 61 447 q 228 669 149 622 q 411 717 307 717 q 572 683 501 717 l 633 776 l 706 733 l 642 636 m 201 326 q 236 178 201 231 l 507 586 q 411 606 465 606 q 256 530 310 606 q 201 326 201 454 m 399 100 q 553 176 500 100 q 607 381 607 251 q 571 529 607 472 l 301 119 q 399 100 344 100 z "},"ǿ":{"ha":807,"x_min":61,"x_max":746,"o":"m 642 636 q 719 524 692 590 q 746 376 746 458 q 702 172 746 260 q 580 38 658 85 q 397 -10 501 -10 q 238 22 308 -10 l 176 -71 l 101 -26 l 165 71 q 88 181 115 115 q 61 331 61 247 q 105 535 61 447 q 228 669 149 622 q 411 717 307 717 q 572 683 501 717 l 633 776 l 706 733 l 642 636 m 201 326 q 236 178 201 231 l 507 586 q 411 606 465 606 q 256 530 310 606 q 201 326 201 454 m 399 100 q 553 176 500 100 q 607 381 607 251 q 571 529 607 472 l 301 119 q 399 100 344 100 m 392 790 l 549 1075 l 707 1075 l 485 790 l 392 790 z "},"õ":{"ha":807,"x_min":61,"x_max":746,"o":"m 397 -10 q 219 32 296 -10 q 102 151 143 74 q 61 331 61 228 q 105 535 61 447 q 228 669 149 622 q 411 717 307 717 q 588 674 513 717 q 705 556 664 632 q 746 376 746 479 q 702 172 746 260 q 580 38 658 85 q 397 -10 501 -10 m 399 100 q 551 176 497 100 q 604 381 604 253 q 554 547 604 489 q 411 606 504 606 q 257 530 311 606 q 203 326 203 454 q 252 158 203 215 q 399 100 301 100 m 211 850 q 255 979 215 936 q 354 1022 294 1022 q 408 1011 383 1022 q 468 978 433 1000 q 515 951 497 960 q 549 943 532 943 q 596 963 578 943 q 617 1018 614 982 l 686 1018 q 643 889 682 932 q 544 846 604 846 q 492 857 517 846 q 429 890 467 868 q 385 915 403 907 q 351 924 368 924 q 303 904 322 924 q 282 850 285 885 l 211 850 z "},"ṍ":{"ha":807,"x_min":61,"x_max":746,"o":"m 397 -10 q 219 32 296 -10 q 102 151 143 74 q 61 331 61 228 q 105 535 61 447 q 228 669 149 622 q 411 717 307 717 q 588 674 513 717 q 705 556 664 632 q 746 376 746 479 q 702 172 746 260 q 580 38 658 85 q 397 -10 501 -10 m 399 100 q 551 176 497 100 q 604 381 604 253 q 554 547 604 489 q 411 606 504 606 q 257 530 311 606 q 203 326 203 454 q 252 158 203 215 q 399 100 301 100 m 211 850 q 255 979 215 936 q 354 1022 294 1022 q 408 1011 383 1022 q 468 978 433 1000 q 515 951 497 960 q 549 943 532 943 q 596 963 578 943 q 617 1018 614 982 l 686 1018 q 643 889 682 932 q 544 846 604 846 q 492 857 517 846 q 429 890 467 868 q 385 915 403 907 q 351 924 368 924 q 303 904 322 924 q 282 850 285 885 l 211 850 m 413 1060 l 569 1344 l 728 1344 l 506 1060 l 413 1060 z "},"ṏ":{"ha":807,"x_min":61,"x_max":746,"o":"m 397 -10 q 219 32 296 -10 q 102 151 143 74 q 61 331 61 228 q 105 535 61 447 q 228 669 149 622 q 411 717 307 717 q 588 674 513 717 q 705 556 664 632 q 746 376 746 479 q 702 172 746 260 q 580 38 658 85 q 397 -10 501 -10 m 399 100 q 551 176 497 100 q 604 381 604 253 q 554 547 604 489 q 411 606 504 606 q 257 530 311 606 q 203 326 203 454 q 252 158 203 215 q 399 100 301 100 m 211 850 q 255 979 215 936 q 354 1022 294 1022 q 408 1011 383 1022 q 468 978 433 1000 q 515 951 497 960 q 549 943 532 943 q 596 963 578 943 q 617 1018 614 982 l 686 1018 q 643 889 682 932 q 544 846 604 846 q 492 857 517 846 q 429 890 467 868 q 385 915 403 907 q 351 924 368 924 q 303 904 322 924 q 282 850 285 885 l 211 850 m 424 1271 l 413 1132 l 268 1132 l 279 1271 l 424 1271 m 672 1271 l 660 1132 l 517 1132 l 526 1271 l 672 1271 z "},"ȭ":{"ha":807,"x_min":61,"x_max":746,"o":"m 397 -10 q 219 32 296 -10 q 102 151 143 74 q 61 331 61 228 q 105 535 61 447 q 228 669 149 622 q 411 717 307 717 q 588 674 513 717 q 705 556 664 632 q 746 376 746 479 q 702 172 746 260 q 580 38 658 85 q 397 -10 501 -10 m 399 100 q 551 176 497 100 q 604 381 604 253 q 554 547 604 489 q 411 606 504 606 q 257 530 311 606 q 203 326 203 454 q 252 158 203 215 q 399 100 301 100 m 211 850 q 255 979 215 936 q 354 1022 294 1022 q 408 1011 383 1022 q 468 978 433 1000 q 515 951 497 960 q 549 943 532 943 q 596 963 578 943 q 617 1018 614 982 l 686 1018 q 643 889 682 932 q 544 846 604 846 q 492 857 517 846 q 429 890 467 868 q 385 915 403 907 q 351 924 368 924 q 303 904 322 924 q 282 850 285 885 l 211 850 m 261 1250 l 686 1250 l 678 1151 l 253 1151 l 261 1250 z "},"œ":{"ha":1294,"x_min":61,"x_max":1239,"o":"m 954 717 q 1162 635 1085 717 q 1239 397 1239 553 q 1235 326 1239 364 l 742 326 q 798 159 743 218 q 956 100 853 100 q 1065 119 1010 100 q 1169 178 1121 139 l 1206 79 q 1090 15 1161 39 q 949 -10 1019 -10 q 778 30 850 -10 q 668 140 707 69 q 555 29 625 68 q 392 -10 485 -10 q 218 32 293 -10 q 102 151 143 74 q 61 331 61 228 q 105 535 61 447 q 227 669 149 622 q 408 717 306 717 q 576 679 507 717 q 682 569 644 642 q 793 678 724 640 q 954 717 863 717 m 958 614 q 816 561 869 614 q 747 408 763 508 l 1118 408 q 1078 562 1121 510 q 958 614 1035 614 m 399 100 q 549 176 496 100 q 603 381 603 253 q 553 547 603 489 q 411 606 503 606 q 257 530 311 606 q 203 326 203 454 q 252 158 203 215 q 399 100 301 100 z "},"p":{"ha":846,"x_min":51,"x_max":785,"o":"m 486 717 q 642 676 575 717 q 747 558 710 635 q 785 379 785 482 q 743 176 785 264 q 626 39 701 88 q 454 -10 551 -10 q 315 24 375 -10 q 224 118 256 57 l 190 -300 l 51 -300 l 115 503 q 121 635 121 560 q 119 700 121 678 l 250 700 l 253 586 q 348 682 285 647 q 486 717 411 717 m 436 100 q 588 174 533 100 q 643 375 643 247 q 592 545 643 485 q 447 606 540 606 q 295 532 350 606 q 240 331 240 458 q 291 159 240 218 q 436 100 342 100 z "},"þ":{"ha":846,"x_min":51,"x_max":786,"o":"m 488 717 q 643 676 575 717 q 749 558 711 635 q 786 379 786 482 q 744 176 786 264 q 628 39 703 88 q 456 -10 553 -10 q 315 24 375 -10 q 225 119 256 58 l 192 -300 l 51 -300 l 156 1011 l 296 1011 l 264 604 q 358 687 299 657 q 488 717 417 717 m 438 100 q 590 174 535 100 q 644 375 644 247 q 593 545 644 485 q 449 606 542 606 q 296 532 351 606 q 240 331 240 458 q 291 159 240 218 q 438 100 342 100 z "},"q":{"ha":846,"x_min":61,"x_max":781,"o":"m 781 700 q 754 503 764 610 l 690 -300 l 550 -300 l 582 103 q 489 20 549 50 q 358 -10 429 -10 q 203 31 271 -10 q 99 149 136 72 q 61 328 61 225 q 103 531 61 443 q 219 668 144 619 q 390 717 293 717 q 536 680 475 717 q 628 575 597 643 l 650 700 l 781 700 m 399 100 q 550 174 494 100 q 606 375 606 249 q 555 547 606 488 q 410 606 504 606 q 257 532 313 606 q 201 331 201 458 q 253 160 201 221 q 399 100 306 100 z "},"r":{"ha":522,"x_min":75,"x_max":546,"o":"m 479 717 q 546 707 514 717 l 533 581 q 453 594 497 594 q 305 537 357 594 q 246 390 253 479 l 215 0 l 75 0 l 115 503 q 121 644 121 597 q 119 700 121 682 l 250 700 l 253 590 q 347 683 286 650 q 479 717 407 717 z "},"ŕ":{"ha":522,"x_min":75,"x_max":617,"o":"m 479 717 q 546 707 514 717 l 533 581 q 453 594 497 594 q 305 537 357 594 q 246 390 253 479 l 215 0 l 75 0 l 115 503 q 121 644 121 597 q 119 700 121 682 l 250 700 l 253 590 q 347 683 286 650 q 479 717 407 717 m 301 790 l 458 1075 l 617 1075 l 394 790 l 301 790 z "},"ř":{"ha":522,"x_min":75,"x_max":586,"o":"m 479 717 q 546 707 514 717 l 533 581 q 453 594 497 594 q 305 537 357 594 q 246 390 253 479 l 215 0 l 75 0 l 115 503 q 121 644 121 597 q 119 700 121 682 l 250 700 l 253 590 q 347 683 286 650 q 479 717 407 717 m 586 1075 l 393 790 l 301 790 l 154 1075 l 272 1075 l 354 883 l 463 1075 l 586 1075 z "},"ŗ":{"ha":522,"x_min":49,"x_max":546,"o":"m 479 717 q 546 707 514 717 l 533 581 q 453 594 497 594 q 305 537 357 594 q 246 390 253 479 l 215 0 l 75 0 l 115 503 q 121 644 121 597 q 119 700 121 682 l 250 700 l 253 590 q 347 683 286 650 q 479 717 407 717 m 215 -99 l 210 -182 q 184 -286 204 -242 q 119 -369 164 -331 l 65 -328 q 105 -278 92 -301 q 122 -226 118 -254 l 49 -226 l 58 -99 l 215 -99 z "},"ȑ":{"ha":522,"x_min":75,"x_max":546,"o":"m 479 717 q 546 707 514 717 l 533 581 q 453 594 497 594 q 305 537 357 594 q 246 390 253 479 l 215 0 l 75 0 l 115 503 q 121 644 121 597 q 119 700 121 682 l 250 700 l 253 590 q 347 683 286 650 q 479 717 407 717 m 140 1075 l 254 1075 l 292 790 l 226 790 l 140 1075 m 318 1075 l 431 1075 l 469 790 l 403 790 l 318 1075 z "},"ṛ":{"ha":522,"x_min":50,"x_max":546,"o":"m 479 717 q 546 707 514 717 l 533 581 q 453 594 497 594 q 305 537 357 594 q 246 390 253 479 l 215 0 l 75 0 l 115 503 q 121 644 121 597 q 119 700 121 682 l 250 700 l 253 590 q 347 683 286 650 q 479 717 407 717 m 210 -121 l 199 -262 l 50 -262 l 63 -121 l 210 -121 z "},"ȓ":{"ha":522,"x_min":75,"x_max":592,"o":"m 479 717 q 546 707 514 717 l 533 581 q 453 594 497 594 q 305 537 357 594 q 246 390 253 479 l 215 0 l 75 0 l 115 503 q 121 644 121 597 q 119 700 121 682 l 250 700 l 253 590 q 347 683 286 650 q 479 717 407 717 m 364 1043 q 506 997 444 1043 q 592 860 568 950 l 511 826 q 357 947 464 947 q 266 919 307 947 q 190 826 225 892 l 113 858 q 215 998 147 953 q 364 1043 282 1043 z "},"ṟ":{"ha":522,"x_min":-86,"x_max":546,"o":"m 479 717 q 546 707 514 717 l 533 581 q 453 594 497 594 q 305 537 357 594 q 246 390 253 479 l 215 0 l 75 0 l 115 503 q 121 644 121 597 q 119 700 121 682 l 250 700 l 253 590 q 347 683 286 650 q 479 717 407 717 m -79 -144 l 346 -144 l 339 -239 l -86 -239 l -79 -144 z "},"s":{"ha":692,"x_min":36,"x_max":638,"o":"m 329 -10 q 36 79 158 -10 l 88 179 q 332 96 204 96 q 447 119 408 96 q 486 189 486 143 q 447 254 486 232 q 326 300 408 276 q 206 341 253 321 q 127 400 160 361 q 94 503 94 439 q 172 658 94 600 q 378 717 249 717 q 523 693 454 717 q 638 626 592 669 l 588 528 q 378 610 486 610 q 265 584 304 610 q 225 511 225 558 q 246 461 225 481 q 297 430 267 442 q 383 401 326 418 q 503 360 457 381 q 583 301 550 340 q 617 197 617 261 q 539 45 617 100 q 329 -10 461 -10 z "},"ś":{"ha":692,"x_min":36,"x_max":663,"o":"m 329 -10 q 36 79 158 -10 l 88 179 q 332 96 204 96 q 447 119 408 96 q 486 189 486 143 q 447 254 486 232 q 326 300 408 276 q 206 341 253 321 q 127 400 160 361 q 94 503 94 439 q 172 658 94 600 q 378 717 249 717 q 523 693 454 717 q 638 626 592 669 l 588 528 q 378 610 486 610 q 265 584 304 610 q 225 511 225 558 q 246 461 225 481 q 297 430 267 442 q 383 401 326 418 q 503 360 457 381 q 583 301 550 340 q 617 197 617 261 q 539 45 617 100 q 329 -10 461 -10 m 347 790 l 504 1075 l 663 1075 l 440 790 l 347 790 z "},"ṥ":{"ha":692,"x_min":36,"x_max":668,"o":"m 329 -10 q 36 79 158 -10 l 88 179 q 332 96 204 96 q 447 119 408 96 q 486 189 486 143 q 447 254 486 232 q 326 300 408 276 q 206 341 253 321 q 127 400 160 361 q 94 503 94 439 q 172 658 94 600 q 378 717 249 717 q 523 693 454 717 q 638 626 592 669 l 588 528 q 378 610 486 610 q 265 584 304 610 q 225 511 225 558 q 246 461 225 481 q 297 430 267 442 q 383 401 326 418 q 503 360 457 381 q 583 301 550 340 q 617 197 617 261 q 539 45 617 100 q 329 -10 461 -10 m 353 775 l 510 1060 l 668 1060 l 446 775 l 353 775 m 347 1061 l 336 914 l 172 914 l 183 1061 l 347 1061 z "},"š":{"ha":692,"x_min":36,"x_max":638,"o":"m 329 -10 q 36 79 158 -10 l 88 179 q 332 96 204 96 q 447 119 408 96 q 486 189 486 143 q 447 254 486 232 q 326 300 408 276 q 206 341 253 321 q 127 400 160 361 q 94 503 94 439 q 172 658 94 600 q 378 717 249 717 q 523 693 454 717 q 638 626 592 669 l 588 528 q 378 610 486 610 q 265 584 304 610 q 225 511 225 558 q 246 461 225 481 q 297 430 267 442 q 383 401 326 418 q 503 360 457 381 q 583 301 550 340 q 617 197 617 261 q 539 45 617 100 q 329 -10 461 -10 m 632 1075 l 439 790 l 347 790 l 200 1075 l 318 1075 l 400 883 l 508 1075 l 632 1075 z "},"ṧ":{"ha":692,"x_min":36,"x_max":638,"o":"m 329 -10 q 36 79 158 -10 l 88 179 q 332 96 204 96 q 447 119 408 96 q 486 189 486 143 q 447 254 486 232 q 326 300 408 276 q 206 341 253 321 q 127 400 160 361 q 94 503 94 439 q 172 658 94 600 q 378 717 249 717 q 523 693 454 717 q 638 626 592 669 l 588 528 q 378 610 486 610 q 265 584 304 610 q 225 511 225 558 q 246 461 225 481 q 297 430 267 442 q 383 401 326 418 q 503 360 457 381 q 583 301 550 340 q 617 197 617 261 q 539 45 617 100 q 329 -10 461 -10 m 632 1075 l 439 790 l 347 790 l 200 1075 l 318 1075 l 400 883 l 508 1075 l 632 1075 m 513 1275 l 501 1128 l 338 1128 l 349 1275 l 513 1275 z "},"ş":{"ha":692,"x_min":36,"x_max":638,"o":"m 225 511 q 246 461 225 481 q 297 430 267 442 q 383 401 326 418 q 503 360 457 381 q 583 301 550 340 q 617 197 617 261 q 544 49 617 104 q 347 -10 472 -6 l 338 -58 q 360 -57 344 -57 q 438 -82 408 -57 q 467 -151 467 -107 q 422 -239 467 -206 q 296 -272 376 -272 q 228 -265 264 -272 q 165 -246 192 -258 l 188 -179 q 296 -199 246 -199 q 350 -187 331 -199 q 369 -154 369 -176 q 324 -119 369 -119 q 265 -131 299 -119 l 240 -107 l 260 -6 q 36 79 135 8 l 88 179 q 332 96 204 96 q 447 119 408 96 q 486 189 486 143 q 447 254 486 232 q 326 300 408 276 q 206 341 253 321 q 127 400 160 361 q 94 503 94 439 q 172 658 94 600 q 378 717 249 717 q 523 693 454 717 q 638 626 592 669 l 588 528 q 378 610 486 610 q 265 584 304 610 q 225 511 225 558 z "},"ŝ":{"ha":692,"x_min":36,"x_max":638,"o":"m 329 -10 q 36 79 158 -10 l 88 179 q 332 96 204 96 q 447 119 408 96 q 486 189 486 143 q 447 254 486 232 q 326 300 408 276 q 206 341 253 321 q 127 400 160 361 q 94 503 94 439 q 172 658 94 600 q 378 717 249 717 q 523 693 454 717 q 638 626 592 669 l 588 528 q 378 610 486 610 q 265 584 304 610 q 225 511 225 558 q 246 461 225 481 q 297 430 267 442 q 383 401 326 418 q 503 360 457 381 q 583 301 550 340 q 617 197 617 261 q 539 45 617 100 q 329 -10 461 -10 m 176 790 l 369 1075 l 461 1075 l 610 790 l 492 790 l 410 979 l 300 790 l 176 790 z "},"ș":{"ha":692,"x_min":36,"x_max":638,"o":"m 329 -10 q 36 79 158 -10 l 88 179 q 332 96 204 96 q 447 119 408 96 q 486 189 486 143 q 447 254 486 232 q 326 300 408 276 q 206 341 253 321 q 127 400 160 361 q 94 503 94 439 q 172 658 94 600 q 378 717 249 717 q 523 693 454 717 q 638 626 592 669 l 588 528 q 378 610 486 610 q 265 584 304 610 q 225 511 225 558 q 246 461 225 481 q 297 430 267 442 q 383 401 326 418 q 503 360 457 381 q 583 301 550 340 q 617 197 617 261 q 539 45 617 100 q 329 -10 461 -10 m 388 -99 l 382 -182 q 356 -286 376 -242 q 292 -369 336 -331 l 238 -328 q 277 -278 264 -301 q 294 -226 290 -254 l 221 -226 l 231 -99 l 388 -99 z "},"ṡ":{"ha":692,"x_min":36,"x_max":638,"o":"m 329 -10 q 36 79 158 -10 l 88 179 q 332 96 204 96 q 447 119 408 96 q 486 189 486 143 q 447 254 486 232 q 326 300 408 276 q 206 341 253 321 q 127 400 160 361 q 94 503 94 439 q 172 658 94 600 q 378 717 249 717 q 523 693 454 717 q 638 626 592 669 l 588 528 q 378 610 486 610 q 265 584 304 610 q 225 511 225 558 q 246 461 225 481 q 297 430 267 442 q 383 401 326 418 q 503 360 457 381 q 583 301 550 340 q 617 197 617 261 q 539 45 617 100 q 329 -10 461 -10 m 492 1006 l 481 858 l 317 858 l 328 1006 l 492 1006 z "},"ṣ":{"ha":692,"x_min":36,"x_max":638,"o":"m 329 -10 q 36 79 158 -10 l 88 179 q 332 96 204 96 q 447 119 408 96 q 486 189 486 143 q 447 254 486 232 q 326 300 408 276 q 206 341 253 321 q 127 400 160 361 q 94 503 94 439 q 172 658 94 600 q 378 717 249 717 q 523 693 454 717 q 638 626 592 669 l 588 528 q 378 610 486 610 q 265 584 304 610 q 225 511 225 558 q 246 461 225 481 q 297 430 267 442 q 383 401 326 418 q 503 360 457 381 q 583 301 550 340 q 617 197 617 261 q 539 45 617 100 q 329 -10 461 -10 m 382 -121 l 371 -262 l 222 -262 l 235 -121 l 382 -121 z "},"ṩ":{"ha":692,"x_min":36,"x_max":638,"o":"m 329 -10 q 36 79 158 -10 l 88 179 q 332 96 204 96 q 447 119 408 96 q 486 189 486 143 q 447 254 486 232 q 326 300 408 276 q 206 341 253 321 q 127 400 160 361 q 94 503 94 439 q 172 658 94 600 q 378 717 249 717 q 523 693 454 717 q 638 626 592 669 l 588 528 q 378 610 486 610 q 265 584 304 610 q 225 511 225 558 q 246 461 225 481 q 297 430 267 442 q 383 401 326 418 q 503 360 457 381 q 583 301 550 340 q 617 197 617 261 q 539 45 617 100 q 329 -10 461 -10 m 382 -121 l 371 -262 l 222 -262 l 235 -121 l 382 -121 m 492 1006 l 481 858 l 317 858 l 328 1006 l 492 1006 z "},"ß":{"ha":907,"x_min":75,"x_max":857,"o":"m 551 515 q 783 408 708 478 q 857 229 857 338 q 821 106 857 160 q 720 21 785 51 q 572 -10 656 -10 q 429 14 500 -10 q 306 79 358 38 l 357 179 q 578 99 468 99 q 685 133 646 99 q 724 226 724 167 q 649 356 724 303 q 403 454 574 410 l 411 560 q 590 658 533 601 q 646 790 646 714 q 494 924 646 924 q 335 867 389 924 q 271 690 281 811 l 215 0 l 75 0 l 129 674 q 496 1031 158 1031 q 703 970 626 1031 q 779 800 779 910 q 551 515 779 611 z "},"t":{"ha":504,"x_min":28,"x_max":506,"o":"m 276 240 l 275 218 q 383 108 275 108 q 457 119 419 108 l 449 6 q 344 -10 403 -10 q 189 43 243 -10 q 135 196 135 96 q 136 228 135 217 l 164 592 l 28 592 l 38 700 l 172 700 l 186 875 l 329 924 l 313 700 l 506 700 l 497 592 l 304 592 l 276 240 z "},"ŧ":{"ha":518,"x_min":36,"x_max":513,"o":"m 311 592 l 300 453 l 465 453 l 457 350 l 292 350 l 283 240 l 282 218 q 392 108 282 108 q 464 119 426 108 l 456 6 q 351 -10 410 -10 q 196 43 250 -10 q 142 196 142 96 q 143 228 142 217 l 153 350 l 44 350 l 53 453 l 161 453 l 171 592 l 36 592 l 44 700 l 179 700 l 193 875 l 338 924 l 319 700 l 513 700 l 504 592 l 311 592 z "},"ť":{"ha":504,"x_min":28,"x_max":524,"o":"m 461 750 l 385 750 l 406 992 l 524 992 l 461 750 m 313 700 l 506 700 l 497 592 l 304 592 l 276 240 l 275 218 q 383 108 275 108 q 457 119 419 108 l 449 6 q 344 -10 403 -10 q 189 43 243 -10 q 135 196 135 96 q 136 228 135 217 l 164 592 l 28 592 l 38 700 l 172 700 l 186 875 l 329 924 l 313 700 z "},"ţ":{"ha":504,"x_min":28,"x_max":506,"o":"m 276 240 l 275 218 q 383 108 275 108 q 457 119 419 108 l 449 6 q 344 -10 403 -10 l 325 -10 l 315 -58 q 338 -57 322 -57 q 415 -82 386 -57 q 444 -151 444 -107 q 399 -239 444 -206 q 274 -272 354 -272 q 206 -265 242 -272 q 143 -246 169 -258 l 165 -179 q 274 -199 224 -199 q 328 -187 308 -199 q 347 -154 347 -176 q 301 -119 347 -119 q 243 -131 276 -119 l 218 -107 l 240 10 q 162 79 189 32 q 135 197 135 126 q 136 228 135 218 l 164 592 l 28 592 l 38 700 l 172 700 l 186 875 l 329 924 l 313 700 l 506 700 l 497 592 l 304 592 l 276 240 z "},"ț":{"ha":504,"x_min":28,"x_max":506,"o":"m 276 240 l 275 218 q 383 108 275 108 q 457 119 419 108 l 449 6 q 344 -10 403 -10 q 189 43 243 -10 q 135 196 135 96 q 136 228 135 217 l 164 592 l 28 592 l 38 700 l 172 700 l 186 875 l 329 924 l 313 700 l 506 700 l 497 592 l 304 592 l 276 240 m 365 -99 l 360 -182 q 334 -286 354 -242 q 269 -369 314 -331 l 215 -328 q 255 -278 242 -301 q 272 -226 268 -254 l 199 -226 l 208 -99 l 365 -99 z "},"ẗ":{"ha":504,"x_min":28,"x_max":506,"o":"m 276 240 l 275 218 q 383 108 275 108 q 457 119 419 108 l 449 6 q 344 -10 403 -10 q 189 43 243 -10 q 135 196 135 96 q 136 228 135 217 l 164 592 l 28 592 l 38 700 l 172 700 l 186 875 l 329 924 l 313 700 l 506 700 l 497 592 l 304 592 l 276 240 m 229 1172 l 218 1035 l 74 1035 l 85 1172 l 229 1172 m 478 1172 l 467 1035 l 322 1035 l 332 1172 l 478 1172 z "},"ṭ":{"ha":504,"x_min":28,"x_max":506,"o":"m 276 240 l 275 218 q 383 108 275 108 q 457 119 419 108 l 449 6 q 344 -10 403 -10 q 189 43 243 -10 q 135 196 135 96 q 136 228 135 217 l 164 592 l 28 592 l 38 700 l 172 700 l 186 875 l 329 924 l 313 700 l 506 700 l 497 592 l 304 592 l 276 240 m 360 -121 l 349 -262 l 200 -262 l 213 -121 l 360 -121 z "},"ṯ":{"ha":504,"x_min":28,"x_max":506,"o":"m 276 240 l 275 218 q 383 108 275 108 q 457 119 419 108 l 449 6 q 344 -10 403 -10 q 189 43 243 -10 q 135 196 135 96 q 136 228 135 217 l 164 592 l 28 592 l 38 700 l 172 700 l 186 875 l 329 924 l 313 700 l 506 700 l 497 592 l 304 592 l 276 240 m 71 -144 l 496 -144 l 489 -239 l 64 -239 l 71 -144 z "},"u":{"ha":814,"x_min":92,"x_max":739,"o":"m 739 700 l 685 0 l 547 0 l 556 106 q 460 20 521 50 q 328 -10 400 -10 q 152 52 213 -10 q 92 232 92 114 q 93 274 92 260 l 126 700 l 267 700 l 232 282 q 231 253 231 272 q 371 103 231 103 q 509 157 457 103 q 568 307 561 211 l 600 700 l 739 700 z "},"ú":{"ha":814,"x_min":92,"x_max":739,"o":"m 739 700 l 685 0 l 547 0 l 556 106 q 460 20 521 50 q 328 -10 400 -10 q 152 52 213 -10 q 92 232 92 114 q 93 274 92 260 l 126 700 l 267 700 l 232 282 q 231 253 231 272 q 371 103 231 103 q 509 157 457 103 q 568 307 561 211 l 600 700 l 739 700 m 396 790 l 553 1075 l 711 1075 l 489 790 l 396 790 z "},"ŭ":{"ha":814,"x_min":92,"x_max":739,"o":"m 739 700 l 685 0 l 547 0 l 556 106 q 460 20 521 50 q 328 -10 400 -10 q 152 52 213 -10 q 92 232 92 114 q 93 274 92 260 l 126 700 l 267 700 l 232 282 q 231 253 231 272 q 371 103 231 103 q 509 157 457 103 q 568 307 561 211 l 600 700 l 739 700 m 449 829 q 306 876 368 829 q 219 1014 244 922 l 301 1047 q 456 926 349 926 q 622 1047 557 926 l 699 1014 q 598 874 665 919 q 449 829 531 829 z "},"û":{"ha":814,"x_min":92,"x_max":739,"o":"m 739 700 l 685 0 l 547 0 l 556 106 q 460 20 521 50 q 328 -10 400 -10 q 152 52 213 -10 q 92 232 92 114 q 93 274 92 260 l 126 700 l 267 700 l 232 282 q 231 253 231 272 q 371 103 231 103 q 509 157 457 103 q 568 307 561 211 l 600 700 l 739 700 m 225 790 l 418 1075 l 510 1075 l 658 790 l 540 790 l 458 979 l 349 790 l 225 790 z "},"ȕ":{"ha":814,"x_min":92,"x_max":739,"o":"m 739 700 l 685 0 l 547 0 l 556 106 q 460 20 521 50 q 328 -10 400 -10 q 152 52 213 -10 q 92 232 92 114 q 93 274 92 260 l 126 700 l 267 700 l 232 282 q 231 253 231 272 q 371 103 231 103 q 509 157 457 103 q 568 307 561 211 l 600 700 l 739 700 m 235 1075 l 349 1075 l 386 790 l 321 790 l 235 1075 m 413 1075 l 525 1075 l 564 790 l 497 790 l 413 1075 z "},"ü":{"ha":814,"x_min":92,"x_max":739,"o":"m 739 700 l 685 0 l 547 0 l 556 106 q 460 20 521 50 q 328 -10 400 -10 q 152 52 213 -10 q 92 232 92 114 q 93 274 92 260 l 126 700 l 267 700 l 232 282 q 231 253 231 272 q 371 103 231 103 q 509 157 457 103 q 568 307 561 211 l 600 700 l 739 700 m 407 1001 l 396 863 l 251 863 l 263 1001 l 407 1001 m 656 1001 l 643 863 l 500 863 l 510 1001 l 656 1001 z "},"ụ":{"ha":814,"x_min":92,"x_max":739,"o":"m 739 700 l 685 0 l 547 0 l 556 106 q 460 20 521 50 q 328 -10 400 -10 q 152 52 213 -10 q 92 232 92 114 q 93 274 92 260 l 126 700 l 267 700 l 232 282 q 231 253 231 272 q 371 103 231 103 q 509 157 457 103 q 568 307 561 211 l 600 700 l 739 700 m 444 -121 l 433 -262 l 285 -262 l 297 -121 l 444 -121 z "},"ù":{"ha":814,"x_min":92,"x_max":739,"o":"m 739 700 l 685 0 l 547 0 l 556 106 q 460 20 521 50 q 328 -10 400 -10 q 152 52 213 -10 q 92 232 92 114 q 93 274 92 260 l 126 700 l 267 700 l 232 282 q 231 253 231 272 q 371 103 231 103 q 509 157 457 103 q 568 307 561 211 l 600 700 l 739 700 m 225 1075 l 368 1075 l 489 790 l 396 790 l 225 1075 z "},"ủ":{"ha":814,"x_min":92,"x_max":739,"o":"m 739 700 l 685 0 l 547 0 l 556 106 q 460 20 521 50 q 328 -10 400 -10 q 152 52 213 -10 q 92 232 92 114 q 93 274 92 260 l 126 700 l 267 700 l 232 282 q 231 253 231 272 q 371 103 231 103 q 509 157 457 103 q 568 307 561 211 l 600 700 l 739 700 m 486 790 l 403 790 l 406 826 q 424 876 408 856 q 467 919 440 897 q 481 933 469 922 q 499 952 493 943 q 504 971 504 961 q 453 1003 504 1003 q 372 988 418 1003 l 354 1057 q 475 1079 406 1079 q 573 1053 536 1079 q 610 986 610 1026 q 592 931 610 953 q 543 886 575 910 q 502 851 515 865 q 488 815 489 836 l 486 790 z "},"ư":{"ha":836,"x_min":92,"x_max":919,"o":"m 919 883 l 917 842 q 862 701 911 757 q 735 631 813 644 l 685 0 l 547 0 l 556 106 q 460 20 521 50 q 328 -10 400 -10 q 152 52 213 -10 q 92 232 92 114 q 93 274 92 260 l 126 700 l 267 700 l 232 282 q 231 253 231 272 q 371 103 231 103 q 509 157 457 103 q 568 307 561 211 l 600 700 l 640 700 q 753 738 717 700 q 796 861 790 775 l 797 883 l 919 883 z "},"ứ":{"ha":836,"x_min":92,"x_max":919,"o":"m 919 883 l 917 842 q 862 701 911 757 q 735 631 813 644 l 685 0 l 547 0 l 556 106 q 460 20 521 50 q 328 -10 400 -10 q 152 52 213 -10 q 92 232 92 114 q 93 274 92 260 l 126 700 l 267 700 l 232 282 q 231 253 231 272 q 371 103 231 103 q 509 157 457 103 q 568 307 561 211 l 600 700 l 640 700 q 753 738 717 700 q 796 861 790 775 l 797 883 l 919 883 m 396 790 l 553 1075 l 711 1075 l 489 790 l 396 790 z "},"ự":{"ha":836,"x_min":92,"x_max":919,"o":"m 919 883 l 917 842 q 862 701 911 757 q 735 631 813 644 l 685 0 l 547 0 l 556 106 q 460 20 521 50 q 328 -10 400 -10 q 152 52 213 -10 q 92 232 92 114 q 93 274 92 260 l 126 700 l 267 700 l 232 282 q 231 253 231 272 q 371 103 231 103 q 509 157 457 103 q 568 307 561 211 l 600 700 l 640 700 q 753 738 717 700 q 796 861 790 775 l 797 883 l 919 883 m 446 -121 l 435 -262 l 286 -262 l 299 -121 l 446 -121 z "},"ừ":{"ha":836,"x_min":92,"x_max":919,"o":"m 919 883 l 917 842 q 862 701 911 757 q 735 631 813 644 l 685 0 l 547 0 l 556 106 q 460 20 521 50 q 328 -10 400 -10 q 152 52 213 -10 q 92 232 92 114 q 93 274 92 260 l 126 700 l 267 700 l 232 282 q 231 253 231 272 q 371 103 231 103 q 509 157 457 103 q 568 307 561 211 l 600 700 l 640 700 q 753 738 717 700 q 796 861 790 775 l 797 883 l 919 883 m 225 1075 l 368 1075 l 489 790 l 396 790 l 225 1075 z "},"ử":{"ha":836,"x_min":92,"x_max":919,"o":"m 919 883 l 917 842 q 862 701 911 757 q 735 631 813 644 l 685 0 l 547 0 l 556 106 q 460 20 521 50 q 328 -10 400 -10 q 152 52 213 -10 q 92 232 92 114 q 93 274 92 260 l 126 700 l 267 700 l 232 282 q 231 253 231 272 q 371 103 231 103 q 509 157 457 103 q 568 307 561 211 l 600 700 l 640 700 q 753 738 717 700 q 796 861 790 775 l 797 883 l 919 883 m 486 790 l 403 790 l 406 826 q 424 876 408 856 q 467 919 440 897 q 481 933 469 922 q 499 952 493 943 q 504 971 504 961 q 453 1003 504 1003 q 372 988 418 1003 l 354 1057 q 475 1079 406 1079 q 573 1053 536 1079 q 610 986 610 1026 q 592 931 610 953 q 543 886 575 910 q 502 851 515 865 q 488 815 489 836 l 486 790 z "},"ữ":{"ha":836,"x_min":92,"x_max":919,"o":"m 919 883 l 917 842 q 862 701 911 757 q 735 631 813 644 l 685 0 l 547 0 l 556 106 q 460 20 521 50 q 328 -10 400 -10 q 152 52 213 -10 q 92 232 92 114 q 93 274 92 260 l 126 700 l 267 700 l 232 282 q 231 253 231 272 q 371 103 231 103 q 509 157 457 103 q 568 307 561 211 l 600 700 l 640 700 q 753 738 717 700 q 796 861 790 775 l 797 883 l 919 883 m 215 850 q 259 979 219 936 q 358 1022 299 1022 q 413 1011 388 1022 q 472 978 438 1000 q 519 951 501 960 q 553 943 536 943 q 600 963 582 943 q 621 1018 618 982 l 690 1018 q 647 889 686 932 q 549 846 608 846 q 496 857 521 846 q 433 890 471 868 q 390 915 407 907 q 356 924 372 924 q 308 904 326 924 q 286 850 289 885 l 215 850 z "},"ű":{"ha":814,"x_min":92,"x_max":739,"o":"m 739 700 l 685 0 l 547 0 l 556 106 q 460 20 521 50 q 328 -10 400 -10 q 152 52 213 -10 q 92 232 92 114 q 93 274 92 260 l 126 700 l 267 700 l 232 282 q 231 253 231 272 q 371 103 231 103 q 509 157 457 103 q 568 307 561 211 l 600 700 l 739 700 m 321 790 l 400 1075 l 521 1075 l 386 790 l 321 790 m 497 790 l 576 1075 l 699 1075 l 564 790 l 497 790 z "},"ȗ":{"ha":814,"x_min":92,"x_max":739,"o":"m 739 700 l 685 0 l 547 0 l 556 106 q 460 20 521 50 q 328 -10 400 -10 q 152 52 213 -10 q 92 232 92 114 q 93 274 92 260 l 126 700 l 267 700 l 232 282 q 231 253 231 272 q 371 103 231 103 q 509 157 457 103 q 568 307 561 211 l 600 700 l 739 700 m 458 1043 q 601 997 539 1043 q 686 860 663 950 l 606 826 q 451 947 558 947 q 360 919 401 947 q 285 826 319 892 l 207 858 q 309 998 242 953 q 458 1043 376 1043 z "},"ū":{"ha":814,"x_min":92,"x_max":739,"o":"m 739 700 l 685 0 l 547 0 l 556 106 q 460 20 521 50 q 328 -10 400 -10 q 152 52 213 -10 q 92 232 92 114 q 93 274 92 260 l 126 700 l 267 700 l 232 282 q 231 253 231 272 q 371 103 231 103 q 509 157 457 103 q 568 307 561 211 l 600 700 l 739 700 m 244 981 l 669 981 l 661 882 l 236 882 l 244 981 z "},"ṻ":{"ha":814,"x_min":92,"x_max":739,"o":"m 739 700 l 685 0 l 547 0 l 556 106 q 460 20 521 50 q 328 -10 400 -10 q 152 52 213 -10 q 92 232 92 114 q 93 274 92 260 l 126 700 l 267 700 l 232 282 q 231 253 231 272 q 371 103 231 103 q 509 157 457 103 q 568 307 561 211 l 600 700 l 739 700 m 244 981 l 669 981 l 661 882 l 236 882 l 244 981 m 428 1271 l 417 1132 l 272 1132 l 283 1271 l 428 1271 m 676 1271 l 664 1132 l 521 1132 l 531 1271 l 676 1271 z "}}}
